<?xml version="1.0" encoding="UTF-8"?>
<!DOCTYPE svg PUBLIC "-//W3C//DTD SVG 1.1//EN" "http://www.w3.org/Graphics/SVG/1.1/DTD/svg11.dtd">
<!-- Creator: CorelDRAW X7 -->
<svg xmlns="http://www.w3.org/2000/svg" xml:space="preserve" width="4.4139mm" height="2.388mm" version="1.1" style="shape-rendering:geometricPrecision; text-rendering:geometricPrecision; image-rendering:optimizeQuality; fill-rule:evenodd; clip-rule:evenodd"
viewBox="0 0 1023 553"
 xmlns:xlink="http://www.w3.org/1999/xlink">
 <defs>
  <style type="text/css">
   <![CDATA[
    .fil0 {fill:#2B2A29;fill-rule:nonzero}
   ]]>
  </style>
 </defs>
 <g id="Слой_x0020_1">
  <metadata id="CorelCorpID_0Corel-Layer"/>
  <path class="fil0" d="M161 0c-111,0 -161,124 -161,279 0,139 40,274 158,274 87,0 158,-85 158,-279 0,-129 -28,-274 -155,-274zm-1 93c35,0 46,67 46,184 0,124 -12,183 -46,183 -36,0 -52,-57 -50,-183 -1,-126 16,-184 50,-184zm236 460c17,0 34,0 50,-2 53,-8 101,-32 134,-68 50,-53 89,-139 89,-261 0,-131 -53,-222 -154,-222 -104,0 -160,96 -160,189 0,99 57,162 127,162 35,0 60,-14 77,-34l3 0c-9,49 -29,87 -53,109 -19,18 -42,29 -64,33 -17,3 -28,4 -49,4l0 90zm113 -474c30,0 50,40 50,111 0,36 -1,48 -5,58 -6,14 -22,28 -41,28 -34,0 -50,-43 -51,-96 -2,-65 20,-101 47,-101zm241 474c17,0 34,0 50,-2 53,-8 101,-32 134,-68 50,-53 89,-139 89,-261 0,-131 -53,-222 -154,-222 -104,0 -160,96 -160,189 0,99 57,162 127,162 35,0 60,-14 77,-34l3 0c-9,49 -29,87 -53,109 -19,18 -42,29 -64,33 -17,3 -28,4 -49,4l0 90zm113 -474c30,0 50,40 50,111 0,36 -1,48 -5,58 -6,14 -22,28 -41,28 -34,0 -50,-43 -51,-96 -2,-65 20,-101 47,-101z"/>
 </g>
</svg>
