<?xml version="1.0" encoding="UTF-8"?>
<!DOCTYPE svg PUBLIC "-//W3C//DTD SVG 1.1//EN" "http://www.w3.org/Graphics/SVG/1.1/DTD/svg11.dtd">
<!-- Creator: CorelDRAW X7 -->
<svg xmlns="http://www.w3.org/2000/svg" xml:space="preserve" width="7.6207mm" height="13.0259mm" version="1.1" style="shape-rendering:geometricPrecision; text-rendering:geometricPrecision; image-rendering:optimizeQuality; fill-rule:evenodd; clip-rule:evenodd"
viewBox="0 0 70 120"
 xmlns:xlink="http://www.w3.org/1999/xlink">
 <defs>
  <style type="text/css">
   <![CDATA[
    .fil0 {fill:#FEFEFE;fill-rule:nonzero}
   ]]>
  </style>
 </defs>
 <g id="Слой_x0020_1">
  <metadata id="CorelCorpID_0Corel-Layer"/>
  <path class="fil0" d="M11 0c-2,0 -4,3 -4,6 0,3 1,6 4,6 2,0 3,-2 3,-6 0,-3 0,-6 -3,-6zm0 2c1,0 1,2 1,4 0,2 0,4 -1,4 -1,0 -1,-2 -1,-4 0,-2 0,-4 1,-4zm10 -2c0,0 -1,0 -2,0 -1,1 -2,1 -3,2 0,1 -1,3 -1,5 0,2 1,5 4,5 2,0 3,-2 3,-5 0,-2 -1,-4 -3,-4 -1,0 -1,1 -2,2l0 0c0,-1 0,-1 1,-2 0,0 0,-1 2,-1 0,0 1,0 1,0l0 -2zm-1 7c0,1 -1,3 -1,3 -1,0 -2,-2 -2,-3 0,0 0,-1 1,-1 0,-1 0,-1 1,-1 0,0 1,2 1,2zm3 -4l0 8 2 0c0,-1 1,-2 1,-3 1,0 1,-1 1,-2l0 0c0,1 0,2 0,4l0 1 2 0 0 -8 -2 0 -1 3c-1,1 -1,2 -1,3l0 0c0,-1 0,-2 0,-4l0 -2 -2 0zm7 12l2 0 0 -4 0 0c1,0 1,1 2,1 1,0 2,-2 2,-5 0,-2 0,-4 -2,-4 -1,0 -1,1 -2,1l0 0 0 -1 -2 0c0,1 0,2 0,3l0 9zm2 -9c0,0 0,0 1,0 0,-1 0,-1 0,-1 1,0 1,1 1,2 0,2 0,3 -1,3 0,0 0,0 0,-1 -1,0 -1,0 -1,-1l0 -2zm11 1c0,-2 0,-4 -3,-4 -1,0 -2,1 -2,1l0 1c1,0 1,0 2,0 0,0 1,0 1,1l0 0c-2,0 -4,1 -4,3 0,2 1,3 2,3 1,0 2,-1 2,-1l0 0 0 0 2 0c0,0 0,-1 0,-1l0 -3zm-2 2c0,0 0,0 0,0 0,1 -1,1 -1,1 0,0 -1,0 -1,-1 0,-1 1,-1 2,-1l0 1zm3 -6l0 8 2 0c1,-1 2,-2 2,-3 0,0 0,-1 1,-2l0 0c0,1 -1,2 -1,4l0 1 2 0 0 -8 -2 0 -1 3c0,1 0,2 -1,3l0 0c0,-1 0,-2 0,-4l0 -2 -2 0zm1 -3c0,2 1,2 2,2 2,0 2,0 2,-2l-1 0c0,1 0,1 -1,1 0,0 0,0 0,-1l-2 0zm6 3l0 2 2 0 0 6 2 0 0 -6 2 0 0 -2 -6 0zm12 5c0,0 0,0 0,-1 0,-2 -1,-4 -2,-4 -2,0 -4,2 -4,5 0,2 2,3 4,3 0,0 1,0 2,0l0 -1c-1,0 -1,0 -2,0 -1,0 -2,-1 -2,-2l4 0zm-4 -1c0,-1 1,-2 1,-2 1,0 1,1 1,2l-2 0zm-35 24c0,0 0,0 0,0 -1,0 -2,-1 -2,-2 0,-2 1,-3 2,-3 0,0 0,0 0,0l1 -1c0,0 -1,-1 -1,-1 -3,0 -4,2 -4,5 0,2 1,4 3,4 1,0 1,0 2,-1l-1 -1zm1 2c1,0 2,0 2,0 2,0 5,-1 5,-3 0,-1 -1,-2 -2,-2l0 0c1,0 1,-1 1,-2 0,-1 -2,-2 -3,-2 -1,0 -2,1 -3,1l0 8zm3 -7c0,0 0,0 0,0 1,0 1,0 1,1 0,0 0,1 -1,1l0 0 0 -2zm0 3l0 0c1,0 2,0 2,1 0,1 -1,1 -2,1 0,0 0,0 0,0l0 -2zm8 -5c-2,0 -3,2 -3,5 0,2 1,4 3,4 1,0 3,-1 3,-4 0,-3 -2,-5 -3,-5zm0 2c0,0 0,1 0,3 0,1 0,2 0,2 -1,0 -1,-1 -1,-2 0,-2 0,-3 1,-3zm4 -1l0 8 2 0 0 -7 2 0 0 -1 -4 0zm8 -1c-2,0 -3,2 -3,5 0,2 1,4 3,4 1,0 3,-1 3,-4 0,-3 -1,-5 -3,-5zm0 2c0,0 1,1 1,3 0,1 -1,2 -1,2 -1,0 -1,-1 -1,-2 0,-2 0,-3 1,-3zm-37 26c-1,0 -1,0 -1,0 -1,0 -2,-1 -2,-2 0,-2 1,-3 2,-3 0,0 1,0 1,1l0 -2c0,0 -1,0 -1,0 -2,0 -4,1 -4,4 0,2 1,4 3,4 1,0 2,0 2,0l0 -2zm3 2l0 -8 -2 0 0 8 2 0zm-1 -12c-1,0 -1,1 -1,2 0,0 0,1 1,1 0,0 1,-1 1,-1 0,-1 -1,-2 -1,-2zm2 12l2 0 0 -3c0,-1 0,-2 0,-3l0 0c0,0 1,2 1,3l0 3 2 0 1 -3c0,-1 0,-3 1,-3l0 0c0,1 0,2 0,3l0 3 2 0 -1 -8 -2 0 -1 2c0,1 0,2 0,3l-1 0c0,-1 0,-2 0,-3l-1 -2 -2 0 -1 8zm15 -4c1,0 1,0 1,-1 0,-2 -1,-3 -3,-3 -2,0 -3,1 -3,4 0,2 1,4 3,4 1,0 2,0 2,-1l0 -1c0,0 -1,0 -2,0 -1,0 -1,0 -1,-2l3 0zm-3 -1c0,-1 0,-2 1,-2 0,0 1,1 1,2l-2 0zm5 -3l0 8 2 0c0,-1 1,-3 1,-3 0,-1 1,-2 1,-3l0 0c0,1 0,2 0,4l0 2 2 0 0 -8 -2 0 -2 3c0,0 0,1 0,2l0 0c0,-1 0,-2 0,-4l0 -1 -2 0zm1 -3c0,1 0,2 2,2 1,0 2,-1 2,-2l-2 0c0,0 0,1 0,1 -1,0 -1,-1 -1,-1l-1 0zm6 3l0 8 2 0 0 -3 2 0 0 3 2 0 0 -8 -2 0 0 3 -2 0 0 -3 -2 0zm10 0c-1,0 -3,1 -3,4 0,2 1,4 3,4 2,0 3,-1 3,-4 0,-3 -1,-4 -3,-4zm0 1c1,0 1,2 1,3 0,1 0,2 -1,2 0,0 -1,-1 -1,-2 0,-1 1,-3 1,-3zm5 -1l0 8 2 0 0 -7 2 0 0 -1 -4 0zm8 0c-2,0 -4,1 -4,4 0,2 2,4 3,4 2,0 4,-1 4,-4 0,-3 -2,-4 -3,-4zm-1 1c1,0 1,2 1,3 0,1 0,2 0,2 -1,0 -1,-1 -1,-2 0,-1 0,-3 0,-3zm-46 20l0 3c0,1 0,2 0,3 0,0 -1,0 -1,0l0 2c1,0 1,0 1,0 2,-1 2,-3 2,-5l0 -1 1 0 0 6 2 0 0 -8 -5 0zm9 8l0 -8 -2 0 0 8 2 0zm-1 -11c-1,0 -1,0 -1,1 0,0 0,1 1,1 1,0 1,-1 1,-1 0,-1 0,-1 -1,-1zm2 3l0 8 3 0 0 -3 0 0c0,0 1,0 1,1 0,1 0,1 0,2l2 0c0,-1 0,-2 0,-2 0,-1 -1,-2 -2,-3l2 -3 -2 0 -1 3 0 0 0 -3 -3 0zm13 3c0,-2 -1,-3 -3,-3 -1,0 -2,0 -2,0l0 2c0,-1 1,-1 2,-1 0,0 1,1 1,1l0 1c-2,0 -4,0 -4,3 0,1 1,2 2,2 1,0 1,0 2,-1l0 0 0 1 2 0c0,-1 0,-1 0,-2l0 -3zm-2 2c0,0 0,1 0,1 0,0 -1,0 -1,0 -1,0 -1,0 -1,-1 0,-1 1,-1 2,-1l0 1zm3 6l2 0 0 -4 0 0c1,1 1,1 2,1 1,0 2,-1 2,-4 0,-2 0,-4 -2,-4 -1,0 -1,0 -2,1l0 0 0 -1 -2 0c0,1 0,1 0,2l0 9zm2 -8c0,0 0,-1 1,-1 0,0 0,0 0,0 1,0 1,0 1,2 0,1 0,2 -1,2 0,0 0,0 0,0 -1,-1 -1,-1 -1,-1l0 -2zm11 -3c0,0 -1,0 -2,0 -1,0 -2,0 -3,0 0,1 -1,1 -1,2 0,1 1,2 2,2l0 0c0,0 -1,0 -1,1 0,0 -1,1 -1,2 0,0 0,1 0,1l2 0c0,0 0,-1 0,-1 1,-1 1,-2 1,-2 0,0 1,0 1,0l0 0 0 3 2 0 0 -8zm-2 3c0,0 0,0 0,0 -1,0 -2,0 -2,-1 0,0 1,-1 2,-1 0,0 0,0 0,0l0 2zm4 7c1,-1 2,-3 2,-5l-2 1c0,1 0,3 -1,4l1 0zm-49 11l0 8 2 0 0 -6 2 0 0 6 2 0 0 -8 -6 0zm10 8l0 -8 -2 0 0 8 2 0zm-1 -11c-1,0 -1,0 -1,1 0,1 0,1 1,1 0,0 1,0 1,-1 0,-1 -1,-1 -1,-1zm3 3l0 2c0,1 0,2 0,3 0,0 0,1 -1,1l0 0 0 4 1 0 1 -2 3 0 1 2 1 0 0 -4 0 0 0 -6 -6 0zm2 2l1 0 0 4 -2 0c1,0 1,-1 1,-1 0,-1 0,-2 0,-3l0 0zm5 -2l0 8 2 0 0 -6 2 0 0 6 2 0 0 -8 -6 0zm8 0l0 8 2 0c0,-1 1,-3 1,-3 0,-1 0,-2 1,-2l0 0c0,1 0,2 0,3l0 2 2 0 0 -8 -2 0 -2 3c0,1 0,2 -1,2l0 0c0,0 1,-2 1,-3l0 -2 -2 0zm7 0l0 8 9 0 0 -8 -2 0 0 6 -1 0 0 -6 -2 0 0 6 -2 0 0 -6 -2 0zm13 8l0 -8 -2 0 0 8 2 0zm-1 -11c-1,0 -1,0 -1,1 0,1 0,1 1,1 1,0 1,0 1,-1 0,-1 0,-1 -1,-1zm2 3l0 2 2 0 0 6 2 0 0 -6 2 0 0 -2 -6 0zm6 0l0 8c1,0 2,0 3,0 1,0 2,0 3,-1 0,0 1,-1 1,-2 0,-2 -2,-3 -4,-3 0,0 0,1 0,1l0 -3 -3 0zm3 4c0,0 0,0 0,0 1,0 1,0 1,1 0,1 0,1 -1,1 0,0 0,0 0,0l0 -2zm-60 17l0 2c0,1 -1,2 -1,3 0,0 0,1 0,2l-1 0 0 3 2 0 0 -2 4 0 0 2 1 0 0 -3 0 0 0 -7 -5 0zm1 2l2 0 0 5 -2 0c0,-1 0,-2 0,-2 0,-1 0,-2 0,-3l0 0zm11 3c0,0 0,-1 0,-1 0,-3 -1,-4 -3,-4 -2,0 -3,2 -3,4 0,3 1,4 3,4 1,0 2,0 3,0l-1 -2c0,0 -1,1 -1,1 -1,0 -2,-1 -2,-2l4 0zm-4 -2c0,0 0,-1 1,-1 1,0 1,0 1,1l-2 0zm5 -3l0 8 2 0 0 -3 0 0c1,0 1,0 1,1 1,1 1,2 1,2l2 0c0,0 0,-2 -1,-2 0,-1 0,-2 -1,-2l2 -4 -2 0 -2 3 0 0 0 -3 -2 0zm8 0l0 4c0,1 -1,2 -1,2 0,0 0,0 -1,1l1 1c0,0 1,0 1,0 1,-1 2,-2 2,-4l0 -2 1 0 0 6 2 0 0 -8 -5 0zm12 3c0,-1 -1,-3 -3,-3 -1,0 -2,0 -3,1l1 1c0,0 1,0 1,0 1,0 2,0 2,1l0 0c-2,0 -4,1 -4,3 0,1 1,2 2,2 1,0 1,0 2,-1l0 0 0 1 2 0c0,0 0,-1 0,-2l0 -3zm-2 3c0,0 0,0 0,0 -1,0 -1,1 -1,1 -1,0 -1,-1 -1,-1 0,-1 1,-2 2,-2l0 2zm3 5l2 0 0 -4 0 0c1,1 1,1 2,1 1,0 2,-1 2,-4 0,-2 0,-4 -2,-4 -1,0 -2,0 -2,1l0 0 0 -1 -2 0c0,1 0,2 0,3l0 8zm2 -8c0,0 0,0 0,-1 1,0 1,0 1,0 1,0 1,1 1,2 0,1 0,3 -1,3 0,0 0,-1 -1,-1 0,0 0,-1 0,-1l0 -2zm11 0c0,-1 -1,-3 -3,-3 -1,0 -2,0 -2,1l0 1c0,0 1,0 2,0 0,0 1,0 1,1l0 0c-2,0 -4,1 -4,3 0,1 1,2 2,2 1,0 2,0 2,-1l0 0 0 1 2 0c0,0 0,-1 0,-2l0 -3zm-2 3c0,0 0,0 0,0 0,0 -1,1 -1,1 0,0 -1,-1 -1,-1 0,-1 1,-2 2,-2l0 2zm3 -6l0 8 5 0 0 2 2 0 0 -3 -1 0 0 -7 -2 0 0 6 -1 0 0 -6 -3 0zm10 8l0 -8 -2 0 0 8 2 0zm-1 -11c-1,0 -1,0 -1,1 0,1 0,1 1,1 1,0 1,0 1,-1 0,-1 0,-1 -1,-1zm3 3l0 8 2 0 0 -3 0 0c1,2 2,3 3,3 2,0 3,-1 3,-4 0,-2 -1,-4 -3,-4 -1,0 -2,1 -3,3l0 0 0 -3 -2 0zm5 7c0,0 -1,-2 -1,-3 0,-1 1,-2 1,-2 1,0 1,1 1,2 0,1 0,3 -1,3z"/>
 </g>
</svg>
