<?xml version="1.0" encoding="UTF-8"?>
<!DOCTYPE svg PUBLIC "-//W3C//DTD SVG 1.1//EN" "http://www.w3.org/Graphics/SVG/1.1/DTD/svg11.dtd">
<!-- Creator: CorelDRAW X7 -->
<svg xmlns="http://www.w3.org/2000/svg" xml:space="preserve" width="9.6354mm" height="12.8644mm" version="1.1" style="shape-rendering:geometricPrecision; text-rendering:geometricPrecision; image-rendering:optimizeQuality; fill-rule:evenodd; clip-rule:evenodd"
viewBox="0 0 258 344"
 xmlns:xlink="http://www.w3.org/1999/xlink">
 <defs>
  <style type="text/css">
   <![CDATA[
    .str0 {stroke:#FEFEFE;stroke-width:6.69434;stroke-linecap:round;stroke-linejoin:round}
    .fil0 {fill:none;fill-rule:nonzero}
    .fil1 {fill:#2B2A29;fill-rule:nonzero}
   ]]>
  </style>
 </defs>
 <g id="Слой_x0020_1">
  <metadata id="CorelCorpID_0Corel-Layer"/>
  <g>
   <path class="fil0 str0" d="M55 21c0,5 -1,9 -4,12 -3,4 -7,5 -11,5 -5,0 -8,-1 -11,-4 -3,-3 -4,-7 -4,-11 0,-5 1,-9 4,-13 3,-3 7,-4 11,-4 5,0 8,1 11,4 3,3 4,7 4,11zm-6 1c0,-3 -1,-6 -3,-8 -2,-2 -4,-3 -6,-3 -2,0 -4,1 -6,3 -2,2 -3,5 -3,8 0,3 1,6 3,8 2,2 4,3 6,3 3,0 5,-1 6,-3 2,-2 3,-5 3,-8zm34 4c0,4 -1,7 -4,9 -2,2 -5,3 -9,3 -4,0 -7,-1 -9,-4 -1,-2 -2,-6 -2,-12 0,-3 0,-6 1,-8 0,-2 1,-4 3,-5 1,-1 3,-2 5,-3 2,-1 4,-1 7,-2 1,0 1,0 2,0 1,0 3,0 4,0l0 5c-1,0 -2,0 -3,0 -1,0 -2,0 -4,1 -1,0 -3,0 -4,0 -1,1 -2,1 -3,2 -1,0 -1,1 -2,2 0,1 -1,3 -1,4l1 0c1,-2 4,-3 7,-3 3,0 6,1 8,3 2,2 3,4 3,8zm-6 1c0,-2 -1,-4 -2,-5 -1,-2 -2,-2 -4,-2 -3,0 -5,1 -6,2 0,5 0,8 1,9 1,2 3,3 5,3 1,0 3,-1 4,-2 1,-1 2,-3 2,-5zm31 10l-6 0c0,-2 0,-6 0,-9 0,-1 0,-3 1,-5l-1 0c0,1 -2,3 -5,7 -4,4 -5,6 -5,7l-5 0c0,-3 0,-7 0,-11 0,-5 0,-8 0,-11l6 -1c0,3 0,6 0,9 0,2 0,4 0,6l0 0c0,-1 2,-3 5,-7 4,-4 5,-6 5,-7l5 -1c0,3 0,7 0,12 0,4 0,8 0,11zm28 -12c0,4 -1,7 -3,9 -2,3 -4,4 -8,4 -2,0 -4,0 -5,-2l0 0c0,4 0,8 0,12l-6 0c0,-4 0,-10 0,-16 0,-7 0,-13 -1,-17l6 -1 0 2 1 0c1,-1 4,-2 6,-2 4,0 6,1 8,3 1,2 2,5 2,8zm-6 1c0,-2 0,-4 -1,-5 -1,-2 -3,-3 -5,-3 -2,0 -3,1 -4,2 0,5 0,9 0,13 1,0 2,1 4,1 2,0 4,-1 5,-3 1,-1 1,-3 1,-5zm30 11l-6 1c0,-1 0,-2 0,-2l0 0c-2,1 -4,2 -7,2 -2,0 -4,-1 -5,-2 -2,-1 -2,-2 -2,-4 0,-2 1,-4 3,-6 2,-2 5,-2 11,-2 0,-1 0,-1 0,-1 0,-2 -1,-3 -2,-4 0,0 -2,0 -4,0 -3,0 -5,0 -7,0l0 -4c2,-1 6,-1 9,-1 3,0 6,1 7,2 2,1 2,3 2,6 0,1 0,2 0,4 0,2 0,3 0,3 0,4 1,6 1,8zm-6 -5c0,-2 0,-4 0,-5 -6,0 -9,1 -9,4 0,2 2,3 4,3 2,0 3,-1 5,-2zm32 5l-6 0c0,-2 0,-6 0,-9 0,-1 0,-3 0,-5l0 0c0,1 -2,3 -6,7 -3,4 -4,6 -4,7l-5 0c0,-3 0,-7 0,-11 0,-5 0,-8 -1,-11l7 -1c0,3 0,6 0,9 0,2 0,4 -1,6l1 0c0,-1 2,-3 5,-7 3,-4 5,-6 5,-7l5 -1c0,3 0,7 0,12 0,4 0,8 0,11zm-2 -33c0,5 -2,7 -8,7 -3,0 -5,0 -7,-2 -1,-1 -2,-3 -2,-5l6 -1c0,3 1,5 3,5 1,0 2,0 3,-1 0,-1 0,-2 0,-4l5 1zm26 11l0 5c-3,-1 -5,-1 -7,-1 0,2 0,5 0,7 0,4 0,8 0,11l-6 0c0,-3 0,-7 0,-11 0,-2 0,-4 0,-7 -2,0 -5,0 -7,1l0 -5 20 0zm24 9c0,0 0,1 0,3l-15 0c0,2 1,3 2,5 1,1 3,1 5,1 3,0 5,0 8,-1l-1 5c-2,1 -4,1 -8,1 -4,0 -7,-1 -9,-3 -2,-3 -3,-5 -3,-9 0,-3 1,-6 3,-9 2,-2 5,-3 8,-3 4,0 6,1 8,3 1,1 2,4 2,7zm-5 -1c0,-3 -2,-5 -5,-5 -3,0 -5,2 -5,6l10 -1zm-139 68l-1 4c-1,1 -3,2 -6,2 -4,0 -7,-2 -9,-4 -2,-2 -4,-5 -4,-8 0,-3 2,-6 4,-9 2,-2 5,-4 9,-4 2,0 4,1 6,1l-1 5c-2,-1 -3,-1 -5,-1 -2,0 -4,1 -5,2 -1,2 -1,3 -1,5 0,2 0,4 2,6 1,1 3,2 5,2 2,0 3,0 6,-1zm24 -2c0,3 -1,4 -3,5 -2,2 -5,2 -8,2 -1,0 -3,0 -5,0 -3,0 -4,0 -5,0 0,-3 1,-7 1,-11 0,-5 -1,-8 -1,-12l4 0c2,0 5,0 7,0 6,0 9,2 9,5 0,3 -2,4 -4,5l0 1c3,0 5,2 5,5zm-6 0c0,-1 0,-2 -1,-2 -1,-1 -3,-1 -5,-1 -1,0 -2,0 -3,0 0,2 0,4 0,6 2,0 3,0 4,0 3,0 5,-1 5,-3zm-1 -9c0,-2 -1,-3 -4,-3 -1,0 -3,0 -4,0 0,2 0,4 0,6 1,0 3,0 4,0 3,0 4,-1 4,-3zm34 4c0,4 -1,7 -4,9 -2,3 -5,4 -8,4 -3,0 -6,-1 -8,-3 -3,-2 -4,-5 -4,-9 0,-4 1,-7 4,-9 2,-3 5,-4 9,-4 3,0 5,1 8,3 2,2 3,5 3,9zm-6 1c0,-2 -1,-4 -2,-6 -1,-2 -2,-2 -4,-2 -2,0 -3,0 -4,2 -1,1 -2,3 -2,5 0,3 1,5 2,6 1,2 2,2 4,2 2,0 3,0 4,-2 1,-1 2,-3 2,-5zm27 -12l0 5c-1,0 -5,0 -11,0 1,3 1,5 1,7 0,4 0,8 0,11l-6 0c0,-3 0,-7 0,-11 0,-5 0,-8 0,-12l16 0zm26 11c0,4 -1,7 -3,9 -3,3 -6,4 -9,4 -3,0 -6,-1 -8,-3 -3,-2 -4,-5 -4,-9 0,-4 2,-7 4,-9 3,-3 5,-4 9,-4 3,0 6,1 8,3 2,2 3,5 3,9zm-6 1c0,-2 0,-4 -2,-6 -1,-2 -2,-2 -4,-2 -1,0 -3,0 -4,2 -1,1 -1,3 -1,5 0,3 0,5 1,6 1,2 3,2 4,2 2,0 3,0 5,-2 1,-1 1,-3 1,-5zm-141 65l-1 4c-1,1 -3,1 -6,1 -4,0 -7,-1 -9,-3 -2,-3 -3,-5 -3,-8 0,-4 1,-7 3,-9 2,-3 6,-4 10,-4 1,0 3,0 5,1l-1 5c-2,-1 -3,-1 -5,-1 -2,0 -3,0 -5,2 -1,1 -1,3 -1,5 0,2 0,4 2,5 1,2 3,2 5,2 2,0 4,0 6,0zm10 5l-6 0c0,-4 0,-8 0,-12 0,-4 0,-8 -1,-11l7 -1c0,3 0,7 0,12 0,4 0,8 0,12zm1 -30c0,1 0,2 -1,3 -1,0 -2,1 -3,1 -1,0 -2,-1 -3,-1 0,-1 -1,-2 -1,-3 0,-1 1,-2 2,-3 0,0 1,-1 3,-1 1,0 2,1 2,1 1,1 1,2 1,3zm33 30l-6 0c0,-3 0,-6 0,-11 0,-4 0,-7 0,-8l-1 0c0,2 -1,4 -3,9 -2,5 -3,8 -3,10l-5 0c0,-2 -1,-5 -2,-9 -1,-4 -2,-7 -3,-10l-1 0c0,2 0,4 0,9 0,5 0,8 0,10l-5 0c0,-1 0,-4 0,-11 1,-6 1,-10 1,-12l9 0c0,2 1,5 2,9 2,5 2,7 2,8l1 0c0,-1 0,-3 2,-8 1,-4 2,-7 2,-9l9 0c0,2 0,6 0,12 1,6 1,10 1,11zm25 -14c0,1 0,2 0,3l-15 0c0,2 1,3 2,5 1,1 3,1 5,1 3,0 5,0 8,-1l-1 5c-2,1 -5,1 -8,1 -4,0 -7,-1 -9,-3 -2,-3 -4,-5 -4,-9 0,-3 1,-6 4,-8 2,-3 4,-4 8,-4 4,0 6,1 8,3 1,1 2,4 2,7zm-5 0c0,-4 -2,-6 -5,-6 -3,0 -5,2 -5,6l10 0zm31 14l-7 0c1,-3 1,-6 1,-10 0,-1 0,-3 0,-5l0 0c-1,1 -3,4 -6,7 -3,4 -5,6 -5,8l-5 0c1,-4 1,-8 1,-12 0,-4 -1,-8 -1,-11l7 -1c-1,3 -1,6 -1,10 0,1 0,3 0,6l0 0c1,-1 3,-4 6,-8 3,-4 5,-6 5,-7l5 -1c0,3 -1,7 -1,12 0,4 1,8 1,12zm-2 -34c0,5 -3,8 -8,8 -3,0 -6,-1 -7,-3 -1,-1 -2,-3 -2,-5l5 -1c0,4 2,5 4,5 1,0 2,0 2,-1 1,-1 1,-2 1,-4l5 1zm28 34l-6 0c0,-3 0,-7 0,-10l-9 0c0,3 0,6 0,10l-6 0c0,-4 0,-8 0,-12 0,-4 0,-8 -1,-11l7 -1c0,1 0,4 0,9l9 0c0,-3 0,-6 -1,-8l7 -1c0,3 0,7 0,12 0,4 0,8 0,12zm28 -12c0,4 -1,7 -4,9 -2,2 -5,3 -8,3 -4,0 -6,-1 -9,-3 -2,-2 -3,-5 -3,-8 0,-4 1,-7 4,-10 2,-2 5,-3 8,-3 4,0 6,1 9,3 2,2 3,5 3,9zm-6 0c0,-2 -1,-4 -2,-5 -1,-2 -2,-3 -4,-3 -2,0 -3,1 -4,2 -1,2 -2,4 -2,6 0,2 1,4 2,6 1,1 2,2 4,2 2,0 3,-1 4,-2 1,-2 2,-3 2,-6zm27 -11l0 5c-1,0 -5,0 -11,0 0,2 0,5 0,6 0,5 1,8 1,12l-7 0c1,-4 1,-8 1,-12 0,-4 0,-8 -1,-11l17 0zm26 11c0,4 -1,7 -4,9 -2,2 -5,3 -8,3 -3,0 -6,-1 -8,-3 -3,-2 -4,-5 -4,-8 0,-4 1,-7 4,-10 2,-2 5,-3 9,-3 3,0 6,1 8,3 2,2 3,5 3,9zm-6 0c0,-2 -1,-4 -2,-5 -1,-2 -2,-3 -4,-3 -2,0 -3,1 -4,2 -1,2 -2,4 -2,6 0,2 1,4 2,6 1,1 3,2 4,2 2,0 3,-1 4,-2 1,-2 2,-3 2,-6zm-155 70l-6 0c0,-3 0,-6 0,-11 0,-2 0,-5 0,-7l-2 0c-1,1 -1,3 -2,4 0,2 -1,3 -1,4 -1,2 -2,3 -3,4 0,1 -1,2 -2,3 -1,1 -2,2 -3,3 0,0 -1,0 -2,1l-1 -6c1,0 1,-1 2,-1 0,-1 1,-1 2,-2 0,-1 1,-2 1,-3 1,-1 1,-2 2,-3 1,-2 1,-3 2,-4 0,-2 0,-3 1,-5l8 0 4 0c0,3 0,7 0,12 0,4 0,8 0,11zm12 0l-6 0c0,-3 0,-7 0,-11 0,-4 0,-8 0,-11l6 -1c0,3 0,7 0,12 0,4 0,8 0,11zm2 -30c0,1 -1,2 -2,3 0,1 -1,1 -3,1 -1,0 -2,0 -2,-1 -1,0 -1,-1 -1,-2 0,-1 0,-2 1,-3 1,-1 2,-1 3,-1 1,0 2,0 3,1 0,0 1,1 1,2zm25 30l-6 0c-1,0 -1,-1 -1,-1 -1,-3 -2,-6 -3,-7 -1,-1 -2,-1 -3,-1 -1,0 -1,0 -2,0 0,3 0,6 0,9l-6 0c0,-3 0,-7 0,-11 0,-4 0,-8 -1,-11l7 -1c0,3 0,6 0,10 1,0 1,0 2,0 2,0 4,-3 6,-8 0,-1 0,-1 0,-2l6 0c0,1 0,1 -1,2 -1,5 -3,8 -6,9l0 0c2,1 3,2 4,3 1,2 2,4 3,6 0,1 1,2 1,3zm23 0l-5 0c-1,0 -1,-1 -1,-2l0 0c-2,2 -4,3 -7,3 -2,0 -4,-1 -5,-2 -1,-1 -2,-3 -2,-4 0,-3 1,-5 3,-6 2,-2 6,-3 11,-3 0,0 0,0 0,-1 0,-1 -1,-2 -2,-3 0,-1 -2,-1 -4,-1 -2,0 -5,1 -7,1l0 -4c3,-1 6,-1 10,-1 2,0 5,0 6,1 2,2 3,4 3,7 0,0 0,2 0,3 -1,2 -1,3 -1,4 0,3 1,6 1,8zm-6 -5c0,-2 0,-4 0,-5 -6,0 -8,1 -8,4 0,2 1,3 3,3 2,0 4,-1 5,-2zm34 -7c0,3 -1,6 -3,9 -2,2 -5,4 -8,4 -3,0 -5,-1 -6,-2l0 0c0,4 0,8 0,12l-6 0c0,-5 0,-10 0,-16 0,-7 0,-13 -1,-17l6 -1 1 2 0 0c2,-2 4,-2 7,-2 3,0 5,1 7,3 2,2 3,5 3,8zm-7 0c0,-2 0,-3 -1,-5 -1,-1 -2,-2 -4,-2 -2,0 -4,1 -5,2 0,4 0,9 0,12 1,1 3,1 4,1 2,0 4,0 5,-2 1,-1 1,-3 1,-6zm31 12l-6 0c0,-3 0,-6 0,-9 -1,0 -2,0 -3,0 -1,0 -2,1 -3,1 -1,1 -2,4 -3,8l-6 0c1,-4 2,-6 3,-8 1,-1 2,-2 3,-2l0 -1c-3,0 -5,-2 -5,-5 0,-3 1,-4 2,-5 2,-1 4,-2 6,-2 2,0 5,0 8,0l4 0c0,4 0,7 0,12 0,5 0,8 0,11zm-6 -13c0,-2 0,-4 0,-6 -2,0 -3,0 -5,0 -2,0 -3,1 -3,3 0,2 1,3 5,3 1,0 2,0 3,0zm19 9c0,5 -2,9 -7,14l-3 -2c3,-3 4,-5 4,-8 -2,-1 -2,-2 -2,-4 0,-1 0,-2 1,-3 1,0 2,-1 3,-1 2,0 3,1 3,1 1,1 1,2 1,3zm-156 63l-6 0c0,-4 0,-7 0,-12 0,-2 0,-4 0,-7l-8 0c0,2 0,5 0,7 0,4 0,8 0,12l-6 0c0,-4 0,-7 0,-12 0,-4 0,-8 -1,-11l7 0 9 0 5 0c0,3 0,7 0,11 0,4 0,8 0,12zm12 0l-7 0c1,-4 1,-7 1,-12 0,-4 0,-8 -1,-11l7 0c0,3 0,7 0,11 0,4 0,8 0,12zm1 -30c0,1 0,2 -1,3 -1,0 -2,1 -3,1 -1,0 -2,0 -3,-1 0,-1 -1,-2 -1,-3 0,-1 1,-2 1,-3 1,0 2,-1 3,-1 2,0 2,1 3,1 1,1 1,2 1,3zm28 25c0,1 0,3 0,7 -1,3 -1,6 -1,8l-4 0c0,-2 0,-6 0,-11 -2,0 -5,0 -8,0 -3,0 -5,0 -7,0 -1,5 -2,9 -2,11l-4 0c0,-2 0,-4 0,-7 0,-3 0,-6 0,-8l3 0c1,-5 4,-11 7,-18l8 0 4 0c0,3 0,7 0,11 0,3 0,5 0,7l4 0zm-9 0c-1,-2 -1,-4 -1,-7 0,-2 0,-4 0,-7l-3 0c-2,6 -4,11 -5,14l9 0zm33 5l-7 0c0,-4 1,-7 1,-12 0,-2 0,-4 0,-7l-9 0c0,2 0,5 0,7 0,4 0,8 1,12l-7 0c1,-4 1,-7 1,-12 0,-4 -1,-8 -1,-11l6 0 10 0 5 0c-1,3 -1,7 -1,11 0,4 0,8 1,12zm26 0l-6 0c0,-3 0,-6 0,-10 0,-1 0,-3 0,-5l0 0c0,1 -2,4 -6,8 -3,3 -4,6 -4,7l-5 0c0,-4 0,-8 0,-12 0,-4 0,-8 -1,-11l7 0c0,3 0,6 0,9 0,1 0,3 -1,6l1 0c0,-1 2,-4 5,-8 3,-3 5,-6 5,-7l5 0c0,3 0,7 0,11 0,4 0,8 0,12zm37 0l-32 0c0,-4 0,-7 0,-12 0,-4 0,-8 0,-11l6 0c0,3 0,7 0,11 0,2 0,5 0,7l7 0c0,-2 0,-4 0,-7 0,-4 0,-8 -1,-11l7 0c0,3 0,7 0,11 0,2 0,5 0,7l7 0c0,-2 0,-5 0,-7 0,-4 0,-8 -1,-11l7 0c0,3 0,7 0,11 0,4 0,8 0,12zm12 0l-7 0c1,-4 1,-7 1,-12 0,-4 -1,-8 -1,-11l7 0c0,3 -1,7 -1,11 0,4 1,8 1,12zm1 -30c0,1 -1,2 -1,3 -1,0 -2,1 -3,1 -1,0 -2,0 -3,-1 -1,-1 -1,-2 -1,-3 0,-1 0,-2 1,-3 1,0 2,-1 3,-1 1,0 2,1 3,1 1,1 1,2 1,3z"/>
   <path id="1" class="fil1" d="M55 21c0,5 -1,9 -4,12 -3,4 -7,5 -11,5 -5,0 -8,-1 -11,-4 -3,-3 -4,-7 -4,-11 0,-5 1,-9 4,-13 3,-3 7,-4 11,-4 5,0 8,1 11,4 3,3 4,7 4,11zm-6 1c0,-3 -1,-6 -3,-8 -2,-2 -4,-3 -6,-3 -2,0 -4,1 -6,3 -2,2 -3,5 -3,8 0,3 1,6 3,8 2,2 4,3 6,3 3,0 5,-1 6,-3 2,-2 3,-5 3,-8zm34 4c0,4 -1,7 -4,9 -2,2 -5,3 -9,3 -4,0 -7,-1 -9,-4 -1,-2 -2,-6 -2,-12 0,-3 0,-6 1,-8 0,-2 1,-4 3,-5 1,-1 3,-2 5,-3 2,-1 4,-1 7,-2 1,0 1,0 2,0 1,0 3,0 4,0l0 5c-1,0 -2,0 -3,0 -1,0 -2,0 -4,1 -1,0 -3,0 -4,0 -1,1 -2,1 -3,2 -1,0 -1,1 -2,2 0,1 -1,3 -1,4l1 0c1,-2 4,-3 7,-3 3,0 6,1 8,3 2,2 3,4 3,8zm-6 1c0,-2 -1,-4 -2,-5 -1,-2 -2,-2 -4,-2 -3,0 -5,1 -6,2 0,5 0,8 1,9 1,2 3,3 5,3 1,0 3,-1 4,-2 1,-1 2,-3 2,-5zm31 10l-6 0c0,-2 0,-6 0,-9 0,-1 0,-3 1,-5l-1 0c0,1 -2,3 -5,7 -4,4 -5,6 -5,7l-5 0c0,-3 0,-7 0,-11 0,-5 0,-8 0,-11l6 -1c0,3 0,6 0,9 0,2 0,4 0,6l0 0c0,-1 2,-3 5,-7 4,-4 5,-6 5,-7l5 -1c0,3 0,7 0,12 0,4 0,8 0,11zm28 -12c0,4 -1,7 -3,9 -2,3 -4,4 -8,4 -2,0 -4,0 -5,-2l0 0c0,4 0,8 0,12l-6 0c0,-4 0,-10 0,-16 0,-7 0,-13 -1,-17l6 -1 0 2 1 0c1,-1 4,-2 6,-2 4,0 6,1 8,3 1,2 2,5 2,8zm-6 1c0,-2 0,-4 -1,-5 -1,-2 -3,-3 -5,-3 -2,0 -3,1 -4,2 0,5 0,9 0,13 1,0 2,1 4,1 2,0 4,-1 5,-3 1,-1 1,-3 1,-5zm30 11l-6 1c0,-1 0,-2 0,-2l0 0c-2,1 -4,2 -7,2 -2,0 -4,-1 -5,-2 -2,-1 -2,-2 -2,-4 0,-2 1,-4 3,-6 2,-2 5,-2 11,-2 0,-1 0,-1 0,-1 0,-2 -1,-3 -2,-4 0,0 -2,0 -4,0 -3,0 -5,0 -7,0l0 -4c2,-1 6,-1 9,-1 3,0 6,1 7,2 2,1 2,3 2,6 0,1 0,2 0,4 0,2 0,3 0,3 0,4 1,6 1,8zm-6 -5c0,-2 0,-4 0,-5 -6,0 -9,1 -9,4 0,2 2,3 4,3 2,0 3,-1 5,-2zm32 5l-6 0c0,-2 0,-6 0,-9 0,-1 0,-3 0,-5l0 0c0,1 -2,3 -6,7 -3,4 -4,6 -4,7l-5 0c0,-3 0,-7 0,-11 0,-5 0,-8 -1,-11l7 -1c0,3 0,6 0,9 0,2 0,4 -1,6l1 0c0,-1 2,-3 5,-7 3,-4 5,-6 5,-7l5 -1c0,3 0,7 0,12 0,4 0,8 0,11zm-2 -33c0,5 -2,7 -8,7 -3,0 -5,0 -7,-2 -1,-1 -2,-3 -2,-5l6 -1c0,3 1,5 3,5 1,0 2,0 3,-1 0,-1 0,-2 0,-4l5 1zm26 11l0 5c-3,-1 -5,-1 -7,-1 0,2 0,5 0,7 0,4 0,8 0,11l-6 0c0,-3 0,-7 0,-11 0,-2 0,-4 0,-7 -2,0 -5,0 -7,1l0 -5 20 0zm24 9c0,0 0,1 0,3l-15 0c0,2 1,3 2,5 1,1 3,1 5,1 3,0 5,0 8,-1l-1 5c-2,1 -4,1 -8,1 -4,0 -7,-1 -9,-3 -2,-3 -3,-5 -3,-9 0,-3 1,-6 3,-9 2,-2 5,-3 8,-3 4,0 6,1 8,3 1,1 2,4 2,7zm-5 -1c0,-3 -2,-5 -5,-5 -3,0 -5,2 -5,6l10 -1zm-139 68l-1 4c-1,1 -3,2 -6,2 -4,0 -7,-2 -9,-4 -2,-2 -4,-5 -4,-8 0,-3 2,-6 4,-9 2,-2 5,-4 9,-4 2,0 4,1 6,1l-1 5c-2,-1 -3,-1 -5,-1 -2,0 -4,1 -5,2 -1,2 -1,3 -1,5 0,2 0,4 2,6 1,1 3,2 5,2 2,0 3,0 6,-1zm24 -2c0,3 -1,4 -3,5 -2,2 -5,2 -8,2 -1,0 -3,0 -5,0 -3,0 -4,0 -5,0 0,-3 1,-7 1,-11 0,-5 -1,-8 -1,-12l4 0c2,0 5,0 7,0 6,0 9,2 9,5 0,3 -2,4 -4,5l0 1c3,0 5,2 5,5zm-6 0c0,-1 0,-2 -1,-2 -1,-1 -3,-1 -5,-1 -1,0 -2,0 -3,0 0,2 0,4 0,6 2,0 3,0 4,0 3,0 5,-1 5,-3zm-1 -9c0,-2 -1,-3 -4,-3 -1,0 -3,0 -4,0 0,2 0,4 0,6 1,0 3,0 4,0 3,0 4,-1 4,-3zm34 4c0,4 -1,7 -4,9 -2,3 -5,4 -8,4 -3,0 -6,-1 -8,-3 -3,-2 -4,-5 -4,-9 0,-4 1,-7 4,-9 2,-3 5,-4 9,-4 3,0 5,1 8,3 2,2 3,5 3,9zm-6 1c0,-2 -1,-4 -2,-6 -1,-2 -2,-2 -4,-2 -2,0 -3,0 -4,2 -1,1 -2,3 -2,5 0,3 1,5 2,6 1,2 2,2 4,2 2,0 3,0 4,-2 1,-1 2,-3 2,-5zm27 -12l0 5c-1,0 -5,0 -11,0 1,3 1,5 1,7 0,4 0,8 0,11l-6 0c0,-3 0,-7 0,-11 0,-5 0,-8 0,-12l16 0zm26 11c0,4 -1,7 -3,9 -3,3 -6,4 -9,4 -3,0 -6,-1 -8,-3 -3,-2 -4,-5 -4,-9 0,-4 2,-7 4,-9 3,-3 5,-4 9,-4 3,0 6,1 8,3 2,2 3,5 3,9zm-6 1c0,-2 0,-4 -2,-6 -1,-2 -2,-2 -4,-2 -1,0 -3,0 -4,2 -1,1 -1,3 -1,5 0,3 0,5 1,6 1,2 3,2 4,2 2,0 3,0 5,-2 1,-1 1,-3 1,-5zm-141 65l-1 4c-1,1 -3,1 -6,1 -4,0 -7,-1 -9,-3 -2,-3 -3,-5 -3,-8 0,-4 1,-7 3,-9 2,-3 6,-4 10,-4 1,0 3,0 5,1l-1 5c-2,-1 -3,-1 -5,-1 -2,0 -3,0 -5,2 -1,1 -1,3 -1,5 0,2 0,4 2,5 1,2 3,2 5,2 2,0 4,0 6,0zm10 5l-6 0c0,-4 0,-8 0,-12 0,-4 0,-8 -1,-11l7 -1c0,3 0,7 0,12 0,4 0,8 0,12zm1 -30c0,1 0,2 -1,3 -1,0 -2,1 -3,1 -1,0 -2,-1 -3,-1 0,-1 -1,-2 -1,-3 0,-1 1,-2 2,-3 0,0 1,-1 3,-1 1,0 2,1 2,1 1,1 1,2 1,3zm33 30l-6 0c0,-3 0,-6 0,-11 0,-4 0,-7 0,-8l-1 0c0,2 -1,4 -3,9 -2,5 -3,8 -3,10l-5 0c0,-2 -1,-5 -2,-9 -1,-4 -2,-7 -3,-10l-1 0c0,2 0,4 0,9 0,5 0,8 0,10l-5 0c0,-1 0,-4 0,-11 1,-6 1,-10 1,-12l9 0c0,2 1,5 2,9 2,5 2,7 2,8l1 0c0,-1 0,-3 2,-8 1,-4 2,-7 2,-9l9 0c0,2 0,6 0,12 1,6 1,10 1,11zm25 -14c0,1 0,2 0,3l-15 0c0,2 1,3 2,5 1,1 3,1 5,1 3,0 5,0 8,-1l-1 5c-2,1 -5,1 -8,1 -4,0 -7,-1 -9,-3 -2,-3 -4,-5 -4,-9 0,-3 1,-6 4,-8 2,-3 4,-4 8,-4 4,0 6,1 8,3 1,1 2,4 2,7zm-5 0c0,-4 -2,-6 -5,-6 -3,0 -5,2 -5,6l10 0zm31 14l-7 0c1,-3 1,-6 1,-10 0,-1 0,-3 0,-5l0 0c-1,1 -3,4 -6,7 -3,4 -5,6 -5,8l-5 0c1,-4 1,-8 1,-12 0,-4 -1,-8 -1,-11l7 -1c-1,3 -1,6 -1,10 0,1 0,3 0,6l0 0c1,-1 3,-4 6,-8 3,-4 5,-6 5,-7l5 -1c0,3 -1,7 -1,12 0,4 1,8 1,12zm-2 -34c0,5 -3,8 -8,8 -3,0 -6,-1 -7,-3 -1,-1 -2,-3 -2,-5l5 -1c0,4 2,5 4,5 1,0 2,0 2,-1 1,-1 1,-2 1,-4l5 1zm28 34l-6 0c0,-3 0,-7 0,-10l-9 0c0,3 0,6 0,10l-6 0c0,-4 0,-8 0,-12 0,-4 0,-8 -1,-11l7 -1c0,1 0,4 0,9l9 0c0,-3 0,-6 -1,-8l7 -1c0,3 0,7 0,12 0,4 0,8 0,12zm28 -12c0,4 -1,7 -4,9 -2,2 -5,3 -8,3 -4,0 -6,-1 -9,-3 -2,-2 -3,-5 -3,-8 0,-4 1,-7 4,-10 2,-2 5,-3 8,-3 4,0 6,1 9,3 2,2 3,5 3,9zm-6 0c0,-2 -1,-4 -2,-5 -1,-2 -2,-3 -4,-3 -2,0 -3,1 -4,2 -1,2 -2,4 -2,6 0,2 1,4 2,6 1,1 2,2 4,2 2,0 3,-1 4,-2 1,-2 2,-3 2,-6zm27 -11l0 5c-1,0 -5,0 -11,0 0,2 0,5 0,6 0,5 1,8 1,12l-7 0c1,-4 1,-8 1,-12 0,-4 0,-8 -1,-11l17 0zm26 11c0,4 -1,7 -4,9 -2,2 -5,3 -8,3 -3,0 -6,-1 -8,-3 -3,-2 -4,-5 -4,-8 0,-4 1,-7 4,-10 2,-2 5,-3 9,-3 3,0 6,1 8,3 2,2 3,5 3,9zm-6 0c0,-2 -1,-4 -2,-5 -1,-2 -2,-3 -4,-3 -2,0 -3,1 -4,2 -1,2 -2,4 -2,6 0,2 1,4 2,6 1,1 3,2 4,2 2,0 3,-1 4,-2 1,-2 2,-3 2,-6zm-155 70l-6 0c0,-3 0,-6 0,-11 0,-2 0,-5 0,-7l-2 0c-1,1 -1,3 -2,4 0,2 -1,3 -1,4 -1,2 -2,3 -3,4 0,1 -1,2 -2,3 -1,1 -2,2 -3,3 0,0 -1,0 -2,1l-1 -6c1,0 1,-1 2,-1 0,-1 1,-1 2,-2 0,-1 1,-2 1,-3 1,-1 1,-2 2,-3 1,-2 1,-3 2,-4 0,-2 0,-3 1,-5l8 0 4 0c0,3 0,7 0,12 0,4 0,8 0,11zm12 0l-6 0c0,-3 0,-7 0,-11 0,-4 0,-8 0,-11l6 -1c0,3 0,7 0,12 0,4 0,8 0,11zm2 -30c0,1 -1,2 -2,3 0,1 -1,1 -3,1 -1,0 -2,0 -2,-1 -1,0 -1,-1 -1,-2 0,-1 0,-2 1,-3 1,-1 2,-1 3,-1 1,0 2,0 3,1 0,0 1,1 1,2zm25 30l-6 0c-1,0 -1,-1 -1,-1 -1,-3 -2,-6 -3,-7 -1,-1 -2,-1 -3,-1 -1,0 -1,0 -2,0 0,3 0,6 0,9l-6 0c0,-3 0,-7 0,-11 0,-4 0,-8 -1,-11l7 -1c0,3 0,6 0,10 1,0 1,0 2,0 2,0 4,-3 6,-8 0,-1 0,-1 0,-2l6 0c0,1 0,1 -1,2 -1,5 -3,8 -6,9l0 0c2,1 3,2 4,3 1,2 2,4 3,6 0,1 1,2 1,3zm23 0l-5 0c-1,0 -1,-1 -1,-2l0 0c-2,2 -4,3 -7,3 -2,0 -4,-1 -5,-2 -1,-1 -2,-3 -2,-4 0,-3 1,-5 3,-6 2,-2 6,-3 11,-3 0,0 0,0 0,-1 0,-1 -1,-2 -2,-3 0,-1 -2,-1 -4,-1 -2,0 -5,1 -7,1l0 -4c3,-1 6,-1 10,-1 2,0 5,0 6,1 2,2 3,4 3,7 0,0 0,2 0,3 -1,2 -1,3 -1,4 0,3 1,6 1,8zm-6 -5c0,-2 0,-4 0,-5 -6,0 -8,1 -8,4 0,2 1,3 3,3 2,0 4,-1 5,-2zm34 -7c0,3 -1,6 -3,9 -2,2 -5,4 -8,4 -3,0 -5,-1 -6,-2l0 0c0,4 0,8 0,12l-6 0c0,-5 0,-10 0,-16 0,-7 0,-13 -1,-17l6 -1 1 2 0 0c2,-2 4,-2 7,-2 3,0 5,1 7,3 2,2 3,5 3,8zm-7 0c0,-2 0,-3 -1,-5 -1,-1 -2,-2 -4,-2 -2,0 -4,1 -5,2 0,4 0,9 0,12 1,1 3,1 4,1 2,0 4,0 5,-2 1,-1 1,-3 1,-6zm31 12l-6 0c0,-3 0,-6 0,-9 -1,0 -2,0 -3,0 -1,0 -2,1 -3,1 -1,1 -2,4 -3,8l-6 0c1,-4 2,-6 3,-8 1,-1 2,-2 3,-2l0 -1c-3,0 -5,-2 -5,-5 0,-3 1,-4 2,-5 2,-1 4,-2 6,-2 2,0 5,0 8,0l4 0c0,4 0,7 0,12 0,5 0,8 0,11zm-6 -13c0,-2 0,-4 0,-6 -2,0 -3,0 -5,0 -2,0 -3,1 -3,3 0,2 1,3 5,3 1,0 2,0 3,0zm19 9c0,5 -2,9 -7,14l-3 -2c3,-3 4,-5 4,-8 -2,-1 -2,-2 -2,-4 0,-1 0,-2 1,-3 1,0 2,-1 3,-1 2,0 3,1 3,1 1,1 1,2 1,3zm-156 63l-6 0c0,-4 0,-7 0,-12 0,-2 0,-4 0,-7l-8 0c0,2 0,5 0,7 0,4 0,8 0,12l-6 0c0,-4 0,-7 0,-12 0,-4 0,-8 -1,-11l7 0 9 0 5 0c0,3 0,7 0,11 0,4 0,8 0,12zm12 0l-7 0c1,-4 1,-7 1,-12 0,-4 0,-8 -1,-11l7 0c0,3 0,7 0,11 0,4 0,8 0,12zm1 -30c0,1 0,2 -1,3 -1,0 -2,1 -3,1 -1,0 -2,0 -3,-1 0,-1 -1,-2 -1,-3 0,-1 1,-2 1,-3 1,0 2,-1 3,-1 2,0 2,1 3,1 1,1 1,2 1,3zm28 25c0,1 0,3 0,7 -1,3 -1,6 -1,8l-4 0c0,-2 0,-6 0,-11 -2,0 -5,0 -8,0 -3,0 -5,0 -7,0 -1,5 -2,9 -2,11l-4 0c0,-2 0,-4 0,-7 0,-3 0,-6 0,-8l3 0c1,-5 4,-11 7,-18l8 0 4 0c0,3 0,7 0,11 0,3 0,5 0,7l4 0zm-9 0c-1,-2 -1,-4 -1,-7 0,-2 0,-4 0,-7l-3 0c-2,6 -4,11 -5,14l9 0zm33 5l-7 0c0,-4 1,-7 1,-12 0,-2 0,-4 0,-7l-9 0c0,2 0,5 0,7 0,4 0,8 1,12l-7 0c1,-4 1,-7 1,-12 0,-4 -1,-8 -1,-11l6 0 10 0 5 0c-1,3 -1,7 -1,11 0,4 0,8 1,12zm26 0l-6 0c0,-3 0,-6 0,-10 0,-1 0,-3 0,-5l0 0c0,1 -2,4 -6,8 -3,3 -4,6 -4,7l-5 0c0,-4 0,-8 0,-12 0,-4 0,-8 -1,-11l7 0c0,3 0,6 0,9 0,1 0,3 -1,6l1 0c0,-1 2,-4 5,-8 3,-3 5,-6 5,-7l5 0c0,3 0,7 0,11 0,4 0,8 0,12zm37 0l-32 0c0,-4 0,-7 0,-12 0,-4 0,-8 0,-11l6 0c0,3 0,7 0,11 0,2 0,5 0,7l7 0c0,-2 0,-4 0,-7 0,-4 0,-8 -1,-11l7 0c0,3 0,7 0,11 0,2 0,5 0,7l7 0c0,-2 0,-5 0,-7 0,-4 0,-8 -1,-11l7 0c0,3 0,7 0,11 0,4 0,8 0,12zm12 0l-7 0c1,-4 1,-7 1,-12 0,-4 -1,-8 -1,-11l7 0c0,3 -1,7 -1,11 0,4 1,8 1,12zm1 -30c0,1 -1,2 -1,3 -1,0 -2,1 -3,1 -1,0 -2,0 -3,-1 -1,-1 -1,-2 -1,-3 0,-1 0,-2 1,-3 1,0 2,-1 3,-1 1,0 2,1 3,1 1,1 1,2 1,3z"/>
  </g>
  <g>
   <path class="fil0 str0" d="M211 249l0 5c-3,0 -5,0 -7,0 0,2 0,4 0,6 0,5 0,8 0,12l-6 0c0,-4 0,-7 0,-12 0,-2 0,-4 0,-6 -2,0 -5,0 -7,0l0 -5 20 0zm23 15c0,3 -1,5 -2,6 -2,1 -5,2 -8,2 -1,0 -2,0 -5,0 -2,0 -4,0 -4,0 0,-4 0,-7 0,-12 0,-4 0,-8 -1,-11l7 0c0,0 0,3 0,8 1,0 2,0 3,0 7,0 10,2 10,7zm-5 0c0,-1 -1,-2 -2,-2 -1,-1 -2,-1 -3,-1 -1,0 -2,0 -3,0 0,2 0,4 0,7 1,0 2,0 3,0 3,0 5,-1 5,-4zm-199 62c0,1 -1,3 -1,6 -1,4 -1,6 -1,8l-4 0c0,-2 0,-5 0,-10 -2,0 -5,0 -8,0 -3,0 -5,0 -7,0 -1,5 -1,8 -1,10l-5 0c0,-1 0,-4 0,-7 0,-3 0,-5 0,-7l3 0c2,-5 4,-11 8,-18l7 0 4 -1c0,3 0,7 0,12 0,2 0,4 1,7l4 0zm-10 0c0,-2 0,-5 0,-7 0,-3 0,-5 -1,-7l-2 0c-3,6 -5,10 -6,14l9 0zm33 -10c0,1 0,2 0,4l-15 0c0,2 1,3 2,4 1,2 3,2 5,2 3,0 5,0 8,-1l-1 5c-2,1 -4,1 -8,1 -4,0 -7,-1 -9,-4 -2,-2 -3,-5 -3,-8 0,-3 1,-6 3,-9 2,-2 5,-3 8,-3 4,0 6,1 8,2 1,2 2,5 2,7zm-5 0c0,-3 -2,-5 -5,-5 -3,0 -5,2 -5,5l10 0zm31 14l-7 0c0,0 0,0 0,-1 -1,-3 -2,-5 -3,-7 -1,-1 -2,-1 -4,-1 0,0 -1,0 -1,0 0,3 0,6 0,9l-6 0c0,-3 0,-7 0,-11 0,-4 0,-8 -1,-11l7 -1c0,3 0,6 0,10 0,0 1,0 1,0 3,0 5,-3 6,-8 0,-1 1,-1 1,-1l6 0c0,0 -1,1 -1,2 -2,5 -4,8 -6,8l0 1c1,0 3,1 4,2 1,2 2,4 3,7 0,0 0,1 1,2zm23 0l-6 0c0,-3 0,-6 0,-11 0,-2 0,-5 0,-7l-3 0c0,1 -1,3 -1,4 -1,2 -1,3 -2,4 0,2 -1,3 -2,4 -1,2 -1,3 -2,4 -1,0 -2,1 -3,2 -1,0 -2,1 -3,1l0 -6c0,0 1,0 2,-1 0,0 1,-1 1,-2 1,-1 1,-2 2,-3 1,-1 1,-2 2,-3 0,-2 1,-3 1,-4 1,-2 1,-3 2,-4l8 0 4 -1c0,3 0,7 0,12 0,4 0,8 0,11zm25 0l-6 0c0,0 0,-1 0,-1l-1 0c-1,1 -4,2 -7,2 -2,0 -3,-1 -5,-2 -1,-1 -2,-2 -2,-4 0,-3 2,-5 4,-6 2,-2 5,-3 10,-3 0,0 0,0 0,0 0,-2 0,-3 -1,-4 -1,0 -2,-1 -4,-1 -3,0 -5,1 -7,1l0 -4c2,-1 5,-1 9,-1 3,0 5,0 7,2 1,1 2,3 2,6 0,1 0,2 0,4 0,1 0,3 0,3 0,3 0,6 1,8zm-7 -5c0,-2 0,-4 0,-5 -5,0 -8,1 -8,4 0,2 1,3 4,3 2,0 3,-1 4,-2zm34 -7c0,3 -1,6 -3,9 -2,3 -4,4 -8,4 -2,0 -4,-1 -5,-2l0 0c0,4 0,8 0,12l-7 0c1,-4 1,-10 1,-16 0,-7 0,-13 -1,-17l6 -1 0 2 1 0c1,-1 4,-2 6,-2 4,0 6,1 8,3 1,2 2,5 2,8zm-6 1c0,-2 0,-4 -1,-6 -1,-1 -3,-2 -5,-2 -2,0 -3,1 -4,2 0,5 0,9 0,12 1,1 2,2 4,2 2,0 3,-1 5,-3 1,-1 1,-3 1,-5zm30 11l-6 0c0,0 0,-1 0,-1l0 0c-2,1 -4,2 -7,2 -2,0 -4,-1 -5,-2 -2,-1 -2,-2 -2,-4 0,-3 1,-5 3,-6 2,-2 5,-3 11,-3 0,0 0,0 0,0 0,-2 -1,-3 -2,-4 0,0 -2,-1 -4,-1 -3,0 -5,1 -7,1l0 -4c2,-1 6,-1 9,-1 3,0 6,0 7,2 2,1 2,3 2,6 0,1 0,2 0,4 0,1 0,3 0,3 0,3 1,6 1,8zm-6 -5c0,-2 0,-4 0,-5 -6,0 -9,1 -9,4 0,2 2,3 4,3 2,0 3,-1 5,-2zm34 1c0,1 0,3 0,6 -1,4 -1,6 -1,8l-4 0c0,-2 0,-5 0,-10l-18 0c0,-3 0,-7 0,-11 0,-4 0,-8 -1,-11l7 -1c0,3 0,7 0,12 0,2 0,4 0,7l7 0c0,-3 0,-5 0,-7 0,-4 0,-8 -1,-11l7 -1c0,3 0,7 0,12 0,2 0,5 0,7l4 0zm10 4l-6 0c0,-3 0,-7 0,-11 0,-4 0,-8 0,-11l6 -1c0,3 0,7 0,12 0,4 0,8 0,11zm2 -30c0,1 -1,2 -2,3 0,1 -1,1 -3,1 -1,0 -2,0 -2,-1 -1,0 -1,-1 -1,-2 0,-1 0,-2 1,-3 1,-1 2,-1 3,-1 1,0 2,0 3,1 0,1 1,1 1,2zm37 18c0,4 -1,7 -4,10 -2,2 -5,3 -8,3 -3,0 -6,-1 -8,-3 -2,-1 -3,-4 -3,-7l-4 0c0,3 0,6 0,9l-6 0c0,-3 0,-7 0,-11 0,-4 0,-8 -1,-11l7 -1c0,1 0,4 0,9l4 0c1,-3 2,-5 4,-7 2,-2 5,-2 8,-2 3,0 5,1 8,3 2,2 3,5 3,8zm-6 1c0,-2 -1,-4 -2,-6 -1,-1 -2,-2 -4,-2 -2,0 -3,1 -4,2 -1,2 -1,3 -1,6 0,2 0,4 1,5 1,2 2,3 4,3 2,0 3,-1 4,-2 1,-2 2,-4 2,-6z"/>
   <path id="1" class="fil1" d="M211 249l0 5c-3,0 -5,0 -7,0 0,2 0,4 0,6 0,5 0,8 0,12l-6 0c0,-4 0,-7 0,-12 0,-2 0,-4 0,-6 -2,0 -5,0 -7,0l0 -5 20 0zm23 15c0,3 -1,5 -2,6 -2,1 -5,2 -8,2 -1,0 -2,0 -5,0 -2,0 -4,0 -4,0 0,-4 0,-7 0,-12 0,-4 0,-8 -1,-11l7 0c0,0 0,3 0,8 1,0 2,0 3,0 7,0 10,2 10,7zm-5 0c0,-1 -1,-2 -2,-2 -1,-1 -2,-1 -3,-1 -1,0 -2,0 -3,0 0,2 0,4 0,7 1,0 2,0 3,0 3,0 5,-1 5,-4zm-199 62c0,1 -1,3 -1,6 -1,4 -1,6 -1,8l-4 0c0,-2 0,-5 0,-10 -2,0 -5,0 -8,0 -3,0 -5,0 -7,0 -1,5 -1,8 -1,10l-5 0c0,-1 0,-4 0,-7 0,-3 0,-5 0,-7l3 0c2,-5 4,-11 8,-18l7 0 4 -1c0,3 0,7 0,12 0,2 0,4 1,7l4 0zm-10 0c0,-2 0,-5 0,-7 0,-3 0,-5 -1,-7l-2 0c-3,6 -5,10 -6,14l9 0zm33 -10c0,1 0,2 0,4l-15 0c0,2 1,3 2,4 1,2 3,2 5,2 3,0 5,0 8,-1l-1 5c-2,1 -4,1 -8,1 -4,0 -7,-1 -9,-4 -2,-2 -3,-5 -3,-8 0,-3 1,-6 3,-9 2,-2 5,-3 8,-3 4,0 6,1 8,2 1,2 2,5 2,7zm-5 0c0,-3 -2,-5 -5,-5 -3,0 -5,2 -5,5l10 0zm31 14l-7 0c0,0 0,0 0,-1 -1,-3 -2,-5 -3,-7 -1,-1 -2,-1 -4,-1 0,0 -1,0 -1,0 0,3 0,6 0,9l-6 0c0,-3 0,-7 0,-11 0,-4 0,-8 -1,-11l7 -1c0,3 0,6 0,10 0,0 1,0 1,0 3,0 5,-3 6,-8 0,-1 1,-1 1,-1l6 0c0,0 -1,1 -1,2 -2,5 -4,8 -6,8l0 1c1,0 3,1 4,2 1,2 2,4 3,7 0,0 0,1 1,2zm23 0l-6 0c0,-3 0,-6 0,-11 0,-2 0,-5 0,-7l-3 0c0,1 -1,3 -1,4 -1,2 -1,3 -2,4 0,2 -1,3 -2,4 -1,2 -1,3 -2,4 -1,0 -2,1 -3,2 -1,0 -2,1 -3,1l0 -6c0,0 1,0 2,-1 0,0 1,-1 1,-2 1,-1 1,-2 2,-3 1,-1 1,-2 2,-3 0,-2 1,-3 1,-4 1,-2 1,-3 2,-4l8 0 4 -1c0,3 0,7 0,12 0,4 0,8 0,11zm25 0l-6 0c0,0 0,-1 0,-1l-1 0c-1,1 -4,2 -7,2 -2,0 -3,-1 -5,-2 -1,-1 -2,-2 -2,-4 0,-3 2,-5 4,-6 2,-2 5,-3 10,-3 0,0 0,0 0,0 0,-2 0,-3 -1,-4 -1,0 -2,-1 -4,-1 -3,0 -5,1 -7,1l0 -4c2,-1 5,-1 9,-1 3,0 5,0 7,2 1,1 2,3 2,6 0,1 0,2 0,4 0,1 0,3 0,3 0,3 0,6 1,8zm-7 -5c0,-2 0,-4 0,-5 -5,0 -8,1 -8,4 0,2 1,3 4,3 2,0 3,-1 4,-2zm34 -7c0,3 -1,6 -3,9 -2,3 -4,4 -8,4 -2,0 -4,-1 -5,-2l0 0c0,4 0,8 0,12l-7 0c1,-4 1,-10 1,-16 0,-7 0,-13 -1,-17l6 -1 0 2 1 0c1,-1 4,-2 6,-2 4,0 6,1 8,3 1,2 2,5 2,8zm-6 1c0,-2 0,-4 -1,-6 -1,-1 -3,-2 -5,-2 -2,0 -3,1 -4,2 0,5 0,9 0,12 1,1 2,2 4,2 2,0 3,-1 5,-3 1,-1 1,-3 1,-5zm30 11l-6 0c0,0 0,-1 0,-1l0 0c-2,1 -4,2 -7,2 -2,0 -4,-1 -5,-2 -2,-1 -2,-2 -2,-4 0,-3 1,-5 3,-6 2,-2 5,-3 11,-3 0,0 0,0 0,0 0,-2 -1,-3 -2,-4 0,0 -2,-1 -4,-1 -3,0 -5,1 -7,1l0 -4c2,-1 6,-1 9,-1 3,0 6,0 7,2 2,1 2,3 2,6 0,1 0,2 0,4 0,1 0,3 0,3 0,3 1,6 1,8zm-6 -5c0,-2 0,-4 0,-5 -6,0 -9,1 -9,4 0,2 2,3 4,3 2,0 3,-1 5,-2zm34 1c0,1 0,3 0,6 -1,4 -1,6 -1,8l-4 0c0,-2 0,-5 0,-10l-18 0c0,-3 0,-7 0,-11 0,-4 0,-8 -1,-11l7 -1c0,3 0,7 0,12 0,2 0,4 0,7l7 0c0,-3 0,-5 0,-7 0,-4 0,-8 -1,-11l7 -1c0,3 0,7 0,12 0,2 0,5 0,7l4 0zm10 4l-6 0c0,-3 0,-7 0,-11 0,-4 0,-8 0,-11l6 -1c0,3 0,7 0,12 0,4 0,8 0,11zm2 -30c0,1 -1,2 -2,3 0,1 -1,1 -3,1 -1,0 -2,0 -2,-1 -1,0 -1,-1 -1,-2 0,-1 0,-2 1,-3 1,-1 2,-1 3,-1 1,0 2,0 3,1 0,1 1,1 1,2zm37 18c0,4 -1,7 -4,10 -2,2 -5,3 -8,3 -3,0 -6,-1 -8,-3 -2,-1 -3,-4 -3,-7l-4 0c0,3 0,6 0,9l-6 0c0,-3 0,-7 0,-11 0,-4 0,-8 -1,-11l7 -1c0,1 0,4 0,9l4 0c1,-3 2,-5 4,-7 2,-2 5,-2 8,-2 3,0 5,1 8,3 2,2 3,5 3,8zm-6 1c0,-2 -1,-4 -2,-6 -1,-1 -2,-2 -4,-2 -2,0 -3,1 -4,2 -1,2 -1,3 -1,6 0,2 0,4 1,5 1,2 2,3 4,3 2,0 3,-1 4,-2 1,-2 2,-4 2,-6z"/>
  </g>
 </g>
</svg>
