<?xml version="1.0" encoding="UTF-8"?>
<!DOCTYPE svg PUBLIC "-//W3C//DTD SVG 1.1//EN" "http://www.w3.org/Graphics/SVG/1.1/DTD/svg11.dtd">
<!-- Creator: CorelDRAW X7 -->
<svg xmlns="http://www.w3.org/2000/svg" xml:space="preserve" width="11.0267mm" height="12.8645mm" version="1.1" style="shape-rendering:geometricPrecision; text-rendering:geometricPrecision; image-rendering:optimizeQuality; fill-rule:evenodd; clip-rule:evenodd"
viewBox="0 0 326 380"
 xmlns:xlink="http://www.w3.org/1999/xlink">
 <defs>
  <style type="text/css">
   <![CDATA[
    .str0 {stroke:#FEFEFE;stroke-width:7.3801;stroke-linecap:round;stroke-linejoin:round}
    .fil0 {fill:none;fill-rule:nonzero}
    .fil1 {fill:#231F20;fill-rule:nonzero}
   ]]>
  </style>
 </defs>
 <g id="Слой_x0020_1">
  <metadata id="CorelCorpID_0Corel-Layer"/>
  <g>
   <path class="fil0 str0" d="M26 16l0 6c-3,-1 -5,-1 -8,-1 0,3 0,5 0,8 0,4 0,8 0,12l-7 0c1,-3 1,-7 1,-12 0,-3 0,-5 0,-8 -3,0 -6,0 -8,1l0 -6 22 0zm26 25l-7 0c0,0 0,-1 0,-2l0 0c-2,2 -5,3 -8,3 -2,0 -4,-1 -6,-2 -1,-1 -2,-3 -2,-5 0,-2 1,-5 3,-6 3,-2 7,-3 12,-3 0,0 0,-1 0,-1 0,-2 0,-3 -1,-4 -1,0 -3,-1 -5,-1 -3,0 -5,1 -8,1l1 -4c2,-1 6,-2 10,-2 3,0 6,1 7,2 2,2 3,4 3,7 0,1 0,2 0,4 0,2 0,4 0,4 0,4 0,7 1,9zm-8 -5c0,-3 0,-5 0,-6 -6,0 -9,1 -9,4 0,2 2,3 4,3 2,0 4,0 5,-1zm50 -8c0,5 -2,8 -5,11 -2,2 -5,3 -9,3 -4,0 -7,-1 -9,-3 -3,-2 -4,-6 -4,-10 0,-4 1,-8 4,-10 3,-3 6,-4 10,-4 3,0 6,1 9,4 2,2 4,5 4,9zm-7 1c0,-3 -1,-5 -2,-6 -1,-2 -3,-3 -5,-3 -2,0 -3,1 -4,2 -1,2 -2,4 -2,6 0,3 1,5 2,7 1,2 3,2 4,2 2,0 4,0 5,-2 1,-2 2,-4 2,-6zm32 -13l0 6c-3,-1 -5,-1 -8,-1 0,3 0,5 0,8 0,4 0,8 0,12l-7 0c1,-3 1,-7 1,-12 0,-3 0,-5 0,-8 -3,0 -6,0 -8,1l0 -6 22 0zm29 12c0,3 -1,7 -3,10 -2,3 -5,4 -9,4 -2,0 -4,-1 -5,-2l-1 0c0,4 0,9 0,13l-7 0c1,-5 1,-11 1,-17 0,-9 -1,-15 -2,-20l7 0 0 2 1 0c2,-2 4,-3 8,-3 3,0 6,2 8,4 2,2 2,5 2,9zm-7 0c0,-2 0,-4 -1,-5 -1,-2 -3,-3 -5,-3 -2,0 -4,1 -5,2 0,5 0,10 0,14 1,1 3,1 5,1 2,0 4,-1 5,-2 1,-2 1,-4 1,-7zm36 13l-7 0c0,-3 0,-6 0,-10 0,-2 0,-4 0,-6l0 0c0,1 -2,4 -6,8 -4,4 -5,7 -5,8l-6 0c0,-4 1,-8 1,-12 0,-5 -1,-9 -1,-13l7 0c0,3 0,6 0,10 0,2 0,4 0,7l0 0c0,-2 2,-4 6,-9 3,-4 5,-6 5,-8l6 0c0,3 -1,7 -1,13 0,4 1,8 1,12zm37 0l-7 0c0,-3 0,-6 0,-11 0,-5 0,-8 0,-9l-1 0c0,2 -1,5 -3,10 -2,5 -3,8 -3,10l-6 0c0,-2 -1,-5 -2,-9 -2,-4 -3,-8 -4,-11l0 0c0,1 0,5 0,10 -1,5 -1,9 -1,10l-6 0c0,0 1,-4 1,-11 1,-7 1,-12 1,-14l10 0c0,2 1,6 2,11 2,4 3,7 3,8l0 0c0,-1 1,-4 2,-8 2,-5 3,-9 3,-11l10 0c0,2 0,7 0,14 0,7 1,10 1,11zm26 0l-6 0c0,0 -1,-1 -1,-2l0 0c-2,2 -4,3 -8,3 -2,0 -4,-1 -5,-2 -2,-1 -2,-3 -2,-5 0,-2 1,-5 3,-6 2,-2 6,-3 12,-3 0,0 0,-1 0,-1 0,-2 -1,-3 -1,-4 -1,0 -3,-1 -5,-1 -3,0 -6,1 -8,1l0 -4c3,-1 6,-2 10,-2 4,0 6,1 8,2 2,2 2,4 2,7 0,1 0,2 0,4 0,2 0,4 0,4 0,4 0,7 1,9zm-7 -5c0,-3 0,-5 0,-6 -6,0 -9,1 -9,4 0,2 1,3 4,3 2,0 4,0 5,-1zm36 5l-7 0c0,-3 0,-6 0,-10 0,-2 0,-4 0,-6l0 0c-1,1 -3,4 -6,8 -4,4 -6,7 -6,8l-5 0c0,-4 0,-8 0,-12 0,-5 0,-9 0,-13l7 0c0,3 0,6 0,10 0,2 0,4 -1,7l1 0c0,-2 2,-4 6,-9 3,-4 5,-6 5,-8l6 0c-1,3 -1,7 -1,13 0,4 0,8 1,12zm-2 -37c0,6 -3,9 -10,9 -3,0 -5,-1 -7,-3 -1,-1 -2,-3 -2,-6l6 0c0,3 1,5 3,5 2,0 3,-1 4,-2 0,0 0,-2 0,-3l6 0zm28 12l0 6c-3,-1 -5,-1 -8,-1 0,3 0,5 0,8 0,4 0,8 0,12l-7 0c1,-3 1,-7 1,-12 0,-3 0,-5 -1,-8 -2,0 -5,0 -7,1l0 -6 22 0zm27 10c0,1 0,2 0,4l-17 0c0,2 1,3 2,5 2,1 4,2 6,2 3,0 5,-1 8,-1l0 5c-3,1 -6,1 -9,1 -5,0 -8,-1 -10,-4 -3,-2 -4,-5 -4,-9 0,-4 1,-7 3,-10 3,-2 6,-4 10,-4 4,0 6,1 8,3 2,2 3,5 3,8zm-6 0c0,-4 -2,-6 -5,-6 -4,0 -6,2 -6,6l11 0zm-277 67c0,5 -1,8 -4,10 -3,3 -6,4 -10,4 -4,0 -8,-2 -9,-4 -2,-3 -3,-8 -3,-14 0,-3 0,-6 1,-9 0,-2 2,-4 3,-5 1,-2 3,-3 5,-4 3,-1 5,-1 8,-2 1,0 2,0 3,0 1,0 3,0 4,-1l0 6c-1,0 -1,0 -3,1 -1,0 -3,0 -4,0 -2,0 -4,1 -5,1 -1,0 -2,1 -3,2 -1,0 -2,1 -2,2 -1,1 -1,3 -1,5l0 0c2,-3 5,-4 8,-4 4,0 7,1 9,3 2,2 3,5 3,9zm-6 1c0,-2 -1,-4 -2,-6 -1,-1 -3,-2 -5,-2 -3,0 -5,1 -7,3 0,5 1,8 2,10 1,2 2,3 5,3 2,0 3,-1 5,-2 1,-2 2,-4 2,-6zm34 -3c0,1 0,2 -1,3l-16 0c0,2 1,4 2,5 2,2 3,2 6,2 2,0 5,0 8,-1l0 5c-3,1 -6,2 -9,2 -5,0 -8,-2 -11,-4 -2,-3 -3,-6 -3,-9 0,-4 1,-7 3,-10 2,-3 6,-4 10,-4 3,0 6,1 8,3 2,2 3,4 3,8zm-6 -1c0,-4 -2,-6 -6,-6 -3,0 -5,2 -5,7l11 -1zm30 8c0,3 -2,5 -4,6 -2,2 -5,2 -9,2 -3,0 -6,0 -8,-1l1 -4c2,0 4,1 7,1 4,0 6,-1 6,-3 0,-3 -2,-4 -7,-4 -1,0 -3,0 -4,0l0 -4c1,0 3,0 5,0 4,0 6,-1 6,-3 0,-2 -2,-3 -6,-3 -2,0 -5,0 -7,1l1 -5c2,-1 5,-1 8,-1 7,0 10,2 10,6 0,3 -2,5 -4,6l0 0c1,0 2,1 3,2 1,1 2,2 2,4zm27 8l-7 0c0,0 0,-1 0,-2 -1,-3 -2,-6 -3,-7 -1,-1 -3,-2 -4,-2 -1,0 -1,0 -2,0 0,4 0,7 0,11l-7 0c0,-4 1,-8 1,-12 0,-5 -1,-10 -1,-13l7 -1c0,3 0,7 0,11 1,0 1,0 2,0 3,0 5,-3 6,-9 0,0 1,-1 1,-1l7 0c-1,0 -1,1 -1,2 -2,6 -5,9 -7,10l0 0c2,0 3,1 4,3 1,2 2,4 3,7 1,1 1,2 1,3zm30 -13c0,4 -1,8 -4,10 -3,3 -6,4 -10,4 -3,0 -6,-1 -9,-4 -2,-2 -3,-5 -3,-9 0,-5 1,-8 4,-11 2,-2 6,-3 9,-3 4,0 7,1 9,3 3,2 4,6 4,10zm-7 1c0,-3 -1,-5 -2,-7 -1,-2 -2,-2 -4,-2 -2,0 -4,0 -5,2 -1,2 -2,4 -2,6 0,3 1,5 2,6 1,2 3,3 5,3 2,0 3,-1 4,-2 2,-2 2,-4 2,-6zm47 12l-35 0c0,-4 0,-8 0,-13 0,-4 0,-8 -1,-12l7 -1c0,4 0,8 0,13 0,3 0,5 0,8l8 0c0,-3 0,-5 0,-8 0,-4 0,-8 -1,-12l8 -1c-1,4 -1,8 -1,13 0,3 0,5 0,8l9 0c0,-3 -1,-5 -1,-8 0,-4 0,-8 0,-12l7 -1c0,4 0,8 0,13 0,5 0,9 0,13zm26 -25l0 5c-3,0 -5,0 -8,0 0,2 0,5 0,7 0,5 0,9 1,13l-7 0c0,-4 0,-8 0,-13 0,-2 0,-5 0,-7 -3,0 -5,0 -8,0l0 -5 22 0zm30 12c0,4 -2,8 -5,10 -2,3 -5,4 -9,4 -4,0 -7,-1 -9,-4 -3,-2 -4,-5 -4,-9 0,-5 1,-8 4,-11 3,-2 6,-3 10,-3 3,0 6,1 9,3 2,2 4,6 4,10zm-7 1c0,-3 -1,-5 -2,-7 -1,-2 -3,-2 -5,-2 -2,0 -3,0 -4,2 -1,2 -2,4 -2,6 0,3 1,5 2,6 1,2 3,3 4,3 2,0 4,-1 5,-2 1,-2 2,-4 2,-6zm34 4c0,3 -1,5 -3,6 -3,1 -6,2 -9,2 -1,0 -3,0 -6,0 -3,0 -4,0 -5,0 0,-3 1,-7 1,-13 0,-4 -1,-9 -1,-12l4 0c3,0 5,0 8,0 7,0 10,1 10,5 0,3 -2,5 -4,6l0 0c3,1 5,3 5,6zm-6 0c0,-1 -1,-2 -2,-2 -1,-1 -3,-1 -5,-1 -1,0 -2,0 -3,0 0,3 0,5 0,6 1,1 3,1 4,1 4,0 6,-1 6,-4zm-1 -10c0,-2 -2,-3 -5,-3 -1,0 -3,0 -5,0 1,2 1,4 1,6 1,0 3,0 4,0 3,0 5,-1 5,-3zm35 18l-7 0c0,-3 0,-7 0,-11l-10 0c0,4 0,7 1,11l-7 0c0,-4 0,-8 0,-13 0,-4 0,-8 -1,-12l8 -1c0,1 -1,5 -1,10l10 0c0,-3 0,-6 -1,-9l8 -1c0,4 0,8 0,13 0,5 0,9 0,13zm13 0l-7 0c0,-4 0,-8 0,-13 0,-4 0,-8 -1,-12l8 -1c0,4 0,8 0,13 0,5 0,9 0,13zm1 -33c0,1 0,2 -1,3 -1,1 -2,1 -3,1 -2,0 -3,0 -3,-1 -1,-1 -1,-1 -1,-3 0,-1 0,-2 1,-3 1,-1 2,-1 3,-1 2,0 3,0 3,1 1,1 1,2 1,3z"/>
   <path id="1" class="fil1" d="M26 16l0 6c-3,-1 -5,-1 -8,-1 0,3 0,5 0,8 0,4 0,8 0,12l-7 0c1,-3 1,-7 1,-12 0,-3 0,-5 0,-8 -3,0 -6,0 -8,1l0 -6 22 0zm26 25l-7 0c0,0 0,-1 0,-2l0 0c-2,2 -5,3 -8,3 -2,0 -4,-1 -6,-2 -1,-1 -2,-3 -2,-5 0,-2 1,-5 3,-6 3,-2 7,-3 12,-3 0,0 0,-1 0,-1 0,-2 0,-3 -1,-4 -1,0 -3,-1 -5,-1 -3,0 -5,1 -8,1l1 -4c2,-1 6,-2 10,-2 3,0 6,1 7,2 2,2 3,4 3,7 0,1 0,2 0,4 0,2 0,4 0,4 0,4 0,7 1,9zm-8 -5c0,-3 0,-5 0,-6 -6,0 -9,1 -9,4 0,2 2,3 4,3 2,0 4,0 5,-1zm50 -8c0,5 -2,8 -5,11 -2,2 -5,3 -9,3 -4,0 -7,-1 -9,-3 -3,-2 -4,-6 -4,-10 0,-4 1,-8 4,-10 3,-3 6,-4 10,-4 3,0 6,1 9,4 2,2 4,5 4,9zm-7 1c0,-3 -1,-5 -2,-6 -1,-2 -3,-3 -5,-3 -2,0 -3,1 -4,2 -1,2 -2,4 -2,6 0,3 1,5 2,7 1,2 3,2 4,2 2,0 4,0 5,-2 1,-2 2,-4 2,-6zm32 -13l0 6c-3,-1 -5,-1 -8,-1 0,3 0,5 0,8 0,4 0,8 0,12l-7 0c1,-3 1,-7 1,-12 0,-3 0,-5 0,-8 -3,0 -6,0 -8,1l0 -6 22 0zm29 12c0,3 -1,7 -3,10 -2,3 -5,4 -9,4 -2,0 -4,-1 -5,-2l-1 0c0,4 0,9 0,13l-7 0c1,-5 1,-11 1,-17 0,-9 -1,-15 -2,-20l7 0 0 2 1 0c2,-2 4,-3 8,-3 3,0 6,2 8,4 2,2 2,5 2,9zm-7 0c0,-2 0,-4 -1,-5 -1,-2 -3,-3 -5,-3 -2,0 -4,1 -5,2 0,5 0,10 0,14 1,1 3,1 5,1 2,0 4,-1 5,-2 1,-2 1,-4 1,-7zm36 13l-7 0c0,-3 0,-6 0,-10 0,-2 0,-4 0,-6l0 0c0,1 -2,4 -6,8 -4,4 -5,7 -5,8l-6 0c0,-4 1,-8 1,-12 0,-5 -1,-9 -1,-13l7 0c0,3 0,6 0,10 0,2 0,4 0,7l0 0c0,-2 2,-4 6,-9 3,-4 5,-6 5,-8l6 0c0,3 -1,7 -1,13 0,4 1,8 1,12zm37 0l-7 0c0,-3 0,-6 0,-11 0,-5 0,-8 0,-9l-1 0c0,2 -1,5 -3,10 -2,5 -3,8 -3,10l-6 0c0,-2 -1,-5 -2,-9 -2,-4 -3,-8 -4,-11l0 0c0,1 0,5 0,10 -1,5 -1,9 -1,10l-6 0c0,0 1,-4 1,-11 1,-7 1,-12 1,-14l10 0c0,2 1,6 2,11 2,4 3,7 3,8l0 0c0,-1 1,-4 2,-8 2,-5 3,-9 3,-11l10 0c0,2 0,7 0,14 0,7 1,10 1,11zm26 0l-6 0c0,0 -1,-1 -1,-2l0 0c-2,2 -4,3 -8,3 -2,0 -4,-1 -5,-2 -2,-1 -2,-3 -2,-5 0,-2 1,-5 3,-6 2,-2 6,-3 12,-3 0,0 0,-1 0,-1 0,-2 -1,-3 -1,-4 -1,0 -3,-1 -5,-1 -3,0 -6,1 -8,1l0 -4c3,-1 6,-2 10,-2 4,0 6,1 8,2 2,2 2,4 2,7 0,1 0,2 0,4 0,2 0,4 0,4 0,4 0,7 1,9zm-7 -5c0,-3 0,-5 0,-6 -6,0 -9,1 -9,4 0,2 1,3 4,3 2,0 4,0 5,-1zm36 5l-7 0c0,-3 0,-6 0,-10 0,-2 0,-4 0,-6l0 0c-1,1 -3,4 -6,8 -4,4 -6,7 -6,8l-5 0c0,-4 0,-8 0,-12 0,-5 0,-9 0,-13l7 0c0,3 0,6 0,10 0,2 0,4 -1,7l1 0c0,-2 2,-4 6,-9 3,-4 5,-6 5,-8l6 0c-1,3 -1,7 -1,13 0,4 0,8 1,12zm-2 -37c0,6 -3,9 -10,9 -3,0 -5,-1 -7,-3 -1,-1 -2,-3 -2,-6l6 0c0,3 1,5 3,5 2,0 3,-1 4,-2 0,0 0,-2 0,-3l6 0zm28 12l0 6c-3,-1 -5,-1 -8,-1 0,3 0,5 0,8 0,4 0,8 0,12l-7 0c1,-3 1,-7 1,-12 0,-3 0,-5 -1,-8 -2,0 -5,0 -7,1l0 -6 22 0zm27 10c0,1 0,2 0,4l-17 0c0,2 1,3 2,5 2,1 4,2 6,2 3,0 5,-1 8,-1l0 5c-3,1 -6,1 -9,1 -5,0 -8,-1 -10,-4 -3,-2 -4,-5 -4,-9 0,-4 1,-7 3,-10 3,-2 6,-4 10,-4 4,0 6,1 8,3 2,2 3,5 3,8zm-6 0c0,-4 -2,-6 -5,-6 -4,0 -6,2 -6,6l11 0zm-277 67c0,5 -1,8 -4,10 -3,3 -6,4 -10,4 -4,0 -8,-2 -9,-4 -2,-3 -3,-8 -3,-14 0,-3 0,-6 1,-9 0,-2 2,-4 3,-5 1,-2 3,-3 5,-4 3,-1 5,-1 8,-2 1,0 2,0 3,0 1,0 3,0 4,-1l0 6c-1,0 -1,0 -3,1 -1,0 -3,0 -4,0 -2,0 -4,1 -5,1 -1,0 -2,1 -3,2 -1,0 -2,1 -2,2 -1,1 -1,3 -1,5l0 0c2,-3 5,-4 8,-4 4,0 7,1 9,3 2,2 3,5 3,9zm-6 1c0,-2 -1,-4 -2,-6 -1,-1 -3,-2 -5,-2 -3,0 -5,1 -7,3 0,5 1,8 2,10 1,2 2,3 5,3 2,0 3,-1 5,-2 1,-2 2,-4 2,-6zm34 -3c0,1 0,2 -1,3l-16 0c0,2 1,4 2,5 2,2 3,2 6,2 2,0 5,0 8,-1l0 5c-3,1 -6,2 -9,2 -5,0 -8,-2 -11,-4 -2,-3 -3,-6 -3,-9 0,-4 1,-7 3,-10 2,-3 6,-4 10,-4 3,0 6,1 8,3 2,2 3,4 3,8zm-6 -1c0,-4 -2,-6 -6,-6 -3,0 -5,2 -5,7l11 -1zm30 8c0,3 -2,5 -4,6 -2,2 -5,2 -9,2 -3,0 -6,0 -8,-1l1 -4c2,0 4,1 7,1 4,0 6,-1 6,-3 0,-3 -2,-4 -7,-4 -1,0 -3,0 -4,0l0 -4c1,0 3,0 5,0 4,0 6,-1 6,-3 0,-2 -2,-3 -6,-3 -2,0 -5,0 -7,1l1 -5c2,-1 5,-1 8,-1 7,0 10,2 10,6 0,3 -2,5 -4,6l0 0c1,0 2,1 3,2 1,1 2,2 2,4zm27 8l-7 0c0,0 0,-1 0,-2 -1,-3 -2,-6 -3,-7 -1,-1 -3,-2 -4,-2 -1,0 -1,0 -2,0 0,4 0,7 0,11l-7 0c0,-4 1,-8 1,-12 0,-5 -1,-10 -1,-13l7 -1c0,3 0,7 0,11 1,0 1,0 2,0 3,0 5,-3 6,-9 0,0 1,-1 1,-1l7 0c-1,0 -1,1 -1,2 -2,6 -5,9 -7,10l0 0c2,0 3,1 4,3 1,2 2,4 3,7 1,1 1,2 1,3zm30 -13c0,4 -1,8 -4,10 -3,3 -6,4 -10,4 -3,0 -6,-1 -9,-4 -2,-2 -3,-5 -3,-9 0,-5 1,-8 4,-11 2,-2 6,-3 9,-3 4,0 7,1 9,3 3,2 4,6 4,10zm-7 1c0,-3 -1,-5 -2,-7 -1,-2 -2,-2 -4,-2 -2,0 -4,0 -5,2 -1,2 -2,4 -2,6 0,3 1,5 2,6 1,2 3,3 5,3 2,0 3,-1 4,-2 2,-2 2,-4 2,-6zm47 12l-35 0c0,-4 0,-8 0,-13 0,-4 0,-8 -1,-12l7 -1c0,4 0,8 0,13 0,3 0,5 0,8l8 0c0,-3 0,-5 0,-8 0,-4 0,-8 -1,-12l8 -1c-1,4 -1,8 -1,13 0,3 0,5 0,8l9 0c0,-3 -1,-5 -1,-8 0,-4 0,-8 0,-12l7 -1c0,4 0,8 0,13 0,5 0,9 0,13zm26 -25l0 5c-3,0 -5,0 -8,0 0,2 0,5 0,7 0,5 0,9 1,13l-7 0c0,-4 0,-8 0,-13 0,-2 0,-5 0,-7 -3,0 -5,0 -8,0l0 -5 22 0zm30 12c0,4 -2,8 -5,10 -2,3 -5,4 -9,4 -4,0 -7,-1 -9,-4 -3,-2 -4,-5 -4,-9 0,-5 1,-8 4,-11 3,-2 6,-3 10,-3 3,0 6,1 9,3 2,2 4,6 4,10zm-7 1c0,-3 -1,-5 -2,-7 -1,-2 -3,-2 -5,-2 -2,0 -3,0 -4,2 -1,2 -2,4 -2,6 0,3 1,5 2,6 1,2 3,3 4,3 2,0 4,-1 5,-2 1,-2 2,-4 2,-6zm34 4c0,3 -1,5 -3,6 -3,1 -6,2 -9,2 -1,0 -3,0 -6,0 -3,0 -4,0 -5,0 0,-3 1,-7 1,-13 0,-4 -1,-9 -1,-12l4 0c3,0 5,0 8,0 7,0 10,1 10,5 0,3 -2,5 -4,6l0 0c3,1 5,3 5,6zm-6 0c0,-1 -1,-2 -2,-2 -1,-1 -3,-1 -5,-1 -1,0 -2,0 -3,0 0,3 0,5 0,6 1,1 3,1 4,1 4,0 6,-1 6,-4zm-1 -10c0,-2 -2,-3 -5,-3 -1,0 -3,0 -5,0 1,2 1,4 1,6 1,0 3,0 4,0 3,0 5,-1 5,-3zm35 18l-7 0c0,-3 0,-7 0,-11l-10 0c0,4 0,7 1,11l-7 0c0,-4 0,-8 0,-13 0,-4 0,-8 -1,-12l8 -1c0,1 -1,5 -1,10l10 0c0,-3 0,-6 -1,-9l8 -1c0,4 0,8 0,13 0,5 0,9 0,13zm13 0l-7 0c0,-4 0,-8 0,-13 0,-4 0,-8 -1,-12l8 -1c0,4 0,8 0,13 0,5 0,9 0,13zm1 -33c0,1 0,2 -1,3 -1,1 -2,1 -3,1 -2,0 -3,0 -3,-1 -1,-1 -1,-1 -1,-3 0,-1 0,-2 1,-3 1,-1 2,-1 3,-1 2,0 3,0 3,1 1,1 1,2 1,3z"/>
  </g>
  <g>
   <path class="fil0 str0" d="M102 170l-7 0c0,-2 0,-6 0,-11 0,-5 0,-7 0,-9l-1 0c0,2 -1,5 -3,10 -2,5 -3,9 -3,10l-6 0c0,-2 -1,-5 -2,-9 -2,-4 -3,-8 -4,-11l0 0c0,2 0,5 -1,10 0,5 0,9 0,10l-6 0c0,0 1,-4 1,-11 1,-7 1,-11 1,-14l10 0c0,2 1,6 2,11 2,5 2,8 2,9l1 0c0,-1 1,-4 2,-9 2,-5 3,-9 3,-11l9 0c0,3 1,7 1,14 0,7 1,11 1,11zm27 -15c0,1 0,2 0,4l-17 0c1,2 1,4 3,5 1,1 3,2 6,2 2,0 5,-1 8,-1l-1 5c-2,1 -5,1 -9,1 -4,0 -8,-1 -10,-4 -2,-2 -4,-5 -4,-9 0,-4 2,-7 4,-10 2,-2 5,-4 9,-4 4,0 7,1 9,3 1,2 2,5 2,8zm-6 0c0,-4 -1,-6 -5,-6 -3,0 -5,2 -6,6l11 0zm38 11c0,0 -1,3 -1,7 -1,3 -1,6 -1,8l-5 0c0,-2 0,-6 0,-11 -2,0 -5,0 -8,0 -3,0 -6,0 -8,0 -1,5 -2,9 -2,11l-4 0c0,-1 0,-4 0,-7 0,-4 0,-6 0,-8l3 0c1,-6 4,-13 8,-21l8 0 5 0c0,3 0,8 0,13 0,2 0,5 0,8l5 0zm-11 0c0,-3 0,-6 0,-8 0,-3 0,-5 -1,-8l-3 0c-3,7 -5,12 -6,16l10 0zm37 4l-7 0c1,-3 1,-6 1,-10 0,-2 0,-4 0,-6l0 0c-1,1 -3,4 -7,9 -3,4 -5,6 -5,7l-5 0c0,-3 0,-8 0,-12 0,-5 0,-9 -1,-12l8 -1c0,3 -1,7 -1,10 0,2 0,4 0,7l1 0c0,-1 2,-4 6,-9 3,-4 5,-6 5,-7l5 -1c0,3 0,8 0,13 0,4 0,8 0,12zm27 0l-7 0c0,-3 0,-6 0,-10 -2,1 -4,2 -7,2 -3,0 -5,-1 -6,-3 -2,-1 -2,-4 -2,-8 0,-2 0,-4 -1,-5l7 -1c0,1 0,3 0,5 0,2 0,4 1,5 1,1 2,2 4,2 2,0 3,-1 4,-1 0,-4 0,-7 -1,-10l7 -1c0,3 0,8 0,13 0,4 0,9 1,12zm29 0l-7 0c0,-3 0,-6 0,-11l-10 0c0,4 0,8 0,11l-7 0c1,-3 1,-7 1,-12 0,-5 -1,-9 -1,-12l7 -1c0,1 0,4 0,10l10 0c0,-4 0,-7 -1,-9l8 -1c-1,3 -1,8 -1,13 0,4 0,9 1,12zm13 0l-7 0c0,-3 0,-7 0,-12 0,-5 0,-9 -1,-12l8 -1c-1,3 -1,8 -1,13 0,4 0,9 1,12zm1 -33c0,2 -1,3 -1,4 -1,0 -2,1 -4,1 -1,0 -2,0 -3,-1 0,-1 -1,-2 -1,-3 0,-1 1,-2 2,-3 0,-1 1,-1 3,-1 1,0 2,0 3,1 0,0 1,1 1,2zm-181 98l-7 0c0,-4 0,-8 0,-13 0,-2 0,-5 0,-7l-9 0c0,2 0,4 0,7 0,5 0,9 1,13l-7 0c0,-4 0,-8 0,-13 0,-4 0,-8 -1,-12l8 0 10 0 5 -1c0,4 0,8 0,13 0,5 0,9 0,13zm31 -13c0,4 -1,8 -4,10 -3,3 -6,4 -10,4 -3,0 -6,-1 -9,-3 -2,-3 -3,-6 -3,-10 0,-4 1,-8 4,-10 2,-3 6,-4 9,-4 4,0 7,1 9,3 3,3 4,6 4,10zm-7 1c0,-3 0,-5 -2,-7 -1,-1 -2,-2 -4,-2 -2,0 -4,0 -5,2 -1,2 -2,4 -2,6 0,3 1,5 2,7 1,1 3,2 5,2 2,0 3,-1 4,-2 2,-2 2,-4 2,-6zm32 6l-1 5c-1,1 -4,2 -6,2 -5,0 -8,-2 -11,-4 -2,-3 -3,-6 -3,-9 0,-4 1,-7 3,-10 3,-3 6,-4 11,-4 2,0 4,0 6,1l-1 5c-2,0 -4,-1 -6,-1 -2,0 -3,1 -5,2 -1,2 -2,4 -2,6 0,2 1,4 3,6 1,2 3,2 6,2 1,0 3,0 6,-1zm25 6l-7 0c1,-3 1,-7 1,-12 0,-3 0,-6 0,-8l-3 0c-1,1 -1,3 -2,4 0,2 -1,4 -2,5 0,2 -1,3 -2,4 -1,2 -2,3 -3,4 -1,1 -2,2 -3,2 -1,1 -2,1 -3,1l0 -6c1,0 1,0 2,-1 0,0 1,-1 2,-2 0,-1 1,-2 1,-3 1,-1 2,-3 2,-4 1,-1 2,-3 2,-4 1,-2 1,-3 1,-5l10 0 4 -1c0,4 0,8 0,13 0,5 0,9 0,13zm29 -25c0,1 -2,5 -4,11 -3,7 -5,12 -5,14 -1,4 -3,7 -5,9 -2,2 -5,3 -8,3l-1 -6c2,0 4,0 6,-1 1,-2 2,-3 2,-5 0,-2 -2,-7 -5,-14 -3,-7 -5,-11 -5,-11l8 0c0,1 1,4 3,9 1,5 2,8 2,10l0 0c0,-1 1,-4 3,-9 1,-5 2,-9 2,-10l7 0zm22 0l0 6c-1,-1 -5,-1 -12,-1 0,3 0,6 0,8 0,4 0,8 1,12l-7 0c0,-4 0,-8 0,-13 0,-4 0,-8 0,-12l18 0zm27 25l-7 0c0,-3 0,-7 0,-11 0,-1 1,-3 1,-5l-1 0c0,1 -2,4 -6,8 -3,4 -5,7 -5,8l-5 0c0,-4 0,-8 0,-13 0,-5 0,-9 -1,-12l7 -1c0,4 0,7 0,10 0,2 0,4 0,7l0 0c1,-1 3,-4 6,-8 4,-4 5,-7 5,-8l6 -1c0,4 0,8 0,13 0,5 0,9 0,13zm40 -25c0,1 -1,5 -4,11 -3,7 -5,12 -5,14 -1,4 -3,7 -5,9 -2,2 -4,3 -8,3l-1 -6c2,0 4,0 6,-1 1,-2 2,-3 2,-5 0,-2 -2,-7 -5,-14 -3,-7 -5,-11 -5,-11l8 0c0,1 1,4 3,9 1,5 2,8 2,10l1 0c0,-1 0,-4 2,-9 1,-5 2,-9 2,-10l7 0zm-156 89l-7 0c0,-2 0,-6 0,-11 0,-4 0,-7 0,-8l-1 0c0,1 -1,4 -3,9 -2,5 -3,9 -3,10l-6 0c0,-2 -1,-5 -2,-9 -2,-4 -3,-7 -4,-10l0 0c0,1 0,4 0,9 -1,5 -1,9 -1,10l-6 0c0,0 1,-4 1,-11 1,-7 1,-11 1,-13l10 0c0,2 1,5 2,10 2,5 3,8 3,9l0 0c0,-1 1,-4 2,-9 2,-5 3,-8 3,-10l10 0c0,2 0,6 0,13 0,7 1,11 1,11zm28 -15c0,1 -1,2 -1,4l-17 0c1,2 2,4 3,5 1,1 3,2 6,2 2,0 5,0 8,-1l0 5c-3,1 -6,1 -9,1 -5,0 -8,-1 -11,-4 -2,-2 -3,-5 -3,-9 0,-3 1,-7 3,-9 2,-3 6,-5 10,-5 3,0 6,1 8,3 2,2 3,5 3,8zm-7 0c0,-4 -1,-6 -5,-6 -3,0 -5,2 -6,6l11 0zm46 15l-7 0c0,0 -1,0 -1,-1 -1,-3 -2,-6 -3,-7 -1,-1 -2,-2 -4,-2 0,0 0,0 0,0 0,3 0,7 0,10l-7 0c1,-3 1,-7 1,-10 -1,0 -1,0 -1,0 -2,0 -3,1 -4,2 -1,1 -2,4 -3,7 0,1 0,1 -1,1l-7 0c1,0 1,-1 2,-2 1,-3 2,-6 3,-7 1,-2 2,-3 4,-3l0 -1c-3,-1 -5,-4 -7,-9 0,-1 0,-2 -1,-2l7 0c0,0 0,0 1,1 1,6 3,9 6,9 0,0 0,0 1,0 0,-5 0,-8 -1,-10l7 0c0,2 0,5 0,10 0,0 0,0 0,0 3,0 5,-3 7,-9 0,-1 0,-1 0,-1l7 0c0,0 -1,1 -1,2 -2,5 -4,8 -7,9l0 1c2,0 3,1 4,3 2,1 3,4 4,7 0,1 0,1 1,2zm25 0l-6 1c0,-1 0,-2 0,-2l-1 0c-2,1 -4,2 -8,2 -2,0 -4,0 -5,-2 -1,-1 -2,-3 -2,-5 0,-2 1,-4 3,-6 2,-2 6,-3 12,-3 0,0 0,0 0,-1 0,-2 0,-3 -1,-3 -1,-1 -3,-1 -5,-1 -3,0 -6,0 -8,1l1 -5c2,-1 5,-1 10,-1 3,0 5,0 7,2 2,1 3,3 3,7 0,0 -1,2 -1,4 0,2 0,3 0,4 0,3 1,6 1,8zm-7 -5c0,-2 0,-4 0,-6 -6,0 -9,1 -9,4 0,3 1,4 4,4 2,0 4,-1 5,-2zm36 5l-8 0c0,0 -1,-2 -2,-4 -2,-3 -3,-5 -3,-6l-1 0c0,1 -1,3 -3,6 -1,2 -1,4 -1,4l-8 0c0,0 1,-2 4,-6 3,-3 4,-6 5,-7l0 0c-1,-1 -2,-3 -4,-6 -3,-3 -4,-5 -4,-5l8 0c0,0 1,1 2,4 1,2 2,3 3,4l0 0c1,-1 1,-2 3,-4 1,-3 1,-4 1,-4l7 0c0,0 -1,2 -3,5 -3,3 -4,5 -5,6l0 0c1,1 3,3 5,7 3,4 4,6 4,6zm-180 60c0,1 0,3 -1,7 0,4 -1,7 -1,9l-4 0c0,-2 0,-6 0,-11 -3,0 -6,0 -9,0 -3,0 -6,0 -8,0 -1,5 -1,9 -1,11l-5 0c0,-2 0,-4 0,-8 0,-3 0,-6 0,-8l3 0c2,-5 4,-12 8,-20l9 0 4 0c0,3 0,7 0,13 0,2 0,5 0,7l5 0zm-11 0c0,-2 0,-5 0,-7 0,-3 0,-6 0,-8l-3 0c-3,6 -5,11 -6,15l9 0zm37 -10c0,1 0,2 0,3l-17 1c0,2 1,3 2,5 2,1 4,2 6,2 3,0 6,-1 9,-2l-1 6c-2,0 -5,1 -9,1 -4,0 -8,-1 -10,-4 -3,-3 -4,-6 -4,-9 0,-4 1,-7 3,-10 3,-3 6,-4 10,-4 4,0 6,1 8,3 2,2 3,5 3,8zm-6 0c0,-4 -2,-6 -5,-6 -4,0 -6,2 -6,6l11 0zm34 15l-7 0c0,0 0,-1 -1,-1 -1,-4 -2,-6 -3,-8 -1,-1 -2,-1 -4,-1 0,0 -1,0 -2,0 0,3 1,6 1,10l-7 0c0,-3 0,-7 0,-12 0,-5 0,-9 -1,-13l8 0c0,3 -1,6 -1,10 1,0 2,0 2,0 3,0 6,-3 7,-9 0,0 0,0 1,-1l6 0c0,1 0,1 -1,2 -2,6 -4,9 -7,10l0 0c2,1 4,2 5,3 1,2 2,4 3,7 0,1 1,2 1,3zm26 0l-7 0c0,-3 0,-7 0,-12 0,-3 0,-5 0,-8l-3 0c0,1 -1,3 -1,5 -1,1 -2,3 -2,4 -1,2 -2,3 -3,5 0,1 -1,2 -2,3 -1,1 -2,2 -3,3 -1,0 -2,0 -3,1l0 -7c0,0 1,0 1,-1 1,0 1,-1 2,-2 1,-1 1,-2 2,-3 1,-1 1,-3 2,-4 0,-1 1,-3 2,-4 0,-2 1,-3 1,-5l9 0 5 0c0,3 -1,7 -1,13 0,4 1,8 1,12zm27 0l-6 0c0,0 -1,-1 -1,-2l0 0c-2,2 -4,3 -8,3 -2,0 -4,-1 -5,-2 -2,-1 -2,-3 -2,-5 0,-3 1,-5 3,-6 2,-2 6,-3 12,-3 0,-1 0,-1 0,-1 0,-2 -1,-3 -1,-4 -1,0 -3,-1 -5,-1 -3,0 -6,1 -8,1l0 -5c3,0 6,-1 10,-1 4,0 6,1 8,2 2,2 2,4 2,7 0,1 0,2 0,4 0,2 0,3 0,4 0,4 0,7 1,9zm-7 -5c0,-3 0,-5 0,-7 -6,0 -9,2 -9,5 0,2 1,3 4,3 2,0 4,0 5,-1zm37 -8c0,3 -1,7 -3,10 -2,2 -5,4 -9,4 -3,0 -4,-1 -6,-2l0 0c0,4 0,9 0,13l-7 0c1,-5 1,-11 1,-17 0,-9 -1,-15 -2,-20l7 0 0 2 1 0c2,-2 4,-3 8,-3 3,0 6,1 7,4 2,2 3,5 3,9zm-7 0c0,-2 0,-4 -1,-6 -1,-1 -3,-2 -5,-2 -2,0 -4,1 -5,2 0,5 0,10 0,14 1,1 3,1 5,1 2,0 4,-1 5,-3 1,-1 1,-3 1,-6zm34 13l-7 0c0,0 0,-1 0,-2l0 0c-2,2 -5,3 -8,3 -2,0 -4,-1 -6,-2 -1,-1 -2,-3 -2,-5 0,-3 1,-5 4,-6 2,-2 6,-3 11,-3 0,-1 0,-1 0,-1 0,-2 0,-3 -1,-4 -1,0 -3,-1 -5,-1 -3,0 -5,1 -8,1l1 -5c2,0 6,-1 10,-1 3,0 6,1 7,2 2,2 3,4 3,7 0,1 0,2 0,4 0,2 0,3 0,4 0,4 0,7 1,9zm-7 -5c-1,-3 -1,-5 -1,-7 -6,0 -9,2 -9,5 0,2 2,3 4,3 2,0 4,0 6,-1zm38 0c0,1 -1,3 -1,7 -1,4 -1,7 -1,9l-5 0c0,-2 0,-6 0,-11l-19 0c0,-4 0,-8 0,-12 0,-5 0,-9 -1,-13l8 0c-1,3 -1,7 -1,13 0,2 0,4 0,7l9 0c0,-2 0,-5 0,-7 0,-5 -1,-9 -1,-13l7 0c0,3 0,7 0,13 0,2 0,5 0,7l5 0zm11 5l-7 0c0,-4 0,-8 0,-12 0,-5 0,-9 -1,-13l8 0c0,3 -1,7 -1,13 0,4 1,8 1,12zm1 -33c0,1 0,2 -1,3 -1,1 -2,2 -4,2 -1,0 -2,-1 -2,-2 -1,0 -1,-1 -1,-2 0,-1 0,-3 1,-3 1,-1 2,-2 3,-2 1,0 2,1 3,1 1,1 1,2 1,3zm12 33l-7 0c0,-4 1,-8 1,-12 0,-5 -1,-9 -1,-13l7 0c0,3 0,7 0,13 0,4 0,8 0,12zm6 -33c0,1 -1,2 -1,3 -1,1 -2,1 -3,1 -1,0 -2,0 -3,-1 0,-1 -1,-1 -1,-2 0,-1 1,-2 1,-3 1,-1 2,-1 3,-1 1,0 2,0 3,1 0,1 1,1 1,2zm-11 0c0,1 0,2 -1,3 0,1 -1,1 -3,1 -1,0 -2,0 -2,-1 -1,-1 -1,-1 -1,-2 0,-1 0,-2 1,-3 1,-1 2,-1 3,-1 1,0 2,0 2,1 1,1 1,1 1,2zm20 28c0,2 -1,3 -2,4 -1,1 -2,1 -3,1 -2,0 -3,0 -3,-1 -1,-1 -2,-2 -2,-3 0,-1 1,-2 2,-3 1,-1 2,-2 3,-2 2,0 3,1 4,2 0,0 1,1 1,2z"/>
   <path id="1" class="fil1" d="M102 170l-7 0c0,-2 0,-6 0,-11 0,-5 0,-7 0,-9l-1 0c0,2 -1,5 -3,10 -2,5 -3,9 -3,10l-6 0c0,-2 -1,-5 -2,-9 -2,-4 -3,-8 -4,-11l0 0c0,2 0,5 -1,10 0,5 0,9 0,10l-6 0c0,0 1,-4 1,-11 1,-7 1,-11 1,-14l10 0c0,2 1,6 2,11 2,5 2,8 2,9l1 0c0,-1 1,-4 2,-9 2,-5 3,-9 3,-11l9 0c0,3 1,7 1,14 0,7 1,11 1,11zm27 -15c0,1 0,2 0,4l-17 0c1,2 1,4 3,5 1,1 3,2 6,2 2,0 5,-1 8,-1l-1 5c-2,1 -5,1 -9,1 -4,0 -8,-1 -10,-4 -2,-2 -4,-5 -4,-9 0,-4 2,-7 4,-10 2,-2 5,-4 9,-4 4,0 7,1 9,3 1,2 2,5 2,8zm-6 0c0,-4 -1,-6 -5,-6 -3,0 -5,2 -6,6l11 0zm38 11c0,0 -1,3 -1,7 -1,3 -1,6 -1,8l-5 0c0,-2 0,-6 0,-11 -2,0 -5,0 -8,0 -3,0 -6,0 -8,0 -1,5 -2,9 -2,11l-4 0c0,-1 0,-4 0,-7 0,-4 0,-6 0,-8l3 0c1,-6 4,-13 8,-21l8 0 5 0c0,3 0,8 0,13 0,2 0,5 0,8l5 0zm-11 0c0,-3 0,-6 0,-8 0,-3 0,-5 -1,-8l-3 0c-3,7 -5,12 -6,16l10 0zm37 4l-7 0c1,-3 1,-6 1,-10 0,-2 0,-4 0,-6l0 0c-1,1 -3,4 -7,9 -3,4 -5,6 -5,7l-5 0c0,-3 0,-8 0,-12 0,-5 0,-9 -1,-12l8 -1c0,3 -1,7 -1,10 0,2 0,4 0,7l1 0c0,-1 2,-4 6,-9 3,-4 5,-6 5,-7l5 -1c0,3 0,8 0,13 0,4 0,8 0,12zm27 0l-7 0c0,-3 0,-6 0,-10 -2,1 -4,2 -7,2 -3,0 -5,-1 -6,-3 -2,-1 -2,-4 -2,-8 0,-2 0,-4 -1,-5l7 -1c0,1 0,3 0,5 0,2 0,4 1,5 1,1 2,2 4,2 2,0 3,-1 4,-1 0,-4 0,-7 -1,-10l7 -1c0,3 0,8 0,13 0,4 0,9 1,12zm29 0l-7 0c0,-3 0,-6 0,-11l-10 0c0,4 0,8 0,11l-7 0c1,-3 1,-7 1,-12 0,-5 -1,-9 -1,-12l7 -1c0,1 0,4 0,10l10 0c0,-4 0,-7 -1,-9l8 -1c-1,3 -1,8 -1,13 0,4 0,9 1,12zm13 0l-7 0c0,-3 0,-7 0,-12 0,-5 0,-9 -1,-12l8 -1c-1,3 -1,8 -1,13 0,4 0,9 1,12zm1 -33c0,2 -1,3 -1,4 -1,0 -2,1 -4,1 -1,0 -2,0 -3,-1 0,-1 -1,-2 -1,-3 0,-1 1,-2 2,-3 0,-1 1,-1 3,-1 1,0 2,0 3,1 0,0 1,1 1,2zm-181 98l-7 0c0,-4 0,-8 0,-13 0,-2 0,-5 0,-7l-9 0c0,2 0,4 0,7 0,5 0,9 1,13l-7 0c0,-4 0,-8 0,-13 0,-4 0,-8 -1,-12l8 0 10 0 5 -1c0,4 0,8 0,13 0,5 0,9 0,13zm31 -13c0,4 -1,8 -4,10 -3,3 -6,4 -10,4 -3,0 -6,-1 -9,-3 -2,-3 -3,-6 -3,-10 0,-4 1,-8 4,-10 2,-3 6,-4 9,-4 4,0 7,1 9,3 3,3 4,6 4,10zm-7 1c0,-3 0,-5 -2,-7 -1,-1 -2,-2 -4,-2 -2,0 -4,0 -5,2 -1,2 -2,4 -2,6 0,3 1,5 2,7 1,1 3,2 5,2 2,0 3,-1 4,-2 2,-2 2,-4 2,-6zm32 6l-1 5c-1,1 -4,2 -6,2 -5,0 -8,-2 -11,-4 -2,-3 -3,-6 -3,-9 0,-4 1,-7 3,-10 3,-3 6,-4 11,-4 2,0 4,0 6,1l-1 5c-2,0 -4,-1 -6,-1 -2,0 -3,1 -5,2 -1,2 -2,4 -2,6 0,2 1,4 3,6 1,2 3,2 6,2 1,0 3,0 6,-1zm25 6l-7 0c1,-3 1,-7 1,-12 0,-3 0,-6 0,-8l-3 0c-1,1 -1,3 -2,4 0,2 -1,4 -2,5 0,2 -1,3 -2,4 -1,2 -2,3 -3,4 -1,1 -2,2 -3,2 -1,1 -2,1 -3,1l0 -6c1,0 1,0 2,-1 0,0 1,-1 2,-2 0,-1 1,-2 1,-3 1,-1 2,-3 2,-4 1,-1 2,-3 2,-4 1,-2 1,-3 1,-5l10 0 4 -1c0,4 0,8 0,13 0,5 0,9 0,13zm29 -25c0,1 -2,5 -4,11 -3,7 -5,12 -5,14 -1,4 -3,7 -5,9 -2,2 -5,3 -8,3l-1 -6c2,0 4,0 6,-1 1,-2 2,-3 2,-5 0,-2 -2,-7 -5,-14 -3,-7 -5,-11 -5,-11l8 0c0,1 1,4 3,9 1,5 2,8 2,10l0 0c0,-1 1,-4 3,-9 1,-5 2,-9 2,-10l7 0zm22 0l0 6c-1,-1 -5,-1 -12,-1 0,3 0,6 0,8 0,4 0,8 1,12l-7 0c0,-4 0,-8 0,-13 0,-4 0,-8 0,-12l18 0zm27 25l-7 0c0,-3 0,-7 0,-11 0,-1 1,-3 1,-5l-1 0c0,1 -2,4 -6,8 -3,4 -5,7 -5,8l-5 0c0,-4 0,-8 0,-13 0,-5 0,-9 -1,-12l7 -1c0,4 0,7 0,10 0,2 0,4 0,7l0 0c1,-1 3,-4 6,-8 4,-4 5,-7 5,-8l6 -1c0,4 0,8 0,13 0,5 0,9 0,13zm40 -25c0,1 -1,5 -4,11 -3,7 -5,12 -5,14 -1,4 -3,7 -5,9 -2,2 -4,3 -8,3l-1 -6c2,0 4,0 6,-1 1,-2 2,-3 2,-5 0,-2 -2,-7 -5,-14 -3,-7 -5,-11 -5,-11l8 0c0,1 1,4 3,9 1,5 2,8 2,10l1 0c0,-1 0,-4 2,-9 1,-5 2,-9 2,-10l7 0zm-156 89l-7 0c0,-2 0,-6 0,-11 0,-4 0,-7 0,-8l-1 0c0,1 -1,4 -3,9 -2,5 -3,9 -3,10l-6 0c0,-2 -1,-5 -2,-9 -2,-4 -3,-7 -4,-10l0 0c0,1 0,4 0,9 -1,5 -1,9 -1,10l-6 0c0,0 1,-4 1,-11 1,-7 1,-11 1,-13l10 0c0,2 1,5 2,10 2,5 3,8 3,9l0 0c0,-1 1,-4 2,-9 2,-5 3,-8 3,-10l10 0c0,2 0,6 0,13 0,7 1,11 1,11zm28 -15c0,1 -1,2 -1,4l-17 0c1,2 2,4 3,5 1,1 3,2 6,2 2,0 5,0 8,-1l0 5c-3,1 -6,1 -9,1 -5,0 -8,-1 -11,-4 -2,-2 -3,-5 -3,-9 0,-3 1,-7 3,-9 2,-3 6,-5 10,-5 3,0 6,1 8,3 2,2 3,5 3,8zm-7 0c0,-4 -1,-6 -5,-6 -3,0 -5,2 -6,6l11 0zm46 15l-7 0c0,0 -1,0 -1,-1 -1,-3 -2,-6 -3,-7 -1,-1 -2,-2 -4,-2 0,0 0,0 0,0 0,3 0,7 0,10l-7 0c1,-3 1,-7 1,-10 -1,0 -1,0 -1,0 -2,0 -3,1 -4,2 -1,1 -2,4 -3,7 0,1 0,1 -1,1l-7 0c1,0 1,-1 2,-2 1,-3 2,-6 3,-7 1,-2 2,-3 4,-3l0 -1c-3,-1 -5,-4 -7,-9 0,-1 0,-2 -1,-2l7 0c0,0 0,0 1,1 1,6 3,9 6,9 0,0 0,0 1,0 0,-5 0,-8 -1,-10l7 0c0,2 0,5 0,10 0,0 0,0 0,0 3,0 5,-3 7,-9 0,-1 0,-1 0,-1l7 0c0,0 -1,1 -1,2 -2,5 -4,8 -7,9l0 1c2,0 3,1 4,3 2,1 3,4 4,7 0,1 0,1 1,2zm25 0l-6 1c0,-1 0,-2 0,-2l-1 0c-2,1 -4,2 -8,2 -2,0 -4,0 -5,-2 -1,-1 -2,-3 -2,-5 0,-2 1,-4 3,-6 2,-2 6,-3 12,-3 0,0 0,0 0,-1 0,-2 0,-3 -1,-3 -1,-1 -3,-1 -5,-1 -3,0 -6,0 -8,1l1 -5c2,-1 5,-1 10,-1 3,0 5,0 7,2 2,1 3,3 3,7 0,0 -1,2 -1,4 0,2 0,3 0,4 0,3 1,6 1,8zm-7 -5c0,-2 0,-4 0,-6 -6,0 -9,1 -9,4 0,3 1,4 4,4 2,0 4,-1 5,-2zm36 5l-8 0c0,0 -1,-2 -2,-4 -2,-3 -3,-5 -3,-6l-1 0c0,1 -1,3 -3,6 -1,2 -1,4 -1,4l-8 0c0,0 1,-2 4,-6 3,-3 4,-6 5,-7l0 0c-1,-1 -2,-3 -4,-6 -3,-3 -4,-5 -4,-5l8 0c0,0 1,1 2,4 1,2 2,3 3,4l0 0c1,-1 1,-2 3,-4 1,-3 1,-4 1,-4l7 0c0,0 -1,2 -3,5 -3,3 -4,5 -5,6l0 0c1,1 3,3 5,7 3,4 4,6 4,6zm-180 60c0,1 0,3 -1,7 0,4 -1,7 -1,9l-4 0c0,-2 0,-6 0,-11 -3,0 -6,0 -9,0 -3,0 -6,0 -8,0 -1,5 -1,9 -1,11l-5 0c0,-2 0,-4 0,-8 0,-3 0,-6 0,-8l3 0c2,-5 4,-12 8,-20l9 0 4 0c0,3 0,7 0,13 0,2 0,5 0,7l5 0zm-11 0c0,-2 0,-5 0,-7 0,-3 0,-6 0,-8l-3 0c-3,6 -5,11 -6,15l9 0zm37 -10c0,1 0,2 0,3l-17 1c0,2 1,3 2,5 2,1 4,2 6,2 3,0 6,-1 9,-2l-1 6c-2,0 -5,1 -9,1 -4,0 -8,-1 -10,-4 -3,-3 -4,-6 -4,-9 0,-4 1,-7 3,-10 3,-3 6,-4 10,-4 4,0 6,1 8,3 2,2 3,5 3,8zm-6 0c0,-4 -2,-6 -5,-6 -4,0 -6,2 -6,6l11 0zm34 15l-7 0c0,0 0,-1 -1,-1 -1,-4 -2,-6 -3,-8 -1,-1 -2,-1 -4,-1 0,0 -1,0 -2,0 0,3 1,6 1,10l-7 0c0,-3 0,-7 0,-12 0,-5 0,-9 -1,-13l8 0c0,3 -1,6 -1,10 1,0 2,0 2,0 3,0 6,-3 7,-9 0,0 0,0 1,-1l6 0c0,1 0,1 -1,2 -2,6 -4,9 -7,10l0 0c2,1 4,2 5,3 1,2 2,4 3,7 0,1 1,2 1,3zm26 0l-7 0c0,-3 0,-7 0,-12 0,-3 0,-5 0,-8l-3 0c0,1 -1,3 -1,5 -1,1 -2,3 -2,4 -1,2 -2,3 -3,5 0,1 -1,2 -2,3 -1,1 -2,2 -3,3 -1,0 -2,0 -3,1l0 -7c0,0 1,0 1,-1 1,0 1,-1 2,-2 1,-1 1,-2 2,-3 1,-1 1,-3 2,-4 0,-1 1,-3 2,-4 0,-2 1,-3 1,-5l9 0 5 0c0,3 -1,7 -1,13 0,4 1,8 1,12zm27 0l-6 0c0,0 -1,-1 -1,-2l0 0c-2,2 -4,3 -8,3 -2,0 -4,-1 -5,-2 -2,-1 -2,-3 -2,-5 0,-3 1,-5 3,-6 2,-2 6,-3 12,-3 0,-1 0,-1 0,-1 0,-2 -1,-3 -1,-4 -1,0 -3,-1 -5,-1 -3,0 -6,1 -8,1l0 -5c3,0 6,-1 10,-1 4,0 6,1 8,2 2,2 2,4 2,7 0,1 0,2 0,4 0,2 0,3 0,4 0,4 0,7 1,9zm-7 -5c0,-3 0,-5 0,-7 -6,0 -9,2 -9,5 0,2 1,3 4,3 2,0 4,0 5,-1zm37 -8c0,3 -1,7 -3,10 -2,2 -5,4 -9,4 -3,0 -4,-1 -6,-2l0 0c0,4 0,9 0,13l-7 0c1,-5 1,-11 1,-17 0,-9 -1,-15 -2,-20l7 0 0 2 1 0c2,-2 4,-3 8,-3 3,0 6,1 7,4 2,2 3,5 3,9zm-7 0c0,-2 0,-4 -1,-6 -1,-1 -3,-2 -5,-2 -2,0 -4,1 -5,2 0,5 0,10 0,14 1,1 3,1 5,1 2,0 4,-1 5,-3 1,-1 1,-3 1,-6zm34 13l-7 0c0,0 0,-1 0,-2l0 0c-2,2 -5,3 -8,3 -2,0 -4,-1 -6,-2 -1,-1 -2,-3 -2,-5 0,-3 1,-5 4,-6 2,-2 6,-3 11,-3 0,-1 0,-1 0,-1 0,-2 0,-3 -1,-4 -1,0 -3,-1 -5,-1 -3,0 -5,1 -8,1l1 -5c2,0 6,-1 10,-1 3,0 6,1 7,2 2,2 3,4 3,7 0,1 0,2 0,4 0,2 0,3 0,4 0,4 0,7 1,9zm-7 -5c-1,-3 -1,-5 -1,-7 -6,0 -9,2 -9,5 0,2 2,3 4,3 2,0 4,0 6,-1zm38 0c0,1 -1,3 -1,7 -1,4 -1,7 -1,9l-5 0c0,-2 0,-6 0,-11l-19 0c0,-4 0,-8 0,-12 0,-5 0,-9 -1,-13l8 0c-1,3 -1,7 -1,13 0,2 0,4 0,7l9 0c0,-2 0,-5 0,-7 0,-5 -1,-9 -1,-13l7 0c0,3 0,7 0,13 0,2 0,5 0,7l5 0zm11 5l-7 0c0,-4 0,-8 0,-12 0,-5 0,-9 -1,-13l8 0c0,3 -1,7 -1,13 0,4 1,8 1,12zm1 -33c0,1 0,2 -1,3 -1,1 -2,2 -4,2 -1,0 -2,-1 -2,-2 -1,0 -1,-1 -1,-2 0,-1 0,-3 1,-3 1,-1 2,-2 3,-2 1,0 2,1 3,1 1,1 1,2 1,3zm12 33l-7 0c0,-4 1,-8 1,-12 0,-5 -1,-9 -1,-13l7 0c0,3 0,7 0,13 0,4 0,8 0,12zm6 -33c0,1 -1,2 -1,3 -1,1 -2,1 -3,1 -1,0 -2,0 -3,-1 0,-1 -1,-1 -1,-2 0,-1 1,-2 1,-3 1,-1 2,-1 3,-1 1,0 2,0 3,1 0,1 1,1 1,2zm-11 0c0,1 0,2 -1,3 0,1 -1,1 -3,1 -1,0 -2,0 -2,-1 -1,-1 -1,-1 -1,-2 0,-1 0,-2 1,-3 1,-1 2,-1 3,-1 1,0 2,0 2,1 1,1 1,1 1,2zm20 28c0,2 -1,3 -2,4 -1,1 -2,1 -3,1 -2,0 -3,0 -3,-1 -1,-1 -2,-2 -2,-3 0,-1 1,-2 2,-3 1,-1 2,-2 3,-2 2,0 3,1 4,2 0,0 1,1 1,2z"/>
  </g>
 </g>
</svg>
