<?xml version="1.0" encoding="UTF-8"?>
<!DOCTYPE svg PUBLIC "-//W3C//DTD SVG 1.1//EN" "http://www.w3.org/Graphics/SVG/1.1/DTD/svg11.dtd">
<!-- Creator: CorelDRAW X7 -->
<svg xmlns="http://www.w3.org/2000/svg" xml:space="preserve" width="8.5233mm" height="12.9871mm" version="1.1" style="shape-rendering:geometricPrecision; text-rendering:geometricPrecision; image-rendering:optimizeQuality; fill-rule:evenodd; clip-rule:evenodd"
viewBox="0 0 87 132"
 xmlns:xlink="http://www.w3.org/1999/xlink">
 <defs>
  <style type="text/css">
   <![CDATA[
    .fil0 {fill:#FEFEFE;fill-rule:nonzero}
   ]]>
  </style>
 </defs>
 <g id="Слой_x0020_1">
  <metadata id="CorelCorpID_0Corel-Layer"/>
  <path class="fil0" d="M0 3l0 2 2 0 0 7 2 0 0 -7 2 0 0 -2 -6 0zm13 4c0,-2 0,-4 -3,-4 -1,0 -2,1 -3,1l1 2c0,-1 1,-1 1,-1 1,0 2,0 2,1l0 0c-2,0 -4,1 -4,4 0,1 1,2 2,2 1,0 1,0 2,-1l0 0 0 1 2 0c0,0 0,-1 0,-2l0 -3zm-2 2c0,1 0,1 0,1 -1,0 -1,1 -1,1 -1,0 -1,-1 -1,-2 0,-1 1,-1 2,-1l0 1zm10 -6c-2,0 -4,2 -4,5 0,3 1,4 4,4 1,0 3,-1 3,-4 0,-3 -1,-5 -3,-5zm0 2c0,0 1,2 1,3 0,1 -1,3 -1,3 -1,0 -2,-2 -2,-3 0,-1 1,-3 2,-3zm3 -2l0 2 2 0 0 7 3 0 0 -7 2 0 0 -2 -7 0zm8 13l2 0 0 -5 0 0c0,1 1,1 1,1 2,0 3,-1 3,-4 0,-3 0,-5 -2,-5 -1,0 -2,1 -2,1l0 0 0 -1 -2 0c0,1 0,2 0,3l0 10zm2 -9c0,-1 0,-1 0,-1 0,0 1,-1 1,-1 1,0 1,1 1,3 0,1 0,2 -1,2 0,0 -1,0 -1,0 0,0 0,-1 0,-1l0 -2zm6 -4l0 9 2 0c0,-1 1,-3 1,-3 1,-1 1,-2 1,-3l0 0c0,1 0,2 0,4l0 2 2 0 0 -9 -2 0 -1 4c-1,0 -1,1 -1,2l0 0c0,-1 0,-2 0,-4l0 -2 -2 0zm8 9l2 0 0 -3c0,-1 0,-2 0,-4l0 0c0,1 0,3 1,4l0 3 2 0 1 -3c0,-1 1,-3 1,-4l0 0c0,2 0,3 0,4l0 3 2 0 -1 -9 -2 0 -1 3c0,1 0,2 -1,3l0 0c0,-1 0,-2 0,-3l-1 -3 -3 0 0 9zm16 -5c0,-2 0,-4 -3,-4 -1,0 -2,1 -2,1l0 2c1,-1 1,-1 2,-1 1,0 1,0 1,1l0 0c-2,0 -4,1 -4,4 0,1 1,2 2,2 1,0 2,0 2,-1l0 0 0 1 3 0c-1,0 -1,-1 -1,-2l0 -3zm-2 2c0,1 0,1 0,1 0,0 -1,1 -1,1 0,0 -1,-1 -1,-2 0,-1 1,-1 2,-1l0 1zm4 -6l0 9 2 0c1,-1 1,-3 2,-3 0,-1 0,-2 1,-3l0 0c0,1 -1,2 -1,4l0 2 3 0 0 -9 -3 0 -1 4c0,0 -1,1 -1,2l0 0c0,-1 0,-2 0,-4l0 -2 -2 0zm1 -3c0,1 1,2 2,2 2,0 2,-1 3,-2l-2 0c0,1 0,1 -1,1 0,0 -1,0 -1,-1l-1 0zm6 3l0 2 2 0 0 7 3 0 0 -7 2 0 0 -2 -7 0zm14 6c0,-1 0,-1 0,-2 0,-2 -1,-4 -3,-4 -2,0 -4,2 -4,5 0,3 1,4 4,4 1,0 2,0 2,0l0 -2c0,0 -1,0 -2,0 -1,0 -2,0 -2,-1l5 0zm-5 -2c0,-1 1,-2 2,-2 0,0 1,1 1,2l-3 0zm-73 16c-1,0 -2,0 -3,0 -1,1 -2,1 -3,2 -1,2 -1,3 -1,5 0,3 1,6 4,6 2,0 3,-2 3,-5 0,-3 -1,-4 -3,-4 -1,0 -1,0 -2,1l0 0c0,0 0,-1 1,-1 0,-1 1,-2 2,-2 0,0 1,0 1,0l1 -2zm-2 8c0,1 0,3 -1,3 -1,0 -2,-2 -2,-3 0,0 0,-1 1,-2 0,0 0,0 1,0 1,0 1,1 1,2zm10 1c0,0 0,-1 0,-1 0,-3 -1,-4 -3,-4 -2,0 -4,1 -4,4 0,3 2,5 4,5 1,0 2,-1 2,-1l0 -2c0,1 -1,1 -2,1 -1,0 -1,-1 -2,-2l5 0zm-5 -2c1,-1 1,-2 2,-2 0,0 1,1 1,2l-3 0zm7 2l1 0c0,0 1,0 1,1 0,0 0,1 -1,1 -1,0 -2,0 -2,0l0 1c0,0 1,1 2,1 2,0 4,-1 4,-3 0,-1 -1,-2 -2,-2l0 0c1,-1 1,-1 1,-2 0,-1 -1,-2 -3,-2 -1,0 -2,0 -2,0l0 2c1,-1 1,-1 2,-1 0,0 1,1 1,1 0,1 -1,1 -1,1l-1 0 0 2zm6 -5l0 8 2 0 0 -3 0 0c1,0 1,0 2,1 0,1 0,2 0,2l3 0c-1,0 -1,-1 -1,-2 0,-1 -1,-2 -2,-3l2 -3 -2 0 -2 3 0 0 0 -3 -2 0zm10 0c-1,0 -3,1 -3,4 0,3 1,5 3,5 2,0 4,-1 4,-5 0,-3 -2,-4 -4,-4zm0 1c1,0 1,2 1,3 0,1 0,3 -1,3 -1,0 -1,-1 -1,-3 0,-1 0,-3 1,-3zm5 -1l0 8 10 0 0 -8 -2 0 0 7 -2 0 0 -7 -2 0 0 7 -2 0 0 -7 -2 0zm11 0l0 2 2 0 0 6 2 0 0 -6 2 0 0 -2 -6 0zm10 0c-1,0 -3,1 -3,4 0,3 1,5 3,5 2,0 4,-1 4,-5 0,-3 -2,-4 -4,-4zm0 1c1,0 1,2 1,3 0,1 0,3 -1,3 -1,0 -1,-1 -1,-3 0,-1 0,-3 1,-3zm5 7c0,1 1,1 2,1 2,0 5,-1 5,-3 0,-1 -1,-2 -2,-2l0 0c1,0 1,-1 1,-2 0,-2 -2,-2 -4,-2 0,0 -1,0 -2,0l0 8zm2 -7c0,0 1,0 1,0 1,0 1,0 1,1 0,1 -1,1 -1,1l-1 0 0 -2zm0 4l1 0c1,0 1,0 1,1 0,1 0,1 -1,1 0,0 -1,0 -1,0l0 -2zm6 -5l0 8 2 0 0 -3 2 0 0 3 3 0 0 -8 -3 0 0 3 -2 0 0 -3 -2 0zm11 8l0 -8 -3 0 0 8 3 0zm-2 -12c0,0 -1,1 -1,1 0,1 1,2 1,2 1,0 2,-1 2,-2 0,0 -1,-1 -2,-1zm-66 36l2 0 0 -3c0,-1 0,-2 0,-4l0 0c0,1 0,3 1,4l0 3 2 0 1 -3c0,-2 1,-3 1,-4l0 0c0,2 0,3 0,4l0 3 2 0 0 -9 -3 0 -1 3c0,1 0,1 -1,2l0 0c0,-1 0,-1 0,-2l-1 -3 -3 0 0 9zm17 -4c0,0 0,0 0,-1 0,-3 -1,-4 -3,-4 -2,0 -4,2 -4,5 0,2 1,4 4,4 1,0 2,0 2,-1l0 -1c0,0 -1,0 -2,0 -1,0 -2,0 -2,-2l5 0zm-5 -1c0,-1 1,-2 2,-2 0,0 1,0 1,2l-3 0zm7 -4l0 2c0,1 0,2 0,3 -1,1 -1,2 -1,2l-1 0 0 4 2 0 0 -2 4 0 1 2 1 0 0 -4 0 0 0 -7 -6 0zm2 2l1 0 0 5 -2 0c0,-1 1,-1 1,-2 0,-1 0,-2 0,-2l0 -1zm5 -2l0 9 3 0c0,-1 1,-3 1,-4 0,0 1,-1 1,-2l0 0c0,1 0,2 0,4l0 2 2 0 0 -9 -2 0 -2 3c0,1 0,2 -1,3l0 0c1,-1 1,-3 1,-4l0 -2 -3 0zm8 0l0 3c0,2 1,3 3,3 1,0 1,0 2,0l0 0 0 3 2 0 0 -9 -2 0 0 4c-1,0 -1,0 -1,0 -1,0 -1,0 -1,-1l0 -3 -3 0zm9 0l0 9 2 0 0 -4 2 0 0 4 2 0 0 -9 -2 0 0 3 -2 0 0 -3 -2 0zm10 9l0 -9 -2 0 0 9 2 0zm-1 -13c-1,0 -1,1 -1,2 0,0 0,1 1,1 1,0 1,-1 1,-1 0,-1 0,-2 -1,-2zm-50 27l0 9 2 0 0 -7 2 0 0 7 2 0 0 -9 -6 0zm11 0c-2,0 -3,2 -3,5 0,3 1,4 3,4 1,0 3,-1 3,-4 0,-3 -1,-5 -3,-5zm0 2c1,0 1,1 1,3 0,1 0,2 -1,2 -1,0 -1,-1 -1,-2 0,-2 0,-3 1,-3zm9 5c0,0 0,0 -1,0 -1,0 -1,-1 -1,-2 0,-2 0,-3 2,-3 0,0 0,0 0,0l1 -2c-1,0 -1,0 -2,0 -2,0 -4,2 -4,5 0,3 2,4 4,4 1,0 1,0 2,0l-1 -2zm2 -7l0 4c0,1 0,2 0,3 0,0 0,0 -1,0l1 2c0,0 0,0 1,0 1,-1 2,-3 2,-5l0 -2 1 0 0 7 2 0 0 -9 -6 0zm7 0l2 8c1,1 1,1 1,1 0,0 0,0 -1,0 0,0 0,1 0,1 -1,0 -1,1 -1,1l0 2c1,0 1,-1 2,-1 1,-2 2,-3 2,-5l2 -7 -2 0 -1 5c0,0 0,1 0,1l0 0c0,0 0,-1 -1,-1l0 -5 -3 0zm8 0l0 9 2 0 0 -7 3 0 0 -2 -5 0zm6 0l0 9 2 0c0,-1 1,-3 1,-3 1,-1 1,-2 1,-3l0 0c0,1 0,2 0,4l0 2 2 0 0 -9 -2 0 -1 4c-1,0 -1,1 -1,2l0 0c0,-1 0,-2 0,-4l0 -2 -2 0zm-45 24l2 8c0,0 0,0 0,0 0,0 0,0 0,0 0,1 0,1 -1,1 0,1 0,1 -1,1l1 2c0,0 1,0 2,-1 1,-1 1,-3 2,-5l2 -6 -3 0 0 4c0,1 0,1 -1,2l0 0c0,-1 0,-1 0,-2l-1 -4 -2 0zm10 8l2 0 0 -3c0,-1 0,-2 0,-3l1 0c0,0 0,2 0,3l1 3 2 0 1 -3c0,-1 0,-3 0,-3l0 0c0,1 0,2 0,3l0 3 3 0 -1 -8 -3 0 0 2c-1,1 -1,2 -1,3l0 0c0,-1 0,-2 -1,-3l0 -2 -3 0 -1 8zm17 -3c0,0 0,-1 0,-1 0,-3 -1,-5 -3,-5 -2,0 -3,2 -3,5 0,3 1,4 3,4 1,0 2,0 3,0l-1 -2c0,1 -1,1 -1,1 -1,0 -2,-1 -2,-2l4 0zm-4 -2c0,-1 0,-2 1,-2 1,0 1,1 1,2l-2 0zm5 -3l2 3c-1,1 -1,2 -2,3 0,1 0,2 0,2l2 0c0,0 0,-1 1,-2 0,-1 0,-1 1,-1l0 0 0 3 2 0 0 -3 0 0c1,0 1,0 1,1 1,1 1,2 1,2l2 0c0,0 0,-1 0,-2 -1,-1 -1,-2 -2,-3l2 -3 -2 0 -2 3 0 0 0 -3 -2 0 0 3 0 0 -2 -3 -2 0zm17 3c0,-2 0,-4 -3,-4 -1,0 -2,1 -2,1l0 2c0,-1 1,-1 2,-1 1,0 1,1 1,1l0 1c-2,0 -4,1 -4,3 0,1 1,2 2,2 1,0 2,0 2,-1l0 0 0 1 2 0c0,0 0,-1 0,-2l0 -3zm-2 3c0,0 0,0 0,0 0,1 -1,1 -1,1 0,0 -1,-1 -1,-1 0,-2 1,-2 2,-2l0 2zm3 -6l2 4 -2 4 3 0 0 -1c0,-1 0,-1 1,-2l0 0c0,1 0,1 0,2l1 1 2 0 -2 -4 2 -4 -2 0 -1 1c0,1 0,1 0,2l0 0c0,-1 0,-1 -1,-2l0 -1 -3 0zm-55 23l0 2c0,1 0,2 -1,3 0,1 0,1 0,2l-1 0 0 4 2 0 0 -2 4 0 0 2 2 0 0 -4 -1 0 0 -7 -5 0zm2 2l1 0 0 5 -2 0c0,-1 0,-1 0,-2 1,-1 1,-2 1,-3l0 0zm11 3c0,0 0,-1 0,-1 0,-3 -1,-4 -3,-4 -2,0 -3,1 -3,4 0,3 1,5 4,5 0,0 1,0 2,-1l0 -1c-1,0 -1,0 -2,0 -1,0 -2,-1 -2,-2l4 0zm-4 -2c0,0 0,-2 1,-2 1,0 1,1 1,2l-2 0zm6 -3l0 9 2 0 0 -4 0 0c1,0 1,1 1,2 0,0 1,1 1,2l2 0c0,-1 0,-2 -1,-3 0,-1 0,-2 -1,-2l2 -4 -2 0 -2 3 0 0 0 -3 -2 0zm8 0l0 4c0,1 0,2 -1,2 0,1 0,1 0,1l0 2c0,0 1,0 1,0 2,-1 2,-3 2,-5l0 -2 1 0 0 7 3 0 0 -9 -6 0zm13 3c0,-1 0,-3 -3,-3 -1,0 -2,0 -3,0l1 2c0,0 1,-1 2,-1 0,0 1,1 1,2l0 0c-2,0 -4,1 -4,3 0,2 1,3 2,3 1,0 2,-1 2,-1l0 0 0 1 2 0c0,-1 0,-2 0,-2l0 -4zm-2 3c0,0 0,0 0,0 0,1 -1,1 -1,1 0,0 -1,0 -1,-1 0,-1 1,-2 2,-2l0 2zm4 6l2 0 0 -4 0 0c0,0 1,1 2,1 1,0 3,-2 3,-5 0,-2 -1,-4 -3,-4 -1,0 -2,0 -2,1l0 0 0 -1 -2 0c0,1 0,2 0,3l0 9zm2 -9c0,0 0,0 0,-1 0,0 1,0 1,0 1,0 1,1 1,2 0,2 0,3 -1,3 0,0 0,0 -1,-1 0,0 0,0 0,-1l0 -2zm12 0c0,-1 -1,-3 -3,-3 -2,0 -3,0 -3,0l0 2c1,0 1,-1 2,-1 1,0 1,1 1,2l0 0c-2,0 -4,1 -4,3 0,2 1,3 3,3 0,0 1,-1 2,-1l0 0 0 1 2 0c0,-1 0,-2 0,-2l0 -4zm-3 3c0,0 0,0 0,0 0,1 0,1 -1,1 0,0 0,0 0,-1 0,-1 1,-2 1,-2l0 2zm4 -6l0 9 6 0 0 2 2 0 0 -4 -1 0 0 -7 -2 0 0 7 -2 0 0 -7 -3 0zm11 9l0 -9 -2 0 0 9 2 0zm-1 -13c-1,0 -1,1 -1,2 0,0 0,1 1,1 1,0 1,-1 1,-1 0,-1 0,-2 -1,-2zm5 13l0 -9 -2 0 0 9 2 0zm-3 -10c1,0 2,-1 2,-2 0,0 -1,-1 -2,-1 0,0 -1,1 -1,1 0,1 1,2 1,2zm4 0c0,0 1,-1 1,-2 0,0 -1,-1 -1,-1 -1,0 -1,1 -1,1 0,1 0,2 1,2zm2 10c1,0 2,-1 2,-2 0,-1 -1,-1 -2,-1 0,0 -1,0 -1,1 0,1 1,2 1,2z"/>
 </g>
</svg>
