<?xml version="1.0" encoding="UTF-8"?>
<!DOCTYPE svg PUBLIC "-//W3C//DTD SVG 1.1//EN" "http://www.w3.org/Graphics/SVG/1.1/DTD/svg11.dtd">
<!-- Creator: CorelDRAW X7 -->
<svg xmlns="http://www.w3.org/2000/svg" xml:space="preserve" width="10.9627mm" height="14.5563mm" version="1.1" style="shape-rendering:geometricPrecision; text-rendering:geometricPrecision; image-rendering:optimizeQuality; fill-rule:evenodd; clip-rule:evenodd"
viewBox="0 0 149 198"
 xmlns:xlink="http://www.w3.org/1999/xlink">
 <defs>
  <style type="text/css">
   <![CDATA[
    .fil0 {fill:#FEFEFE;fill-rule:nonzero}
   ]]>
  </style>
 </defs>
 <g id="Слой_x0020_1">
  <metadata id="CorelCorpID_0Corel-Layer"/>
  <path class="fil0" d="M22 17l3 0 0 -5c0,-1 0,-2 0,-5l0 0c1,2 1,4 1,5l1 4 3 0 1 -4c0,-1 0,-4 1,-5l0 0c0,3 0,4 0,5l0 5 3 0 -1 -12 -4 0 -1 4c0,1 0,2 0,3l0 0c-1,-2 -1,-2 -1,-3l-1 -4 -4 0 -1 12zm17 0c1,0 1,-1 1,-2 0,-2 0,-2 -1,-2 -1,0 -2,0 -2,2 0,1 1,2 2,2zm7 -17l0 6c0,3 1,5 4,5 1,0 2,0 2,-1l0 0 0 7 4 0 0 -17 -4 0 0 8c0,0 0,0 -1,0 -1,0 -2,-1 -2,-2l0 -6 -3 0zm20 12c0,-1 0,-1 0,-2 0,-3 -1,-5 -4,-5 -2,0 -4,2 -4,6 0,4 1,6 4,6 2,0 3,-1 4,-1l-1 -2c0,0 -1,0 -2,0 -1,0 -2,0 -2,-2l5 0zm-5 -2c0,-2 0,-3 1,-3 1,0 1,1 1,3l-2 0zm7 11l3 0 0 -5 0 0c0,0 1,1 2,1 2,0 4,-2 4,-6 0,-4 -1,-6 -4,-6 -1,0 -2,0 -2,1l0 0 0 -1 -3 0c0,1 0,2 0,4l0 12zm3 -12c0,0 0,-1 0,-1 0,0 1,-1 1,-1 1,0 2,1 2,4 0,2 -1,3 -2,3 0,0 -1,0 -1,-1 0,0 0,0 0,-1l0 -3zm8 -4l0 12 3 0 0 -5 2 0 0 5 3 0 0 -12 -3 0 0 4 -2 0 0 -4 -3 0zm14 12l0 -12 -3 0 0 12 3 0zm-2 -17c-1,0 -1,1 -1,2 0,1 0,1 1,1 1,0 2,0 2,-1 0,-1 -1,-2 -2,-2zm4 17c1,0 2,0 3,0 2,0 6,-1 6,-4 0,-1 -1,-2 -3,-3l0 0c1,0 3,-1 3,-2 0,-3 -4,-3 -6,-3 -1,0 -2,0 -3,0l0 12zm3 -10c0,0 0,0 1,0 1,0 2,0 2,1 0,1 -1,1 -2,1l-1 0 0 -2zm0 4l1 0c1,0 2,1 2,2 0,1 -1,2 -2,2 -1,0 -1,0 -1,0l0 -4zm8 -6l0 12 7 0 0 3 2 0 1 -6 -2 0 0 -9 -3 0 0 9 -2 0 0 -9 -3 0zm14 12l0 -12 -3 0 0 12 3 0zm-2 -17c0,0 -1,1 -1,2 0,1 1,1 1,1 1,0 2,0 2,-1 0,-1 -1,-2 -2,-2zm5 19c1,-1 2,-4 3,-6l-3 0c0,2 -1,5 -2,7l2 -1zm-90 12l0 16 3 0 0 -14 3 0 0 14 3 0 0 -16 -9 0zm20 9c0,-3 -1,-5 -5,-5 -1,0 -3,0 -3,1l0 2c1,-1 2,-1 3,-1 1,0 1,1 1,2l0 0c-2,0 -5,1 -5,4 0,2 1,4 3,4 1,0 2,-1 3,-1l0 0 0 1 3 0c0,-1 0,-2 0,-3l0 -4zm-4 3c0,0 0,0 0,1 0,0 0,1 -1,1 0,0 -1,-1 -1,-2 0,-2 1,-2 2,-2l0 2zm6 8l3 0 0 -5 0 0c0,0 1,1 2,1 2,0 4,-2 4,-6 0,-3 -1,-6 -4,-6 -1,0 -2,0 -2,1l0 0 -1 -1 -2 0c0,1 0,2 0,4l0 12zm3 -12c0,0 0,0 0,-1 0,0 1,-1 1,-1 1,0 2,2 2,4 0,2 -1,3 -2,3 0,0 -1,0 -1,-1 0,0 0,0 0,-1l0 -3zm7 -4l0 12 4 0 0 -5 0 0c1,0 1,1 1,2 1,1 1,2 1,3l3 0c0,-1 -1,-3 -1,-4 0,-1 -1,-3 -2,-3l3 -5 -3 0 -2 5 0 0 0 -5 -4 0zm14 0c-2,0 -4,2 -4,6 0,4 1,6 4,6 2,0 5,-1 5,-6 0,-4 -2,-6 -5,-6zm0 2c1,0 2,2 2,4 0,2 -1,3 -2,3 -1,0 -1,-1 -1,-3 0,-2 0,-4 1,-4zm6 10c1,0 2,0 3,0 3,0 7,-1 7,-4 0,-1 -1,-2 -3,-3l0 0c1,0 2,-1 2,-2 0,-3 -3,-3 -5,-3 -1,0 -3,0 -4,0l0 12zm4 -10c0,0 0,0 0,0 1,0 2,0 2,1 0,1 -1,2 -2,2l0 0 0 -3zm-1 5l1 0c1,0 2,0 2,1 0,1 -1,2 -2,2 0,0 0,0 -1,0l0 -3zm8 -7l0 12 3 0c1,-2 2,-4 2,-5 1,-1 1,-2 1,-3l0 0c0,1 0,3 0,5l0 3 3 0 0 -12 -3 0 -2 4c0,1 -1,3 -1,4l0 0c0,-1 0,-3 0,-5l0 -3 -3 0zm11 0l0 12 3 0c1,-2 2,-4 2,-5 0,-1 1,-2 1,-3l0 0c0,1 0,3 0,5l0 3 3 0 0 -12 -3 0 -2 4c0,1 -1,3 -1,4l0 0c0,-1 0,-3 0,-5l0 -3 -3 0zm1 -5c1,2 2,3 3,3 2,0 3,-1 4,-3l-2 0c0,1 -1,2 -2,2 0,0 -1,-1 -1,-2l-2 0zm-71 35l0 12 3 0 0 -9 2 0 0 9 3 0 0 -12 -8 0zm10 16l4 0 0 -5 0 0c0,0 1,1 2,1 2,0 3,-2 3,-6 0,-3 -1,-6 -3,-6 -1,0 -2,1 -3,1l0 0 0 -1 -3 0c0,1 0,2 0,4l0 12zm4 -12c0,0 0,0 0,0 0,-1 0,-1 1,-1 1,0 1,1 1,3 0,2 0,3 -1,3 -1,0 -1,0 -1,0 0,-1 0,-1 0,-1l0 -4zm11 -4c-2,0 -4,2 -4,6 0,4 1,6 4,6 2,0 5,-1 5,-6 0,-4 -2,-6 -5,-6zm0 2c1,0 2,2 2,4 0,2 -1,4 -2,4 -1,0 -1,-2 -1,-4 0,-2 0,-4 1,-4zm10 10l0 -12 -3 0 0 12 3 0zm-4 -14c1,0 1,0 1,-1 0,-1 0,-2 -1,-2 -1,0 -1,1 -1,2 0,1 0,1 1,1zm4 0c1,0 2,0 2,-1 0,-1 -1,-2 -2,-2 -1,0 -1,1 -1,2 0,1 0,1 1,1zm3 9l1 0c1,0 2,0 2,1 0,1 -1,2 -2,2 -1,0 -2,0 -3,-1l0 2c1,1 2,1 3,1 3,0 5,-1 5,-4 0,-1 -1,-2 -3,-2l0 0c2,-1 3,-2 3,-3 0,-2 -2,-3 -4,-3 -2,0 -3,0 -4,1l1 2c0,-1 1,-1 2,-1 1,0 2,1 2,1 0,1 -1,2 -2,2l-1 0 0 2zm9 -7l0 3c0,2 0,3 0,4 0,1 -1,2 -1,3l-1 0 0 5 2 0 1 -3 5 0 0 3 3 0 0 -5 -1 0 0 -10 -8 0zm3 3l2 0 0 6 -3 0c0,0 0,-1 1,-2 0,-1 0,-2 0,-3l0 -1zm8 12c1,-2 2,-5 3,-7l-3 0c0,2 -1,5 -2,7l2 0zm8 -4c1,1 2,1 3,1 4,0 5,-2 5,-5 0,-2 -1,-3 -2,-4l0 0c1,0 2,-2 2,-3 0,-2 -1,-4 -4,-4 -1,0 -3,1 -3,1l0 2c1,0 1,0 2,0 1,0 2,0 2,1 0,2 -2,2 -3,2l0 0 0 3 0 0c2,0 3,1 3,2 0,2 -1,2 -2,2 -1,0 -2,0 -2,0l-1 2zm-95 61l3 0 0 -4c0,-1 0,-2 0,-5l0 0c0,1 1,4 1,5l1 4 3 0 1 -4c0,-2 0,-4 0,-5l1 0c0,3 0,4 0,5l0 4 3 0 -1 -12 -4 0 -1 4c0,1 0,2 0,4l-1 0c0,-2 0,-3 0,-4l-1 -4 -4 0 -1 12zm16 0c2,0 2,0 2,-2 0,-1 -1,-2 -2,-2 -1,0 -1,1 -1,2 0,2 0,2 1,2zm8 -16l0 16 3 0 0 -7 4 0 0 7 3 0 0 -16 -3 0 0 7 -4 0 0 -7 -3 0zm16 4c-2,0 -4,2 -4,6 0,4 1,6 4,6 2,0 5,-1 5,-6 0,-3 -2,-6 -5,-6zm0 3c1,0 2,2 2,3 0,2 -1,4 -2,4 -1,0 -1,-2 -1,-4 0,-1 0,-3 1,-3zm6 9c1,0 2,0 3,0 3,0 7,0 7,-3 0,-2 -1,-3 -3,-3l0 0c1,0 2,-1 2,-3 0,-2 -3,-3 -5,-3 -1,0 -3,0 -4,1l0 11zm4 -10c0,0 0,0 0,0 1,0 2,1 2,2 0,1 -1,1 -2,1l0 0 0 -3zm-1 5l1 0c1,0 2,1 2,2 0,1 -1,1 -2,1 0,0 0,0 -1,0l0 -3zm12 -7c-2,0 -4,2 -4,6 0,4 2,6 4,6 2,0 5,-1 5,-6 0,-3 -2,-6 -5,-6zm0 3c1,0 2,2 2,3 0,2 -1,4 -2,4 -1,0 -1,-2 -1,-4 0,-1 0,-3 1,-3zm13 7c-1,0 -1,0 -1,0 -2,0 -3,-2 -3,-4 0,-2 1,-3 3,-3 0,0 1,0 1,0l0 -2c0,-1 -1,-1 -1,-1 -4,0 -6,3 -6,6 0,4 2,6 5,6 1,0 2,0 2,0l0 -2zm9 -3c0,0 1,0 1,-1 0,-4 -2,-6 -4,-6 -3,0 -5,3 -5,7 0,3 2,5 5,5 1,0 2,0 3,0l0 -2c-1,0 -2,0 -3,0 -1,0 -2,-1 -2,-3l5 0zm-5 -2c0,-1 0,-2 1,-2 1,0 2,1 2,2l-3 0zm8 -5l0 6c0,1 0,2 -1,3 0,0 0,1 -1,1l1 2c0,0 1,0 1,0 2,-1 3,-3 3,-6l0 -3 1 0 0 9 4 0 0 -12 -8 0zm10 0l0 12 3 0c0,-1 1,-4 2,-4 0,-1 0,-2 1,-4l0 0c0,2 0,3 0,6l0 2 2 0 0 -12 -2 0 -2 5c-1,1 -1,2 -2,3l0 0c0,-1 1,-3 1,-5l0 -3 -3 0zm11 0l0 12 7 0 0 3 2 0 0 -5 -1 0 0 -10 -3 0 0 10 -2 0 0 -10 -3 0zm19 1c0,-1 -2,-1 -3,-1 -2,0 -3,1 -4,1 -1,1 -1,2 -1,3 0,1 1,2 2,3l0 0c0,0 -1,0 -1,0 -1,1 -1,3 -1,4 -1,0 -1,1 -1,1l3 0c0,0 1,0 1,-1 0,-1 0,-3 1,-3 0,0 1,0 1,0l0 0 0 4 3 0 0 -11zm-3 5c0,0 0,0 0,0 -1,0 -2,-1 -2,-2 0,-1 1,-2 2,-2 0,0 0,0 0,0l0 4zm7 9c1,-2 2,-4 2,-6l-3 0c0,2 -1,4 -1,6l2 0zm-138 27c1,0 2,0 3,0 2,0 6,0 6,-3 0,-1 -1,-3 -3,-3l0 0c2,0 3,-1 3,-3 0,-2 -4,-3 -6,-3 -1,0 -2,1 -3,1l0 11zm3 -9c0,0 1,-1 1,-1 1,0 2,1 2,2 0,1 -1,1 -2,1l-1 0 0 -2zm0 4l1 0c1,0 2,1 2,2 0,1 -1,1 -2,1 0,0 -1,0 -1,0l0 -3zm6 -6l4 10c0,1 0,1 0,1 0,0 0,0 0,0 -1,1 -1,1 -1,2 -1,0 -1,1 -2,1l1 2c1,0 2,0 3,-1 1,-2 2,-4 2,-6l3 -9 -3 0 -1 6c0,0 -1,1 -1,2l0 0c0,-1 0,-2 0,-2l-1 -6 -4 0zm11 0l0 5c0,1 0,3 0,3 -1,1 -1,1 -1,1l0 3c1,0 1,-1 2,-1 2,-1 2,-3 2,-6l0 -3 2 0 0 9 3 0 0 -11 -8 0zm12 12c1,0 2,-1 2,-3 0,-1 -1,-2 -2,-2 -1,0 -2,1 -2,2 0,2 1,3 2,3zm8 -17l0 16 8 0 0 4 2 0 1 -6 -2 0 0 -14 -3 0 0 14 -3 0 0 -14 -3 0zm20 12c0,-1 0,-1 0,-2 0,-4 -1,-6 -4,-6 -2,0 -4,3 -4,7 0,3 1,5 5,5 1,0 2,0 3,0l-1 -2c0,0 -1,0 -2,0 -1,0 -2,-1 -2,-2l5 0zm-5 -3c0,-1 0,-2 1,-2 1,0 1,1 1,2l-2 0zm7 -4l0 11 3 0 0 -4 3 0 0 4 3 0 0 -11 -3 0 0 4 -3 0 0 -4 -3 0zm10 0l0 2 3 0 0 9 3 0 0 -9 2 0 0 -2 -8 0zm10 16l3 0 0 -6 0 0c0,1 1,2 2,2 2,0 4,-2 4,-7 0,-3 -1,-6 -4,-6 -1,0 -2,1 -2,2l-1 0 0 -1 -2 0c0,1 0,2 0,3l0 13zm3 -12c0,0 0,-1 0,-1 0,0 1,-1 1,-1 1,0 1,1 1,4 0,1 0,3 -1,3 0,0 -1,0 -1,-1 0,0 0,-1 0,-1l0 -3zm15 0c0,-2 0,-5 -4,-5 -2,0 -3,1 -4,1l1 2c1,0 2,0 2,0 2,0 2,0 2,1l0 1c-3,0 -5,1 -5,4 0,2 1,4 3,4 1,0 2,-1 2,-2l0 0 1 1 2 0c0,0 0,-1 0,-2l0 -5zm-3 4c0,0 0,0 0,0 0,1 -1,1 -1,1 -1,0 -1,0 -1,-1 0,-2 1,-2 2,-2l0 2zm6 -8l0 5c0,1 0,3 -1,3 0,1 0,1 -1,1l1 3c0,0 1,-1 1,-1 3,-1 3,-3 3,-6l0 -3 2 0 0 9 3 0 0 -11 -8 0zm10 0l0 11c1,0 2,0 3,0 2,0 3,0 5,-1 0,0 1,-1 1,-3 0,-3 -2,-4 -5,-4 0,0 0,0 -1,0l0 -3 -3 0zm3 6c0,0 0,0 1,0 1,0 2,0 2,1 0,2 -1,2 -2,2 -1,0 -1,0 -1,0l0 -3zm8 -6l0 11 3 0 0 -4 2 0 0 4 4 0 0 -11 -4 0 0 4 -2 0 0 -4 -3 0zm19 4c0,-2 -1,-5 -5,-5 -1,0 -3,1 -3,1l0 2c1,0 2,0 3,0 1,0 1,0 1,1l0 1c-2,0 -5,1 -5,4 0,2 1,4 3,4 1,0 2,-1 3,-2l0 0 0 1 3 0c0,0 0,-1 0,-2l0 -5zm-3 4c0,0 0,0 -1,0 0,1 0,1 -1,1 0,0 -1,0 -1,-1 0,-2 2,-2 3,-2l0 2zm6 6c1,-2 2,-4 3,-6l-3 0c-1,2 -1,4 -2,6l2 0zm-73 28l0 -3 -5 0 0 0 1 -1c2,-2 4,-5 4,-8 0,-2 -1,-4 -5,-4 -1,0 -2,0 -3,1l0 2c1,0 2,-1 3,-1 1,0 2,1 2,3 0,2 -2,4 -4,6l-1 2 0 3 8 0zm5 0l4 0 0 -16 -3 0 -4 2 1 2 2 -1 0 0 0 13z"/>
 </g>
</svg>
