<?xml version="1.0" encoding="UTF-8"?>
<!DOCTYPE svg PUBLIC "-//W3C//DTD SVG 1.1//EN" "http://www.w3.org/Graphics/SVG/1.1/DTD/svg11.dtd">
<!-- Creator: CorelDRAW X7 -->
<svg xmlns="http://www.w3.org/2000/svg" xml:space="preserve" width="12.95mm" height="12.0423mm" version="1.1" style="shape-rendering:geometricPrecision; text-rendering:geometricPrecision; image-rendering:optimizeQuality; fill-rule:evenodd; clip-rule:evenodd"
viewBox="0 0 427 397"
 xmlns:xlink="http://www.w3.org/1999/xlink">
 <defs>
  <style type="text/css">
   <![CDATA[
    .str0 {stroke:#FEFEFE;stroke-width:8.23821;stroke-linecap:round;stroke-linejoin:round}
    .fil0 {fill:none;fill-rule:nonzero}
    .fil1 {fill:#E31E24;fill-rule:nonzero}
   ]]>
  </style>
 </defs>
 <g id="Слой_x0020_1">
  <metadata id="CorelCorpID_0Corel-Layer"/>
  <g>
   <path class="fil0 str0" d="M226 30c0,4 -1,8 -4,11 -2,3 -5,5 -10,5 -3,0 -5,-1 -6,-2l0 0c0,5 0,10 0,15l-8 0c0,-6 0,-12 0,-20 0,-9 0,-17 -1,-21l7 -1 1 2 0 0c2,-2 5,-3 9,-3 3,0 6,2 9,4 2,3 3,6 3,10zm-8 1c0,-3 -1,-5 -2,-7 -1,-1 -3,-2 -5,-2 -3,0 -5,1 -6,2 1,6 1,11 1,15 1,1 2,2 4,2 3,0 5,-1 6,-3 1,-2 2,-4 2,-7zm39 14l-8 0c1,-3 1,-7 1,-12l-11 0c0,4 0,8 0,12l-8 0c1,-4 1,-9 1,-14 0,-5 -1,-10 -1,-13l8 -1c0,1 0,5 0,11l11 0c0,-4 -1,-8 -1,-10l8 -1c0,4 0,8 0,14 0,5 0,10 0,14zm15 0l-8 0c0,-4 0,-9 0,-14 0,-5 0,-10 -1,-13l9 -1c-1,4 -1,8 -1,14 0,5 0,10 1,14zm1 -37c0,2 0,3 -1,4 -1,1 -2,1 -4,1 -1,0 -3,0 -3,-1 -1,-1 -1,-2 -1,-3 0,-1 0,-2 1,-3 1,-1 2,-2 4,-2 1,0 2,1 3,1 1,1 1,2 1,3zm31 29c0,3 -2,5 -4,6 -3,2 -6,2 -10,2 -1,0 -4,0 -6,0 -3,0 -5,0 -6,0 1,-3 1,-8 1,-14 0,-5 -1,-10 -1,-14l5 0c3,0 6,0 9,0 7,0 10,2 10,6 0,3 -1,5 -4,7l0 0c4,1 6,3 6,7zm-7 0c0,-2 -1,-3 -2,-3 -1,-1 -3,-1 -6,-1 -1,0 -2,0 -4,0 0,3 0,5 0,7 2,0 4,1 6,1 4,0 6,-2 6,-4zm-2 -12c0,-2 -1,-3 -5,-3 -1,0 -3,0 -5,0 0,2 0,5 0,7 2,0 4,0 5,0 4,0 5,-1 5,-4zm43 15c0,1 0,3 -1,8 0,4 -1,7 -1,9l-5 0c0,-2 0,-6 0,-12l-22 0c0,-4 0,-9 0,-14 0,-5 0,-10 -1,-13l9 -1c0,4 -1,8 -1,14 0,3 0,6 0,9l10 0c0,-3 0,-6 0,-9 0,-5 -1,-10 -1,-13l8 -1c0,4 0,8 0,14 0,3 0,6 0,9l5 0zm13 5l-8 0c0,-4 0,-9 0,-14 0,-5 0,-10 -1,-13l8 -1c0,4 0,8 0,14 0,5 0,10 1,14zm1 -37c0,2 -1,3 -1,4 -1,1 -3,1 -4,1 -2,0 -3,0 -4,-1 0,-1 -1,-2 -1,-3 0,-1 1,-2 2,-3 1,-1 2,-2 4,-2 1,0 2,1 3,1 0,1 1,2 1,3zm14 33c0,5 -3,10 -9,16l-3 -2c3,-3 4,-6 4,-10 -1,-1 -2,-2 -2,-4 0,-2 1,-3 2,-4 1,-1 2,-2 4,-2 1,0 2,1 3,2 1,1 1,2 1,4zm-249 76l-8 0c0,-5 0,-12 0,-19 0,-4 0,-9 1,-13l-15 0c0,4 1,8 1,13 0,7 0,14 0,19l-8 0c0,-6 0,-13 0,-20 0,-6 0,-12 0,-18l29 0c0,5 0,11 0,18 0,7 0,14 0,20zm31 0l-7 0c0,0 0,-1 0,-2l0 0c-3,2 -5,3 -9,3 -3,0 -5,-1 -6,-2 -2,-1 -3,-3 -3,-5 0,-3 2,-6 4,-8 3,-2 7,-3 13,-3 0,0 0,0 0,-1 0,-2 0,-3 -1,-4 -1,-1 -3,-1 -6,-1 -3,0 -6,0 -8,1l0 -5c3,-1 7,-2 12,-2 3,0 6,1 8,3 2,1 3,4 3,7 0,1 0,3 0,5 -1,2 -1,4 -1,4 0,4 1,8 1,10zm-7 -6c-1,-3 -1,-5 -1,-7 -6,0 -10,2 -10,5 0,3 2,4 5,4 2,0 4,-1 6,-2zm41 -9c0,4 -1,8 -3,11 -3,4 -6,5 -10,5 -3,0 -6,-1 -7,-2l0 0c0,5 0,10 0,15l-8 0c0,-6 1,-12 1,-20 0,-9 -1,-16 -2,-21l8 -1 0 2 1 0c2,-2 5,-3 8,-3 4,0 7,2 9,4 2,3 3,6 3,10zm-7 1c0,-3 -1,-5 -2,-6 -2,-2 -3,-3 -5,-3 -3,0 -5,1 -6,2 0,6 0,11 0,15 1,1 3,2 5,2 2,0 4,-1 6,-3 1,-2 2,-4 2,-7zm39 14l-8 0c0,0 -1,-1 -1,-1 -1,-4 -2,-7 -3,-8 -2,-2 -3,-2 -5,-2 0,0 -1,0 -2,0 0,3 0,7 1,11l-8 0c0,-4 0,-8 0,-13 0,-6 0,-11 -1,-14l8 -1c0,3 0,7 0,12 1,0 2,0 2,0 3,0 6,-4 8,-10 0,-1 0,-1 0,-2l8 0c-1,1 -1,2 -1,3 -3,6 -5,10 -8,11l0 0c2,0 3,2 5,3 1,2 2,5 3,8 1,1 1,2 2,3zm33 -14c0,5 -2,8 -5,11 -3,3 -7,4 -11,4 -4,0 -7,-1 -10,-3 -3,-3 -4,-6 -4,-11 0,-5 2,-9 5,-12 3,-2 6,-4 10,-4 4,0 8,1 10,4 3,2 5,6 5,11zm-8 1c0,-3 -1,-6 -2,-8 -1,-2 -3,-2 -5,-2 -2,0 -4,0 -5,2 -2,2 -2,4 -2,7 0,3 0,5 2,7 1,2 3,3 5,3 2,0 4,-1 5,-3 1,-1 2,-4 2,-6zm38 5c0,3 -1,5 -4,6 -2,2 -5,2 -9,2 -2,0 -4,0 -7,0 -3,0 -5,0 -5,0 0,-3 0,-8 0,-14 0,-5 0,-10 -1,-14l5 0c3,0 6,0 9,0 7,0 11,2 11,6 0,3 -2,6 -5,7l0 0c4,1 6,3 6,7zm-7 0c0,-2 -1,-3 -2,-3 -1,-1 -3,-1 -5,-1 -1,0 -3,0 -4,0 0,3 0,5 0,7 2,1 4,1 5,1 4,0 6,-2 6,-4zm-1 -12c0,-2 -2,-3 -5,-3 -2,0 -4,0 -5,0 0,2 0,5 0,7 2,0 3,0 5,0 3,0 5,-1 5,-4zm40 20l-8 0c0,-3 0,-7 0,-11 0,-2 0,-4 1,-7l-1 0c0,2 -3,5 -7,10 -4,4 -5,7 -5,8l-7 0c1,-4 1,-9 1,-14 0,-5 -1,-10 -1,-13l8 -1c0,4 0,7 0,11 0,2 0,4 -1,8l1 0c0,-2 2,-5 7,-10 3,-4 5,-7 5,-8l7 -1c-1,4 -1,8 -1,14 0,5 0,10 1,14zm32 0l-8 0c1,-3 1,-7 1,-11 0,-2 0,-4 0,-7l0 0c-1,2 -3,5 -7,10 -4,4 -6,7 -6,8l-6 0c0,-4 0,-9 0,-14 0,-5 0,-10 -1,-13l9 -1c-1,4 -1,7 -1,11 0,2 0,4 0,8l0 0c1,-2 3,-5 7,-10 4,-4 6,-7 6,-8l6 -1c0,4 0,8 0,14 0,5 0,10 0,14zm-2 -41c0,6 -3,9 -10,9 -4,0 -7,-1 -9,-3 -1,-1 -2,-3 -2,-6l7 -1c0,4 1,6 4,6 2,0 3,0 3,-1 1,-1 1,-3 1,-5l6 1zm-211 113l-8 0c0,-4 0,-8 0,-14 0,-2 0,-5 0,-8l-10 0c0,2 0,5 0,8 0,5 0,10 1,14l-8 0c0,-4 0,-8 0,-14 0,-5 0,-9 -1,-13l8 -1 12 0 6 0c-1,4 -1,9 -1,14 0,5 0,10 1,14zm34 -15c0,4 -1,8 -3,11 -3,4 -6,5 -10,5 -3,0 -6,0 -7,-2l0 0c0,5 0,10 0,15l-8 0c0,-6 1,-12 1,-20 0,-9 -1,-16 -2,-21l8 -1 0 2 1 0c2,-2 4,-3 8,-3 4,0 7,2 9,5 2,2 3,5 3,9zm-8 1c0,-2 0,-5 -1,-6 -2,-2 -3,-3 -5,-3 -3,0 -5,1 -6,2 0,6 0,11 0,15 1,1 3,2 5,2 2,0 4,-1 6,-3 1,-2 1,-4 1,-7zm42 0c0,5 -2,9 -5,11 -3,3 -6,4 -10,4 -4,0 -8,-1 -10,-3 -3,-3 -5,-6 -5,-11 0,-5 2,-9 5,-12 3,-2 7,-4 11,-4 4,0 7,1 10,4 2,3 4,6 4,11zm-8 1c0,-3 0,-6 -2,-8 -1,-1 -3,-2 -5,-2 -2,0 -4,1 -5,2 -1,2 -2,4 -2,7 0,3 1,5 2,7 1,2 3,3 5,3 2,0 4,-1 5,-3 2,-1 2,-4 2,-6zm21 13l-7 0c0,-4 0,-8 0,-14 0,-5 0,-9 -1,-13l8 -1c0,4 0,9 0,14 0,5 0,10 0,14zm6 -36c0,1 0,2 -1,3 0,0 -2,1 -3,1 -1,0 -2,0 -3,-1 0,-1 -1,-2 -1,-3 0,-1 1,-2 2,-3 0,-1 1,-1 3,-1 1,0 2,0 3,1 0,1 0,2 0,3zm-11 0c0,1 -1,2 -1,3 -1,0 -2,1 -4,1 -1,0 -2,0 -2,-1 -1,-1 -1,-2 -1,-3 0,-1 0,-2 1,-3 1,-1 2,-1 3,-1 1,0 2,0 3,1 1,1 1,2 1,3zm34 28c0,3 -2,5 -4,7 -3,1 -6,2 -10,2 -4,0 -7,0 -9,-1l0 -6c3,1 6,2 9,2 4,0 6,-1 6,-4 0,-2 -2,-4 -7,-4 -2,0 -4,1 -6,1l1 -5c2,0 3,0 5,0 4,0 7,-1 7,-4 0,-2 -2,-3 -6,-3 -3,0 -6,0 -8,1l0 -5c3,-1 6,-1 10,-1 7,0 11,2 11,6 0,3 -2,5 -5,7l0 0c1,0 3,1 4,2 1,1 2,3 2,5zm34 3c0,1 0,3 -1,8 0,4 0,7 0,10l-6 0c0,-3 0,-7 0,-13 -2,0 -6,0 -10,0 -3,0 -6,0 -8,0 -1,6 -2,10 -2,13l-5 0c0,-2 0,-5 0,-9 0,-4 0,-7 0,-9l3 0c2,-6 5,-14 10,-23l9 0 5 0c0,4 0,9 0,14 0,3 0,6 0,9l5 0zm-12 0c0,-3 0,-6 0,-9 0,-3 0,-6 0,-8l-4 0c-3,7 -5,13 -6,17l10 0zm25 1c0,5 -3,10 -9,16l-3 -2c3,-3 4,-6 4,-10 -1,-1 -2,-2 -2,-4 0,-2 0,-3 1,-4 1,-1 3,-1 5,-1 1,0 2,0 3,1 1,1 1,2 1,4zm41 0c0,4 -1,7 -5,10 -5,4 -11,6 -18,6l-1 -5c5,0 9,-1 12,-3 3,-2 5,-4 5,-7 0,-5 -5,-7 -13,-7l0 -5c4,0 6,0 8,-1 2,-1 3,-3 3,-5 0,-3 -2,-4 -7,-4 -2,0 -4,0 -6,0l1 -5c1,-1 4,-1 8,-1 4,0 7,1 9,2 1,2 2,4 2,6 0,2 0,4 -2,5 -1,2 -3,3 -4,4l0 0c2,0 4,2 6,3 2,2 2,4 2,7zm-249 136l-6 0c0,-2 0,-6 -1,-10 0,-4 0,-7 0,-8l0 0c0,1 -1,4 -3,9 -2,5 -3,8 -3,9l-6 0c0,-1 0,-4 -2,-8 -1,-4 -2,-7 -3,-10l0 0c0,1 0,4 0,9 -1,5 -1,8 -1,9l-5 0c0,0 0,-3 1,-10 0,-6 1,-11 1,-13l9 0c0,2 0,5 2,10 1,4 2,7 2,8l0 0c0,-1 1,-4 2,-8 2,-5 3,-8 3,-10l9 0c0,2 0,7 0,13 1,6 1,10 1,10zm12 -4c0,1 0,2 -1,3 -1,1 -2,2 -3,2 -2,0 -2,-1 -3,-1 -1,-1 -1,-2 -1,-3 0,-1 0,-2 1,-3 1,-1 2,-2 3,-2 2,0 3,1 3,1 1,1 1,2 1,3zm42 4l-6 0c0,-5 0,-10 0,-14l-12 0c0,4 0,9 0,14l-7 0c0,-5 0,-10 0,-16 0,-6 0,-11 0,-15l7 0c0,4 -1,8 -1,12l13 0c0,-3 0,-7 0,-12l6 0c0,4 0,9 0,15 0,6 0,12 0,16zm30 -12c0,4 -1,8 -4,10 -2,2 -5,3 -8,3 -4,0 -6,-1 -9,-3 -2,-2 -3,-5 -3,-9 0,-4 1,-7 4,-9 2,-3 5,-4 8,-4 4,0 6,1 9,3 2,2 3,5 3,9zm-6 1c0,-2 -1,-4 -2,-6 -1,-1 -2,-2 -4,-2 -2,0 -3,0 -4,2 -1,1 -2,3 -2,6 0,2 1,4 2,6 1,1 2,2 4,2 2,0 3,-1 4,-2 1,-2 2,-4 2,-6zm32 5c0,2 -1,4 -3,5 -3,1 -5,2 -8,2 -2,0 -4,0 -6,0 -2,-1 -4,-1 -4,-1 0,-2 0,-6 0,-11 0,-5 0,-8 -1,-12l4 0c3,0 5,0 8,0 6,0 9,2 9,5 0,3 -2,5 -4,6l0 0c3,1 5,2 5,6zm-6 -1c0,-1 -1,-2 -2,-2 -1,0 -2,-1 -4,-1 -1,0 -2,0 -3,0 0,3 0,5 0,6 1,1 3,1 4,1 3,0 5,-1 5,-4zm-1 -9c0,-2 -1,-3 -4,-3 -2,0 -3,0 -5,0 1,2 1,4 1,6 1,0 2,0 3,0 3,0 5,-1 5,-3zm35 4c0,4 -2,8 -4,10 -3,2 -6,3 -9,3 -3,0 -6,-1 -8,-3 -3,-2 -4,-5 -4,-9 0,-4 1,-7 4,-9 3,-3 5,-4 9,-4 3,0 6,1 8,3 3,2 4,5 4,9zm-7 1c0,-2 0,-4 -1,-6 -1,-1 -3,-2 -5,-2 -1,0 -3,0 -4,2 -1,1 -1,3 -1,6 0,2 0,4 1,6 1,1 3,2 5,2 1,0 3,-1 4,-2 1,-2 1,-4 1,-6zm30 6l-1 5c-1,1 -3,1 -6,1 -4,0 -7,-1 -9,-3 -3,-3 -4,-5 -4,-9 0,-3 1,-6 4,-9 2,-2 5,-4 9,-4 2,0 4,1 6,1l-1 5c-2,-1 -3,-1 -5,-1 -2,0 -4,1 -5,2 -1,2 -2,3 -2,5 0,3 1,4 3,6 1,2 3,2 5,2 2,0 3,0 6,-1zm25 -9c0,1 0,2 0,4l-16 0c0,2 1,3 2,4 2,2 3,2 5,2 3,0 6,0 8,-1l0 5c-2,1 -5,1 -9,1 -4,0 -7,-1 -9,-3 -2,-3 -4,-6 -4,-9 0,-3 1,-6 4,-9 2,-2 5,-4 8,-4 4,0 6,1 8,3 2,2 3,4 3,7zm-6 0c0,-4 -2,-5 -5,-5 -3,0 -5,1 -5,5l10 0zm30 14l-6 0c0,-3 0,-6 0,-11 0,-2 0,-5 0,-7l-3 0c0,1 -1,3 -1,4 -1,2 -1,3 -2,4 -1,2 -1,3 -2,4 -1,2 -2,3 -3,4 0,1 -1,1 -2,2 -1,1 -2,1 -3,1l0 -6c0,0 1,0 1,-1 1,0 1,-1 2,-2 0,-1 1,-2 2,-3 0,-1 1,-2 1,-3 1,-2 1,-3 2,-4 0,-2 1,-3 1,-5l9 0 4 0c0,3 0,7 0,12 0,4 0,8 0,11zm28 0l-7 0c0,-2 0,-6 0,-9 0,-2 0,-3 1,-6l-1 0c0,2 -2,4 -6,8 -3,4 -4,6 -4,7l-5 0c0,-3 0,-7 0,-11 0,-5 0,-9 -1,-12l7 0c0,3 0,6 0,9 0,2 0,4 -1,6l1 0c0,-1 2,-3 5,-7 4,-4 5,-6 5,-8l5 0c0,3 0,7 0,12 0,4 0,8 1,11zm29 -4c0,1 0,3 -1,7 0,3 0,6 0,8l-5 0c0,-2 0,-6 0,-11l-18 0c0,-3 0,-7 0,-11 0,-4 0,-8 -1,-12l7 0c0,3 0,7 0,12 0,2 0,4 0,7l8 0c0,-3 0,-5 0,-7 0,-4 -1,-8 -1,-12l7 0c0,3 0,7 0,12 0,2 0,5 0,7l4 0zm24 4l-6 0c0,-2 0,-5 0,-9 -1,0 -2,0 -3,0 -2,0 -3,1 -4,2 0,1 -2,3 -3,7l-6 0c1,-3 2,-6 3,-8 1,-1 2,-2 4,-2l0 -1c-4,0 -6,-2 -6,-5 0,-3 1,-4 3,-5 1,-2 3,-2 6,-2 2,0 5,0 8,0l4 0c0,3 0,7 0,12 0,5 0,9 0,11zm-6 -13c0,-2 0,-4 0,-6 -2,0 -4,0 -5,0 -3,0 -4,1 -4,3 0,2 2,3 5,3 1,0 2,0 4,0z"/>
   <path id="1" class="fil1" d="M226 30c0,4 -1,8 -4,11 -2,3 -5,5 -10,5 -3,0 -5,-1 -6,-2l0 0c0,5 0,10 0,15l-8 0c0,-6 0,-12 0,-20 0,-9 0,-17 -1,-21l7 -1 1 2 0 0c2,-2 5,-3 9,-3 3,0 6,2 9,4 2,3 3,6 3,10zm-8 1c0,-3 -1,-5 -2,-7 -1,-1 -3,-2 -5,-2 -3,0 -5,1 -6,2 1,6 1,11 1,15 1,1 2,2 4,2 3,0 5,-1 6,-3 1,-2 2,-4 2,-7zm39 14l-8 0c1,-3 1,-7 1,-12l-11 0c0,4 0,8 0,12l-8 0c1,-4 1,-9 1,-14 0,-5 -1,-10 -1,-13l8 -1c0,1 0,5 0,11l11 0c0,-4 -1,-8 -1,-10l8 -1c0,4 0,8 0,14 0,5 0,10 0,14zm15 0l-8 0c0,-4 0,-9 0,-14 0,-5 0,-10 -1,-13l9 -1c-1,4 -1,8 -1,14 0,5 0,10 1,14zm1 -37c0,2 0,3 -1,4 -1,1 -2,1 -4,1 -1,0 -3,0 -3,-1 -1,-1 -1,-2 -1,-3 0,-1 0,-2 1,-3 1,-1 2,-2 4,-2 1,0 2,1 3,1 1,1 1,2 1,3zm31 29c0,3 -2,5 -4,6 -3,2 -6,2 -10,2 -1,0 -4,0 -6,0 -3,0 -5,0 -6,0 1,-3 1,-8 1,-14 0,-5 -1,-10 -1,-14l5 0c3,0 6,0 9,0 7,0 10,2 10,6 0,3 -1,5 -4,7l0 0c4,1 6,3 6,7zm-7 0c0,-2 -1,-3 -2,-3 -1,-1 -3,-1 -6,-1 -1,0 -2,0 -4,0 0,3 0,5 0,7 2,0 4,1 6,1 4,0 6,-2 6,-4zm-2 -12c0,-2 -1,-3 -5,-3 -1,0 -3,0 -5,0 0,2 0,5 0,7 2,0 4,0 5,0 4,0 5,-1 5,-4zm43 15c0,1 0,3 -1,8 0,4 -1,7 -1,9l-5 0c0,-2 0,-6 0,-12l-22 0c0,-4 0,-9 0,-14 0,-5 0,-10 -1,-13l9 -1c0,4 -1,8 -1,14 0,3 0,6 0,9l10 0c0,-3 0,-6 0,-9 0,-5 -1,-10 -1,-13l8 -1c0,4 0,8 0,14 0,3 0,6 0,9l5 0zm13 5l-8 0c0,-4 0,-9 0,-14 0,-5 0,-10 -1,-13l8 -1c0,4 0,8 0,14 0,5 0,10 1,14zm1 -37c0,2 -1,3 -1,4 -1,1 -3,1 -4,1 -2,0 -3,0 -4,-1 0,-1 -1,-2 -1,-3 0,-1 1,-2 2,-3 1,-1 2,-2 4,-2 1,0 2,1 3,1 0,1 1,2 1,3zm14 33c0,5 -3,10 -9,16l-3 -2c3,-3 4,-6 4,-10 -1,-1 -2,-2 -2,-4 0,-2 1,-3 2,-4 1,-1 2,-2 4,-2 1,0 2,1 3,2 1,1 1,2 1,4zm-249 76l-8 0c0,-5 0,-12 0,-19 0,-4 0,-9 1,-13l-15 0c0,4 1,8 1,13 0,7 0,14 0,19l-8 0c0,-6 0,-13 0,-20 0,-6 0,-12 0,-18l29 0c0,5 0,11 0,18 0,7 0,14 0,20zm31 0l-7 0c0,0 0,-1 0,-2l0 0c-3,2 -5,3 -9,3 -3,0 -5,-1 -6,-2 -2,-1 -3,-3 -3,-5 0,-3 2,-6 4,-8 3,-2 7,-3 13,-3 0,0 0,0 0,-1 0,-2 0,-3 -1,-4 -1,-1 -3,-1 -6,-1 -3,0 -6,0 -8,1l0 -5c3,-1 7,-2 12,-2 3,0 6,1 8,3 2,1 3,4 3,7 0,1 0,3 0,5 -1,2 -1,4 -1,4 0,4 1,8 1,10zm-7 -6c-1,-3 -1,-5 -1,-7 -6,0 -10,2 -10,5 0,3 2,4 5,4 2,0 4,-1 6,-2zm41 -9c0,4 -1,8 -3,11 -3,4 -6,5 -10,5 -3,0 -6,-1 -7,-2l0 0c0,5 0,10 0,15l-8 0c0,-6 1,-12 1,-20 0,-9 -1,-16 -2,-21l8 -1 0 2 1 0c2,-2 5,-3 8,-3 4,0 7,2 9,4 2,3 3,6 3,10zm-7 1c0,-3 -1,-5 -2,-6 -2,-2 -3,-3 -5,-3 -3,0 -5,1 -6,2 0,6 0,11 0,15 1,1 3,2 5,2 2,0 4,-1 6,-3 1,-2 2,-4 2,-7zm39 14l-8 0c0,0 -1,-1 -1,-1 -1,-4 -2,-7 -3,-8 -2,-2 -3,-2 -5,-2 0,0 -1,0 -2,0 0,3 0,7 1,11l-8 0c0,-4 0,-8 0,-13 0,-6 0,-11 -1,-14l8 -1c0,3 0,7 0,12 1,0 2,0 2,0 3,0 6,-4 8,-10 0,-1 0,-1 0,-2l8 0c-1,1 -1,2 -1,3 -3,6 -5,10 -8,11l0 0c2,0 3,2 5,3 1,2 2,5 3,8 1,1 1,2 2,3zm33 -14c0,5 -2,8 -5,11 -3,3 -7,4 -11,4 -4,0 -7,-1 -10,-3 -3,-3 -4,-6 -4,-11 0,-5 2,-9 5,-12 3,-2 6,-4 10,-4 4,0 8,1 10,4 3,2 5,6 5,11zm-8 1c0,-3 -1,-6 -2,-8 -1,-2 -3,-2 -5,-2 -2,0 -4,0 -5,2 -2,2 -2,4 -2,7 0,3 0,5 2,7 1,2 3,3 5,3 2,0 4,-1 5,-3 1,-1 2,-4 2,-6zm38 5c0,3 -1,5 -4,6 -2,2 -5,2 -9,2 -2,0 -4,0 -7,0 -3,0 -5,0 -5,0 0,-3 0,-8 0,-14 0,-5 0,-10 -1,-14l5 0c3,0 6,0 9,0 7,0 11,2 11,6 0,3 -2,6 -5,7l0 0c4,1 6,3 6,7zm-7 0c0,-2 -1,-3 -2,-3 -1,-1 -3,-1 -5,-1 -1,0 -3,0 -4,0 0,3 0,5 0,7 2,1 4,1 5,1 4,0 6,-2 6,-4zm-1 -12c0,-2 -2,-3 -5,-3 -2,0 -4,0 -5,0 0,2 0,5 0,7 2,0 3,0 5,0 3,0 5,-1 5,-4zm40 20l-8 0c0,-3 0,-7 0,-11 0,-2 0,-4 1,-7l-1 0c0,2 -3,5 -7,10 -4,4 -5,7 -5,8l-7 0c1,-4 1,-9 1,-14 0,-5 -1,-10 -1,-13l8 -1c0,4 0,7 0,11 0,2 0,4 -1,8l1 0c0,-2 2,-5 7,-10 3,-4 5,-7 5,-8l7 -1c-1,4 -1,8 -1,14 0,5 0,10 1,14zm32 0l-8 0c1,-3 1,-7 1,-11 0,-2 0,-4 0,-7l0 0c-1,2 -3,5 -7,10 -4,4 -6,7 -6,8l-6 0c0,-4 0,-9 0,-14 0,-5 0,-10 -1,-13l9 -1c-1,4 -1,7 -1,11 0,2 0,4 0,8l0 0c1,-2 3,-5 7,-10 4,-4 6,-7 6,-8l6 -1c0,4 0,8 0,14 0,5 0,10 0,14zm-2 -41c0,6 -3,9 -10,9 -4,0 -7,-1 -9,-3 -1,-1 -2,-3 -2,-6l7 -1c0,4 1,6 4,6 2,0 3,0 3,-1 1,-1 1,-3 1,-5l6 1zm-211 113l-8 0c0,-4 0,-8 0,-14 0,-2 0,-5 0,-8l-10 0c0,2 0,5 0,8 0,5 0,10 1,14l-8 0c0,-4 0,-8 0,-14 0,-5 0,-9 -1,-13l8 -1 12 0 6 0c-1,4 -1,9 -1,14 0,5 0,10 1,14zm34 -15c0,4 -1,8 -3,11 -3,4 -6,5 -10,5 -3,0 -6,0 -7,-2l0 0c0,5 0,10 0,15l-8 0c0,-6 1,-12 1,-20 0,-9 -1,-16 -2,-21l8 -1 0 2 1 0c2,-2 4,-3 8,-3 4,0 7,2 9,5 2,2 3,5 3,9zm-8 1c0,-2 0,-5 -1,-6 -2,-2 -3,-3 -5,-3 -3,0 -5,1 -6,2 0,6 0,11 0,15 1,1 3,2 5,2 2,0 4,-1 6,-3 1,-2 1,-4 1,-7zm42 0c0,5 -2,9 -5,11 -3,3 -6,4 -10,4 -4,0 -8,-1 -10,-3 -3,-3 -5,-6 -5,-11 0,-5 2,-9 5,-12 3,-2 7,-4 11,-4 4,0 7,1 10,4 2,3 4,6 4,11zm-8 1c0,-3 0,-6 -2,-8 -1,-1 -3,-2 -5,-2 -2,0 -4,1 -5,2 -1,2 -2,4 -2,7 0,3 1,5 2,7 1,2 3,3 5,3 2,0 4,-1 5,-3 2,-1 2,-4 2,-6zm21 13l-7 0c0,-4 0,-8 0,-14 0,-5 0,-9 -1,-13l8 -1c0,4 0,9 0,14 0,5 0,10 0,14zm6 -36c0,1 0,2 -1,3 0,0 -2,1 -3,1 -1,0 -2,0 -3,-1 0,-1 -1,-2 -1,-3 0,-1 1,-2 2,-3 0,-1 1,-1 3,-1 1,0 2,0 3,1 0,1 0,2 0,3zm-11 0c0,1 -1,2 -1,3 -1,0 -2,1 -4,1 -1,0 -2,0 -2,-1 -1,-1 -1,-2 -1,-3 0,-1 0,-2 1,-3 1,-1 2,-1 3,-1 1,0 2,0 3,1 1,1 1,2 1,3zm34 28c0,3 -2,5 -4,7 -3,1 -6,2 -10,2 -4,0 -7,0 -9,-1l0 -6c3,1 6,2 9,2 4,0 6,-1 6,-4 0,-2 -2,-4 -7,-4 -2,0 -4,1 -6,1l1 -5c2,0 3,0 5,0 4,0 7,-1 7,-4 0,-2 -2,-3 -6,-3 -3,0 -6,0 -8,1l0 -5c3,-1 6,-1 10,-1 7,0 11,2 11,6 0,3 -2,5 -5,7l0 0c1,0 3,1 4,2 1,1 2,3 2,5zm34 3c0,1 0,3 -1,8 0,4 0,7 0,10l-6 0c0,-3 0,-7 0,-13 -2,0 -6,0 -10,0 -3,0 -6,0 -8,0 -1,6 -2,10 -2,13l-5 0c0,-2 0,-5 0,-9 0,-4 0,-7 0,-9l3 0c2,-6 5,-14 10,-23l9 0 5 0c0,4 0,9 0,14 0,3 0,6 0,9l5 0zm-12 0c0,-3 0,-6 0,-9 0,-3 0,-6 0,-8l-4 0c-3,7 -5,13 -6,17l10 0zm25 1c0,5 -3,10 -9,16l-3 -2c3,-3 4,-6 4,-10 -1,-1 -2,-2 -2,-4 0,-2 0,-3 1,-4 1,-1 3,-1 5,-1 1,0 2,0 3,1 1,1 1,2 1,4zm41 0c0,4 -1,7 -5,10 -5,4 -11,6 -18,6l-1 -5c5,0 9,-1 12,-3 3,-2 5,-4 5,-7 0,-5 -5,-7 -13,-7l0 -5c4,0 6,0 8,-1 2,-1 3,-3 3,-5 0,-3 -2,-4 -7,-4 -2,0 -4,0 -6,0l1 -5c1,-1 4,-1 8,-1 4,0 7,1 9,2 1,2 2,4 2,6 0,2 0,4 -2,5 -1,2 -3,3 -4,4l0 0c2,0 4,2 6,3 2,2 2,4 2,7zm-249 136l-6 0c0,-2 0,-6 -1,-10 0,-4 0,-7 0,-8l0 0c0,1 -1,4 -3,9 -2,5 -3,8 -3,9l-6 0c0,-1 0,-4 -2,-8 -1,-4 -2,-7 -3,-10l0 0c0,1 0,4 0,9 -1,5 -1,8 -1,9l-5 0c0,0 0,-3 1,-10 0,-6 1,-11 1,-13l9 0c0,2 0,5 2,10 1,4 2,7 2,8l0 0c0,-1 1,-4 2,-8 2,-5 3,-8 3,-10l9 0c0,2 0,7 0,13 1,6 1,10 1,10zm12 -4c0,1 0,2 -1,3 -1,1 -2,2 -3,2 -2,0 -2,-1 -3,-1 -1,-1 -1,-2 -1,-3 0,-1 0,-2 1,-3 1,-1 2,-2 3,-2 2,0 3,1 3,1 1,1 1,2 1,3zm42 4l-6 0c0,-5 0,-10 0,-14l-12 0c0,4 0,9 0,14l-7 0c0,-5 0,-10 0,-16 0,-6 0,-11 0,-15l7 0c0,4 -1,8 -1,12l13 0c0,-3 0,-7 0,-12l6 0c0,4 0,9 0,15 0,6 0,12 0,16zm30 -12c0,4 -1,8 -4,10 -2,2 -5,3 -8,3 -4,0 -6,-1 -9,-3 -2,-2 -3,-5 -3,-9 0,-4 1,-7 4,-9 2,-3 5,-4 8,-4 4,0 6,1 9,3 2,2 3,5 3,9zm-6 1c0,-2 -1,-4 -2,-6 -1,-1 -2,-2 -4,-2 -2,0 -3,0 -4,2 -1,1 -2,3 -2,6 0,2 1,4 2,6 1,1 2,2 4,2 2,0 3,-1 4,-2 1,-2 2,-4 2,-6zm32 5c0,2 -1,4 -3,5 -3,1 -5,2 -8,2 -2,0 -4,0 -6,0 -2,-1 -4,-1 -4,-1 0,-2 0,-6 0,-11 0,-5 0,-8 -1,-12l4 0c3,0 5,0 8,0 6,0 9,2 9,5 0,3 -2,5 -4,6l0 0c3,1 5,2 5,6zm-6 -1c0,-1 -1,-2 -2,-2 -1,0 -2,-1 -4,-1 -1,0 -2,0 -3,0 0,3 0,5 0,6 1,1 3,1 4,1 3,0 5,-1 5,-4zm-1 -9c0,-2 -1,-3 -4,-3 -2,0 -3,0 -5,0 1,2 1,4 1,6 1,0 2,0 3,0 3,0 5,-1 5,-3zm35 4c0,4 -2,8 -4,10 -3,2 -6,3 -9,3 -3,0 -6,-1 -8,-3 -3,-2 -4,-5 -4,-9 0,-4 1,-7 4,-9 3,-3 5,-4 9,-4 3,0 6,1 8,3 3,2 4,5 4,9zm-7 1c0,-2 0,-4 -1,-6 -1,-1 -3,-2 -5,-2 -1,0 -3,0 -4,2 -1,1 -1,3 -1,6 0,2 0,4 1,6 1,1 3,2 5,2 1,0 3,-1 4,-2 1,-2 1,-4 1,-6zm30 6l-1 5c-1,1 -3,1 -6,1 -4,0 -7,-1 -9,-3 -3,-3 -4,-5 -4,-9 0,-3 1,-6 4,-9 2,-2 5,-4 9,-4 2,0 4,1 6,1l-1 5c-2,-1 -3,-1 -5,-1 -2,0 -4,1 -5,2 -1,2 -2,3 -2,5 0,3 1,4 3,6 1,2 3,2 5,2 2,0 3,0 6,-1zm25 -9c0,1 0,2 0,4l-16 0c0,2 1,3 2,4 2,2 3,2 5,2 3,0 6,0 8,-1l0 5c-2,1 -5,1 -9,1 -4,0 -7,-1 -9,-3 -2,-3 -4,-6 -4,-9 0,-3 1,-6 4,-9 2,-2 5,-4 8,-4 4,0 6,1 8,3 2,2 3,4 3,7zm-6 0c0,-4 -2,-5 -5,-5 -3,0 -5,1 -5,5l10 0zm30 14l-6 0c0,-3 0,-6 0,-11 0,-2 0,-5 0,-7l-3 0c0,1 -1,3 -1,4 -1,2 -1,3 -2,4 -1,2 -1,3 -2,4 -1,2 -2,3 -3,4 0,1 -1,1 -2,2 -1,1 -2,1 -3,1l0 -6c0,0 1,0 1,-1 1,0 1,-1 2,-2 0,-1 1,-2 2,-3 0,-1 1,-2 1,-3 1,-2 1,-3 2,-4 0,-2 1,-3 1,-5l9 0 4 0c0,3 0,7 0,12 0,4 0,8 0,11zm28 0l-7 0c0,-2 0,-6 0,-9 0,-2 0,-3 1,-6l-1 0c0,2 -2,4 -6,8 -3,4 -4,6 -4,7l-5 0c0,-3 0,-7 0,-11 0,-5 0,-9 -1,-12l7 0c0,3 0,6 0,9 0,2 0,4 -1,6l1 0c0,-1 2,-3 5,-7 4,-4 5,-6 5,-8l5 0c0,3 0,7 0,12 0,4 0,8 1,11zm29 -4c0,1 0,3 -1,7 0,3 0,6 0,8l-5 0c0,-2 0,-6 0,-11l-18 0c0,-3 0,-7 0,-11 0,-4 0,-8 -1,-12l7 0c0,3 0,7 0,12 0,2 0,4 0,7l8 0c0,-3 0,-5 0,-7 0,-4 -1,-8 -1,-12l7 0c0,3 0,7 0,12 0,2 0,5 0,7l4 0zm24 4l-6 0c0,-2 0,-5 0,-9 -1,0 -2,0 -3,0 -2,0 -3,1 -4,2 0,1 -2,3 -3,7l-6 0c1,-3 2,-6 3,-8 1,-1 2,-2 4,-2l0 -1c-4,0 -6,-2 -6,-5 0,-3 1,-4 3,-5 1,-2 3,-2 6,-2 2,0 5,0 8,0l4 0c0,3 0,7 0,12 0,5 0,9 0,11zm-6 -13c0,-2 0,-4 0,-6 -2,0 -4,0 -5,0 -3,0 -4,1 -4,3 0,2 2,3 5,3 1,0 2,0 4,0z"/>
  </g>
  <g>
   <path class="fil0 str0" d="M381 318c0,4 -2,8 -7,13l-3 -2c3,-2 4,-5 4,-8 -2,0 -2,-2 -2,-3 0,-1 0,-2 1,-3 1,-1 2,-2 4,-2 1,0 2,1 2,2 1,1 1,2 1,3zm-355 57c0,2 -1,4 -3,5 -3,1 -5,2 -8,2 -2,0 -4,0 -6,0 -2,0 -4,0 -4,0 0,-3 0,-7 0,-12 0,-5 0,-8 -1,-12l4 0c3,0 5,0 8,0 6,0 9,2 9,5 0,3 -2,5 -4,6l0 0c3,1 5,3 5,6zm-6 -1c0,-1 -1,-2 -2,-2 -1,0 -2,-1 -4,-1 -1,0 -2,0 -3,0 0,3 0,5 0,6 1,1 3,1 4,1 3,0 5,-1 5,-4zm-1 -9c0,-2 -1,-3 -4,-3 -2,0 -3,0 -5,0 0,2 1,4 1,6 1,0 2,0 3,0 3,0 5,-1 5,-3zm32 -7c0,1 -1,5 -3,10 -3,7 -5,11 -5,14 -1,4 -3,7 -5,8 -1,2 -4,2 -7,2l-1 -4c2,0 4,-1 5,-2 1,-1 2,-3 2,-5 0,-2 -1,-6 -4,-12 -3,-7 -5,-10 -5,-11l8 0c0,1 1,4 2,9 2,5 2,8 2,9l1 0c0,-1 0,-4 2,-9 1,-4 2,-7 2,-9l6 0zm24 24l-7 0c0,-4 1,-7 1,-12 0,-2 0,-5 -1,-7l-2 0c-1,1 -1,3 -2,4 0,2 -1,3 -1,5 -1,1 -2,2 -3,4 0,1 -1,2 -2,3 -1,1 -2,1 -3,2 -1,1 -2,1 -3,1l0 -6c1,0 1,0 2,-1 0,0 1,-1 1,-2 1,-1 2,-2 2,-3 1,-1 1,-2 2,-3 1,-2 1,-3 2,-4 0,-2 0,-3 1,-5l8 0 5 0c0,3 -1,7 -1,12 0,4 1,8 1,12zm13 -5c0,1 0,3 -1,3 -1,1 -2,2 -4,2 -1,0 -2,-1 -3,-1 0,-1 -1,-2 -1,-3 0,-1 1,-2 2,-3 1,-1 2,-2 3,-2 1,0 2,1 3,2 1,0 1,1 1,2zm45 0c0,0 0,3 -1,6 0,4 0,7 0,9l-5 0c0,-2 0,-6 -1,-10l-22 0c1,-5 1,-11 1,-16 0,-6 0,-11 -1,-16l7 0c0,4 0,9 0,15l0 12 11 0 0 -11c0,-7 0,-12 -1,-16l7 0c0,5 0,10 0,16 0,4 0,7 0,11l5 0zm24 -10c0,1 0,2 0,4l-16 0c1,2 1,3 3,5 1,1 3,1 5,1 2,0 5,0 8,-1l-1 5c-2,1 -5,1 -8,1 -4,0 -7,-1 -10,-3 -2,-3 -3,-6 -3,-9 0,-3 1,-6 3,-9 2,-2 5,-4 9,-4 3,0 6,1 8,3 1,2 2,4 2,7zm-6 0c0,-4 -1,-5 -4,-5 -3,0 -5,2 -6,5l10 0zm32 15l-6 0c0,-3 0,-7 0,-11l-9 0c0,4 0,7 0,11l-6 0c0,-4 0,-8 0,-12 0,-4 0,-8 -1,-11l7 -1c0,1 0,4 0,9l9 0c0,-3 0,-6 -1,-8l7 -1c0,3 0,7 0,12 0,4 0,8 0,12zm25 -24l-1 5c-2,0 -4,0 -7,0 0,2 0,5 0,7 0,4 0,8 1,12l-7 0c0,-4 0,-8 0,-12 0,-2 0,-5 0,-7 -2,0 -4,0 -7,0l0 -5 21 0zm27 11c0,3 -1,7 -3,9 -2,3 -5,4 -8,4 -3,0 -5,0 -6,-1l0 0c0,4 0,8 0,12l-6 0c0,-5 0,-10 0,-16 0,-8 0,-14 -1,-19l6 0 0 2 1 0c2,-2 4,-3 7,-3 3,0 6,2 7,4 2,2 3,5 3,8zm-6 1c0,-2 -1,-4 -2,-6 -1,-1 -2,-2 -4,-2 -2,0 -4,1 -5,2 0,5 0,9 0,13 1,0 3,1 4,1 2,0 4,-1 5,-3 1,-1 2,-3 2,-5zm30 12l-5 0c-1,-1 -1,-2 -1,-2l0 0c-2,1 -4,2 -7,2 -2,0 -4,0 -5,-2 -2,-1 -2,-2 -2,-4 0,-3 1,-5 3,-6 2,-2 6,-3 11,-3 0,0 0,0 0,0 0,-2 -1,-3 -1,-4 -1,-1 -3,-1 -5,-1 -3,0 -5,1 -7,1l0 -4c2,-1 6,-1 10,-1 3,0 5,0 6,1 2,2 3,4 3,7 0,1 0,2 0,4 0,1 0,3 0,3 0,4 0,6 0,9zm-6 -6c0,-2 0,-4 0,-5 -6,0 -9,1 -9,4 0,2 2,3 4,3 2,0 4,-1 5,-2zm31 6l-6 0c0,-4 0,-7 0,-12 0,-2 0,-5 0,-7l-3 0c0,1 -1,3 -1,4 -1,2 -1,3 -2,5 -1,1 -1,2 -2,4 -1,1 -2,2 -3,3 0,1 -1,1 -2,2 -1,1 -2,1 -3,1l0 -6c0,0 1,0 1,-1 1,0 1,-1 2,-2 0,-1 1,-2 2,-3 0,-1 1,-2 1,-3 1,-2 2,-3 2,-4 1,-2 1,-3 1,-5l9 0 4 0c0,3 0,7 0,12 0,4 0,8 0,12zm26 -8c0,2 -1,4 -3,6 -2,1 -4,2 -7,2 -1,0 -3,0 -6,0 -2,0 -4,0 -4,0 0,-4 0,-8 0,-12 0,-4 0,-8 -1,-11l7 -1c0,1 0,4 0,9 1,-1 2,-1 3,-1 7,0 11,3 11,8zm-6 0c0,-1 -1,-2 -1,-3 -1,0 -3,-1 -4,-1 -1,0 -2,0 -3,0 0,3 0,5 0,8 1,0 2,0 3,0 3,0 5,-2 5,-4zm31 8l-6 0c0,-3 0,-7 0,-11l-9 0c0,4 0,7 0,11l-6 0c0,-4 0,-8 0,-12 0,-4 0,-8 -1,-11l7 -1c0,1 0,4 0,9l9 0c0,-3 0,-6 -1,-8l7 -1c0,3 0,7 0,12 0,4 0,8 0,12zm25 0l-5 0c-1,-1 -1,-2 -1,-2l0 0c-2,1 -4,2 -7,2 -2,0 -4,0 -5,-2 -2,-1 -2,-2 -2,-4 0,-3 1,-5 3,-6 2,-2 5,-3 11,-3 0,0 0,0 0,0 0,-2 -1,-3 -2,-4 0,-1 -2,-1 -4,-1 -3,0 -5,1 -7,1l0 -4c2,-1 5,-1 9,-1 3,0 6,0 7,1 2,2 3,4 3,7 0,1 0,2 0,4 0,1 0,3 0,3 0,4 0,6 0,9zm-6 -6c0,-2 0,-4 0,-5 -6,0 -9,1 -9,4 0,2 2,3 4,3 2,0 4,-1 5,-2zm19 2c0,4 -3,9 -8,13l-2 -2c2,-2 3,-5 3,-8 -1,0 -2,-2 -2,-3 0,-1 1,-2 1,-3 1,-1 2,-2 4,-2 1,0 2,1 3,2 0,1 1,2 1,3zm34 -2l0 6 -19 0 1 -5c7,-4 10,-8 10,-12 0,-3 -2,-5 -7,-5 -1,0 -2,0 -3,1l0 -5c1,0 3,0 6,0 3,0 6,0 8,2 1,1 2,3 2,5 0,4 -1,6 -3,8 -2,3 -5,4 -7,5l0 1c3,0 8,0 12,-1zm16 6l-7 0c0,-5 0,-8 0,-11 0,-2 0,-5 0,-8l-4 2 -1 -3 9 -6 3 0c-1,6 -1,12 -1,15 0,3 0,6 1,11z"/>
   <path id="1" class="fil1" d="M381 318c0,4 -2,8 -7,13l-3 -2c3,-2 4,-5 4,-8 -2,0 -2,-2 -2,-3 0,-1 0,-2 1,-3 1,-1 2,-2 4,-2 1,0 2,1 2,2 1,1 1,2 1,3zm-355 57c0,2 -1,4 -3,5 -3,1 -5,2 -8,2 -2,0 -4,0 -6,0 -2,0 -4,0 -4,0 0,-3 0,-7 0,-12 0,-5 0,-8 -1,-12l4 0c3,0 5,0 8,0 6,0 9,2 9,5 0,3 -2,5 -4,6l0 0c3,1 5,3 5,6zm-6 -1c0,-1 -1,-2 -2,-2 -1,0 -2,-1 -4,-1 -1,0 -2,0 -3,0 0,3 0,5 0,6 1,1 3,1 4,1 3,0 5,-1 5,-4zm-1 -9c0,-2 -1,-3 -4,-3 -2,0 -3,0 -5,0 0,2 1,4 1,6 1,0 2,0 3,0 3,0 5,-1 5,-3zm32 -7c0,1 -1,5 -3,10 -3,7 -5,11 -5,14 -1,4 -3,7 -5,8 -1,2 -4,2 -7,2l-1 -4c2,0 4,-1 5,-2 1,-1 2,-3 2,-5 0,-2 -1,-6 -4,-12 -3,-7 -5,-10 -5,-11l8 0c0,1 1,4 2,9 2,5 2,8 2,9l1 0c0,-1 0,-4 2,-9 1,-4 2,-7 2,-9l6 0zm24 24l-7 0c0,-4 1,-7 1,-12 0,-2 0,-5 -1,-7l-2 0c-1,1 -1,3 -2,4 0,2 -1,3 -1,5 -1,1 -2,2 -3,4 0,1 -1,2 -2,3 -1,1 -2,1 -3,2 -1,1 -2,1 -3,1l0 -6c1,0 1,0 2,-1 0,0 1,-1 1,-2 1,-1 2,-2 2,-3 1,-1 1,-2 2,-3 1,-2 1,-3 2,-4 0,-2 0,-3 1,-5l8 0 5 0c0,3 -1,7 -1,12 0,4 1,8 1,12zm13 -5c0,1 0,3 -1,3 -1,1 -2,2 -4,2 -1,0 -2,-1 -3,-1 0,-1 -1,-2 -1,-3 0,-1 1,-2 2,-3 1,-1 2,-2 3,-2 1,0 2,1 3,2 1,0 1,1 1,2zm45 0c0,0 0,3 -1,6 0,4 0,7 0,9l-5 0c0,-2 0,-6 -1,-10l-22 0c1,-5 1,-11 1,-16 0,-6 0,-11 -1,-16l7 0c0,4 0,9 0,15l0 12 11 0 0 -11c0,-7 0,-12 -1,-16l7 0c0,5 0,10 0,16 0,4 0,7 0,11l5 0zm24 -10c0,1 0,2 0,4l-16 0c1,2 1,3 3,5 1,1 3,1 5,1 2,0 5,0 8,-1l-1 5c-2,1 -5,1 -8,1 -4,0 -7,-1 -10,-3 -2,-3 -3,-6 -3,-9 0,-3 1,-6 3,-9 2,-2 5,-4 9,-4 3,0 6,1 8,3 1,2 2,4 2,7zm-6 0c0,-4 -1,-5 -4,-5 -3,0 -5,2 -6,5l10 0zm32 15l-6 0c0,-3 0,-7 0,-11l-9 0c0,4 0,7 0,11l-6 0c0,-4 0,-8 0,-12 0,-4 0,-8 -1,-11l7 -1c0,1 0,4 0,9l9 0c0,-3 0,-6 -1,-8l7 -1c0,3 0,7 0,12 0,4 0,8 0,12zm25 -24l-1 5c-2,0 -4,0 -7,0 0,2 0,5 0,7 0,4 0,8 1,12l-7 0c0,-4 0,-8 0,-12 0,-2 0,-5 0,-7 -2,0 -4,0 -7,0l0 -5 21 0zm27 11c0,3 -1,7 -3,9 -2,3 -5,4 -8,4 -3,0 -5,0 -6,-1l0 0c0,4 0,8 0,12l-6 0c0,-5 0,-10 0,-16 0,-8 0,-14 -1,-19l6 0 0 2 1 0c2,-2 4,-3 7,-3 3,0 6,2 7,4 2,2 3,5 3,8zm-6 1c0,-2 -1,-4 -2,-6 -1,-1 -2,-2 -4,-2 -2,0 -4,1 -5,2 0,5 0,9 0,13 1,0 3,1 4,1 2,0 4,-1 5,-3 1,-1 2,-3 2,-5zm30 12l-5 0c-1,-1 -1,-2 -1,-2l0 0c-2,1 -4,2 -7,2 -2,0 -4,0 -5,-2 -2,-1 -2,-2 -2,-4 0,-3 1,-5 3,-6 2,-2 6,-3 11,-3 0,0 0,0 0,0 0,-2 -1,-3 -1,-4 -1,-1 -3,-1 -5,-1 -3,0 -5,1 -7,1l0 -4c2,-1 6,-1 10,-1 3,0 5,0 6,1 2,2 3,4 3,7 0,1 0,2 0,4 0,1 0,3 0,3 0,4 0,6 0,9zm-6 -6c0,-2 0,-4 0,-5 -6,0 -9,1 -9,4 0,2 2,3 4,3 2,0 4,-1 5,-2zm31 6l-6 0c0,-4 0,-7 0,-12 0,-2 0,-5 0,-7l-3 0c0,1 -1,3 -1,4 -1,2 -1,3 -2,5 -1,1 -1,2 -2,4 -1,1 -2,2 -3,3 0,1 -1,1 -2,2 -1,1 -2,1 -3,1l0 -6c0,0 1,0 1,-1 1,0 1,-1 2,-2 0,-1 1,-2 2,-3 0,-1 1,-2 1,-3 1,-2 2,-3 2,-4 1,-2 1,-3 1,-5l9 0 4 0c0,3 0,7 0,12 0,4 0,8 0,12zm26 -8c0,2 -1,4 -3,6 -2,1 -4,2 -7,2 -1,0 -3,0 -6,0 -2,0 -4,0 -4,0 0,-4 0,-8 0,-12 0,-4 0,-8 -1,-11l7 -1c0,1 0,4 0,9 1,-1 2,-1 3,-1 7,0 11,3 11,8zm-6 0c0,-1 -1,-2 -1,-3 -1,0 -3,-1 -4,-1 -1,0 -2,0 -3,0 0,3 0,5 0,8 1,0 2,0 3,0 3,0 5,-2 5,-4zm31 8l-6 0c0,-3 0,-7 0,-11l-9 0c0,4 0,7 0,11l-6 0c0,-4 0,-8 0,-12 0,-4 0,-8 -1,-11l7 -1c0,1 0,4 0,9l9 0c0,-3 0,-6 -1,-8l7 -1c0,3 0,7 0,12 0,4 0,8 0,12zm25 0l-5 0c-1,-1 -1,-2 -1,-2l0 0c-2,1 -4,2 -7,2 -2,0 -4,0 -5,-2 -2,-1 -2,-2 -2,-4 0,-3 1,-5 3,-6 2,-2 5,-3 11,-3 0,0 0,0 0,0 0,-2 -1,-3 -2,-4 0,-1 -2,-1 -4,-1 -3,0 -5,1 -7,1l0 -4c2,-1 5,-1 9,-1 3,0 6,0 7,1 2,2 3,4 3,7 0,1 0,2 0,4 0,1 0,3 0,3 0,4 0,6 0,9zm-6 -6c0,-2 0,-4 0,-5 -6,0 -9,1 -9,4 0,2 2,3 4,3 2,0 4,-1 5,-2zm19 2c0,4 -3,9 -8,13l-2 -2c2,-2 3,-5 3,-8 -1,0 -2,-2 -2,-3 0,-1 1,-2 1,-3 1,-1 2,-2 4,-2 1,0 2,1 3,2 0,1 1,2 1,3zm34 -2l0 6 -19 0 1 -5c7,-4 10,-8 10,-12 0,-3 -2,-5 -7,-5 -1,0 -2,0 -3,1l0 -5c1,0 3,0 6,0 3,0 6,0 8,2 1,1 2,3 2,5 0,4 -1,6 -3,8 -2,3 -5,4 -7,5l0 1c3,0 8,0 12,-1zm16 6l-7 0c0,-5 0,-8 0,-11 0,-2 0,-5 0,-8l-4 2 -1 -3 9 -6 3 0c-1,6 -1,12 -1,15 0,3 0,6 1,11z"/>
  </g>
  <g>
   <path class="fil0 str0" d="M93 44l-8 0c0,-3 0,-7 0,-12 0,-5 0,-9 0,-10l0 0c-1,2 -2,5 -4,11 -3,6 -4,9 -4,11l-6 0c0,-2 -1,-5 -3,-10 -1,-4 -3,-8 -3,-12l-1 0c0,2 0,5 0,11 0,6 -1,10 -1,11l-6 0c0,0 0,-4 1,-12 1,-8 1,-13 1,-15l11 0c0,2 1,6 2,11 2,6 3,9 3,10l0 0c0,-1 1,-4 3,-10 2,-5 3,-9 3,-11l11 0c0,2 0,7 0,15 1,7 1,12 1,12zm15 -5c0,2 -1,3 -2,4 -1,1 -2,2 -4,2 -1,0 -2,-1 -3,-2 -1,-1 -1,-2 -1,-3 0,-1 0,-3 1,-4 1,-1 2,-1 4,-1 2,0 3,0 4,1 0,1 1,2 1,3zm48 5l-8 0c0,-4 0,-10 0,-16 -2,1 -5,1 -9,1 -4,0 -8,-1 -10,-3 -2,-2 -3,-6 -3,-12 0,-2 0,-5 0,-8l8 0c0,2 0,4 0,6 0,5 0,8 2,9 1,2 3,2 6,2 2,0 4,0 6,0 0,-7 0,-12 0,-17l8 0c0,5 0,11 0,18 0,8 0,15 0,20zm32 -16c0,1 0,2 0,3l-19 1c0,2 1,4 3,5 1,2 3,2 6,2 3,0 6,0 9,-1l0 6c-3,1 -6,1 -10,1 -5,0 -9,-1 -12,-4 -2,-3 -4,-6 -4,-10 0,-4 2,-8 4,-11 3,-3 6,-5 11,-5 4,0 7,2 9,4 2,2 3,5 3,9zm-7 -1c0,-4 -2,-6 -6,-6 -3,0 -5,2 -6,7l12 -1z"/>
   <path id="1" class="fil1" d="M93 44l-8 0c0,-3 0,-7 0,-12 0,-5 0,-9 0,-10l0 0c-1,2 -2,5 -4,11 -3,6 -4,9 -4,11l-6 0c0,-2 -1,-5 -3,-10 -1,-4 -3,-8 -3,-12l-1 0c0,2 0,5 0,11 0,6 -1,10 -1,11l-6 0c0,0 0,-4 1,-12 1,-8 1,-13 1,-15l11 0c0,2 1,6 2,11 2,6 3,9 3,10l0 0c0,-1 1,-4 3,-10 2,-5 3,-9 3,-11l11 0c0,2 0,7 0,15 1,7 1,12 1,12zm15 -5c0,2 -1,3 -2,4 -1,1 -2,2 -4,2 -1,0 -2,-1 -3,-2 -1,-1 -1,-2 -1,-3 0,-1 0,-3 1,-4 1,-1 2,-1 4,-1 2,0 3,0 4,1 0,1 1,2 1,3zm48 5l-8 0c0,-4 0,-10 0,-16 -2,1 -5,1 -9,1 -4,0 -8,-1 -10,-3 -2,-2 -3,-6 -3,-12 0,-2 0,-5 0,-8l8 0c0,2 0,4 0,6 0,5 0,8 2,9 1,2 3,2 6,2 2,0 4,0 6,0 0,-7 0,-12 0,-17l8 0c0,5 0,11 0,18 0,8 0,15 0,20zm32 -16c0,1 0,2 0,3l-19 1c0,2 1,4 3,5 1,2 3,2 6,2 3,0 6,0 9,-1l0 6c-3,1 -6,1 -10,1 -5,0 -9,-1 -12,-4 -2,-3 -4,-6 -4,-10 0,-4 2,-8 4,-11 3,-3 6,-5 11,-5 4,0 7,2 9,4 2,2 3,5 3,9zm-7 -1c0,-4 -2,-6 -6,-6 -3,0 -5,2 -6,7l12 -1z"/>
  </g>
 </g>
</svg>
