<?xml version="1.0" encoding="UTF-8"?>
<!DOCTYPE svg PUBLIC "-//W3C//DTD SVG 1.1//EN" "http://www.w3.org/Graphics/SVG/1.1/DTD/svg11.dtd">
<!-- Creator: CorelDRAW X7 -->
<svg xmlns="http://www.w3.org/2000/svg" xml:space="preserve" width="19.8305mm" height="23.133mm" version="1.1" style="shape-rendering:geometricPrecision; text-rendering:geometricPrecision; image-rendering:optimizeQuality; fill-rule:evenodd; clip-rule:evenodd"
viewBox="0 0 57581 67170"
 xmlns:xlink="http://www.w3.org/1999/xlink">
 <defs>
  <style type="text/css">
   <![CDATA[
    .fil0 {fill:#FEFEFE;fill-rule:nonzero}
   ]]>
  </style>
 </defs>
 <g id="Слой_x0020_1">
  <metadata id="CorelCorpID_0Corel-Layer"/>
  <path class="fil0" d="M0 467l0 12113 2354 0 0 -10064 2408 0 0 10064 2355 0 0 -12113 -7117 0zm12005 3163c-1743,0 -3397,1420 -3397,4583 0,2857 1258,4511 3361,4511 1330,0 3361,-899 3361,-4565 0,-2786 -1240,-4529 -3325,-4529zm-18 1797c809,0 1007,1528 1007,2732 0,1294 -198,2768 -971,2768 -845,0 -1078,-1258 -1078,-2768 0,-1204 179,-2732 1042,-2732zm3882 -1635l0 1923 1959 0 0 6865 2354 0 0 -6865 1959 0 0 -1923 -6272 0zm7260 12238l2355 0 0 -4169 36 0c251,414 736,863 1455,863 1492,0 2858,-1420 2858,-4547 0,-2444 -791,-4547 -2714,-4547 -827,0 -1492,450 -1851,1168l-36 0 -126 -1006 -2048 0c35,845 71,1725 71,2786l0 9452zm2355 -9021c0,-216 18,-449 108,-629 89,-414 431,-755 790,-755 701,0 1114,899 1114,2570 0,1384 -305,2606 -1132,2606 -269,0 -575,-144 -755,-683 -89,-180 -125,-449 -125,-737l0 -2372zm8051 5571l0 -8788 -2355 0 0 8788 2355 0zm-1204 -12400c-647,0 -1222,503 -1205,1294 -17,755 522,1276 1169,1276 719,0 1258,-521 1240,-1276 0,-791 -521,-1294 -1204,-1294zm8968 -180c-414,180 -1546,341 -2121,467 -1564,270 -2570,1007 -3217,2067 -755,1222 -1007,2875 -1007,4780 0,2445 666,5464 3559,5464 2300,0 3468,-2103 3468,-4655 0,-2875 -1204,-4331 -2857,-4331 -988,0 -1797,647 -2157,1420l-54 0c54,-593 216,-1150 468,-1582 377,-647 952,-1114 2390,-1312 503,-89 1006,-161 1366,-323l162 -1995zm-1636 8231c0,845 -144,2696 -1204,2696 -1024,0 -1240,-1851 -1240,-2876 0,-395 36,-1006 216,-1527 161,-486 503,-899 1006,-899 1006,0 1222,1582 1222,2606zm3648 -4439l0 8788 2355 0 0 -3468 1851 0 0 3468 2354 0 0 -8788 -2354 0 0 3325 -1851 0 0 -3325 -2355 0zm14144 3522c0,-1797 -431,-3666 -3109,-3666 -1240,0 -2246,396 -2750,665l432 1600c539,-324 1096,-522 1797,-522 844,0 1240,504 1240,1205l0 197c-1995,18 -4026,953 -4026,3271 0,1546 989,2660 2318,2660 773,0 1474,-342 1941,-1007l54 0 126 863 2103 0c-90,-593 -126,-1312 -126,-2013l0 -3253zm-2318 2516c0,162 -18,288 -54,414 -162,521 -575,754 -971,754 -359,0 -844,-323 -844,-1186 0,-1222 1096,-1491 1869,-1509l0 1527zm-50869 12099l0 2390c0,970 -90,1977 -287,2875 -129,629 -345,1312 -653,1797l-719 36 90 4116 1782 0 108 -2426 4271 0 126 2426 1761 0 90 -4116 -818 -36 0 -7062 -5751 0zm2067 1815l1366 0 0 5194 -2121 0c270,-539 449,-1151 539,-1780 144,-880 216,-1815 216,-2677l0 -737zm8590 -1977c-1743,0 -3396,1420 -3396,4583 0,2857 1257,4511 3360,4511 1330,0 3361,-899 3361,-4565 0,-2786 -1240,-4529 -3325,-4529zm-18 1797c809,0 1007,1528 1007,2732 0,1294 -198,2767 -971,2767 -844,0 -1078,-1258 -1078,-2767 0,-1204 180,-2732 1042,-2732zm4655 7153c503,72 1330,108 2174,108 1780,0 4655,-342 4655,-2684 0,-1049 -755,-1899 -2067,-2097l0 -54c899,-216 1690,-892 1690,-2001 0,-1952 -2337,-2204 -3882,-2204 -899,0 -1851,72 -2570,180l0 8752zm2282 -7350c162,-37 360,-55 593,-55 827,0 1384,342 1384,1025 0,701 -665,1096 -1456,1096l-521 0 0 -2066zm-18 3576l557 0c917,0 1672,377 1672,1186 0,862 -809,1168 -1636,1168 -197,0 -431,-18 -593,-54l0 -2300zm8231 3774l0 -8788 -2354 0 0 8788 2354 0zm-1204 -12401c-647,0 -1222,504 -1204,1294 -18,755 521,1276 1168,1276 719,0 1258,-521 1240,-1276 0,-790 -521,-1294 -1204,-1294zm3864 3613l0 2390c0,970 -90,1977 -287,2875 -129,629 -345,1312 -653,1797l-719 36 90 4116 1782 0 108 -2426 4271 0 126 2426 1761 0 90 -4116 -818 -36 0 -7062 -5751 0zm2067 1815l1366 0 0 5194 -2121 0c270,-539 449,-1151 539,-1780 144,-880 216,-1815 216,-2677l0 -737zm5571 -1815l0 8788 2300 0 0 -3630 162 0c593,0 953,611 1151,1491 197,899 377,1654 647,2139l2336 0c-270,-593 -629,-1833 -773,-2498 -234,-1132 -683,-2211 -1545,-2516l2246 -3774 -2444 0 -1528 3504 -252 0 0 -3504 -2300 0zm13623 3522c0,-1797 -432,-3666 -3110,-3666 -1239,0 -2246,395 -2749,665l431 1599c539,-323 1097,-521 1797,-521 845,0 1240,503 1240,1204l0 198c-1994,18 -4025,953 -4025,3271 0,1545 988,2660 2318,2660 773,0 1474,-342 1941,-1007l54 0 126 863 2102 0c-89,-593 -125,-1312 -125,-2013l0 -3253zm-2319 2516c0,162 -18,288 -54,414 -161,521 -575,754 -970,754 -360,0 -845,-323 -845,-1186 0,-1222 1096,-1492 1869,-1510l0 1528zm-33508 12098l0 2391c0,970 -89,1976 -287,2875 -129,629 -345,1312 -653,1797l-719 36 90 4116 1782 0 108 -2426 4271 0 126 2426 1761 0 90 -4116 -818 -36 0 -7063 -5751 0zm2067 1816l1366 0 0 5193 -2121 0c270,-539 450,-1150 539,-1779 144,-881 216,-1815 216,-2678l0 -736zm6164 -1816l0 3864c0,971 -72,2049 -395,2606 -162,288 -360,521 -791,629l378 1869c377,0 826,-90 1204,-269 1563,-737 1797,-2570 1797,-4906l0 -1888 1312 0 0 6884 2354 0 0 -8789 -5859 0zm13712 90c-575,-90 -1473,-143 -2462,-143 -1204,0 -2354,215 -2947,629 -629,449 -1024,1024 -1024,1887 0,1276 952,1922 2048,2156l0 36c-467,144 -826,359 -1060,611 -575,629 -826,1779 -1060,2552 -108,378 -270,701 -432,971l2445 0c107,-198 179,-414 251,-647 270,-1061 468,-2247 1132,-2624 144,-108 342,-180 629,-180l216 0 0 3451 2264 0 0 -8699zm-2246 3828c-108,18 -180,18 -324,18 -862,0 -1491,-557 -1491,-1330 0,-773 503,-1186 1312,-1186 179,0 341,18 503,54l0 2444zm-32915 14219l0 8788 10298 0 0 -8788 -2318 0 0 6865 -1672 0 0 -6865 -2318 0 0 6865 -1671 0 0 -6865 -2319 0zm11933 0l0 8788 2301 0 0 -3630 161 0c594,0 953,611 1151,1492 197,898 377,1653 647,2138l2336 0c-270,-593 -629,-1833 -773,-2498 -233,-1132 -683,-2210 -1545,-2516l2246 -3774 -2444 0 -1528 3505 -251 0 0 -3505 -2301 0zm10406 -162c-1743,0 -3397,1420 -3397,4583 0,2858 1258,4511 3361,4511 1330,0 3361,-899 3361,-4565 0,-2785 -1241,-4529 -3325,-4529zm-18 1798c809,0 1006,1527 1006,2731 0,1294 -197,2768 -970,2768 -845,0 -1079,-1258 -1079,-2768 0,-1204 180,-2731 1043,-2731zm5032 -1636l0 3864c0,971 -72,2049 -396,2606 -161,287 -359,521 -790,629l377 1869c378,0 827,-90 1204,-269 1564,-737 1797,-2570 1797,-4907l0 -1887 1312 0 0 6883 2355 0 0 -8788 -5859 0zm7512 0l0 8788 2192 0c504,-1060 1205,-2785 1438,-3378 342,-845 575,-1564 863,-2498l54 0c-72,1186 -162,2174 -162,3953l0 1923 2139 0 0 -8788 -2229 0 -1330 3361c-287,701 -683,1671 -970,2588l-54 0c90,-899 179,-2444 179,-4044l0 -1905 -2120 0zm10909 5014l0 -395c0,-827 287,-1456 772,-2211 629,-916 1330,-1940 1330,-3181 0,-1222 -665,-2767 -3055,-2767 -862,0 -1707,287 -2085,539l396 1797c341,-233 755,-305 1150,-305 737,0 1186,449 1186,1114 0,683 -252,1222 -773,2013 -665,1042 -1078,1995 -952,3055l36 341 1995 0zm-971 3918c809,0 1330,-611 1330,-1438 0,-880 -575,-1473 -1348,-1473 -719,18 -1348,593 -1348,1473 0,827 575,1438 1330,1438l36 0z"/>
 </g>
</svg>
