<?xml version="1.0" encoding="UTF-8"?>
<!DOCTYPE svg PUBLIC "-//W3C//DTD SVG 1.1//EN" "http://www.w3.org/Graphics/SVG/1.1/DTD/svg11.dtd">
<!-- Creator: CorelDRAW X7 -->
<svg xmlns="http://www.w3.org/2000/svg" xml:space="preserve" width="18.0136mm" height="47.2761mm" version="1.1" style="shape-rendering:geometricPrecision; text-rendering:geometricPrecision; image-rendering:optimizeQuality; fill-rule:evenodd; clip-rule:evenodd"
viewBox="0 0 23265 61059"
 xmlns:xlink="http://www.w3.org/1999/xlink">
 <defs>
  <style type="text/css">
   <![CDATA[
    .fil0 {fill:#FEFEFE;fill-rule:nonzero}
   ]]>
  </style>
 </defs>
 <g id="Слой_x0020_1">
  <metadata id="CorelCorpID_0Corel-Layer"/>
  <path class="fil0" d="M3814 3378c151,25 361,40 612,40 566,0 907,-120 1107,-341 161,-165 251,-386 251,-661 0,-376 -206,-697 -597,-807l0 -20c331,-146 487,-436 487,-737 0,-236 -76,-461 -256,-611 -236,-201 -541,-241 -857,-241 -281,0 -546,20 -747,65l0 3313zm657 -2867c40,-15 100,-20 175,-20 266,0 381,191 381,436 0,276 -180,476 -416,476l-140 0 0 -892zm0 1378l140 0c261,0 491,176 491,517 0,340 -215,506 -486,506 -55,0 -105,0 -145,-10l0 -1013zm1704 -947l0 2451 611 0c141,-296 336,-777 401,-942 95,-236 161,-436 241,-697l15 0c-20,331 -45,607 -45,1103l0 536 596 0 0 -2451 -621 0 -371 937c-80,196 -191,467 -271,722l-15 0c25,-250 50,-682 50,-1127l0 -532 -591 0zm2541 0l0 667c0,270 -25,551 -80,802 -36,175 -96,366 -182,501l-201 10 25 1148 497 0 30 -677 1191 0 35 677 492 0 25 -1148 -228 -10 0 -1970 -1604 0zm576 506l381 0 0 1449 -591 0c75,-151 125,-321 150,-496 40,-246 60,-507 60,-747l0 -206zm3253 477c0,-502 -121,-1023 -867,-1023 -346,0 -627,110 -767,186l120 446c151,-91 306,-146 501,-146 236,0 346,141 346,336l0 55c-556,5 -1122,266 -1122,912 0,431 275,742 646,742 216,0 411,-95 541,-281l15 0 35 241 587 0c-25,-165 -35,-366 -35,-561l0 -907zm-647 701c0,45 -5,80 -15,115 -45,146 -160,211 -270,211 -101,0 -236,-90 -236,-331 0,-341 306,-416 521,-421l0 426zm2732 -1609c-91,-60 -286,-115 -501,-115 -777,0 -1208,561 -1208,1288 0,772 471,1243 1152,1243 256,0 437,-55 547,-105l-85 -456c-106,45 -231,75 -361,75 -346,0 -547,-236 -582,-576l832 0 0 -441 -832 0c25,-286 221,-547 562,-547 180,0 290,50 371,91l105 -457zm175 2376l592 0 25 -852c10,-236 15,-536 25,-1042l10 0c50,250 140,731 200,1002l191 852 531 0 195 -837c81,-381 166,-807 206,-1012l10 0c5,511 15,801 25,1032l25 857 611 0 -160 -2451 -812 0 -175 782c-45,206 -81,411 -146,722l-15 0c-65,-321 -110,-511 -160,-722l-186 -782 -811 0 -181 2451zm3884 -2496c-486,0 -947,396 -947,1278 0,797 351,1258 937,1258 371,0 937,-251 937,-1273 0,-777 -345,-1263 -927,-1263zm-5 501c226,0 281,426 281,762 0,361 -55,772 -271,772 -235,0 -300,-351 -300,-772 0,-336 50,-762 290,-762zm-13882 5832l0 666c0,271 -26,552 -81,802 -36,176 -96,366 -182,501l-200 10 25 1148 497 0 30 -676 1191 0 35 676 491 0 25 -1148 -228 -10 0 -1969 -1603 0zm576 506l381 0 0 1448 -592 0c76,-150 126,-320 151,-496 40,-245 60,-506 60,-746l0 -206zm2396 -551c-487,0 -948,396 -948,1278 0,797 351,1258 938,1258 370,0 937,-251 937,-1273 0,-777 -346,-1263 -927,-1263zm-5 501c225,0 280,426 280,762 0,361 -55,772 -270,772 -236,0 -301,-351 -301,-772 0,-336 50,-762 291,-762zm1298 1995c140,20 371,30 606,30 496,0 1298,-95 1298,-749 0,-292 -210,-529 -576,-584l0 -16c250,-60 471,-248 471,-557 0,-545 -652,-615 -1083,-615 -250,0 -516,20 -716,50l0 2441zm636 -2050c45,-10 100,-15 166,-15 230,0 385,95 385,285 0,196 -185,306 -406,306l-145 0 0 -576zm-5 997l156 0c255,0 466,105 466,331 0,240 -226,326 -457,326 -55,0 -120,-5 -165,-15l0 -642zm2295 1053l0 -2451 -656 0 0 2451 656 0zm-335 -3458c-181,0 -341,140 -336,360 -5,211 145,356 326,356 200,0 351,-145 345,-356 0,-220 -145,-360 -335,-360zm1077 1007l0 666c0,271 -25,552 -80,802 -36,176 -96,366 -182,501l-200 10 25 1148 497 0 30 -676 1191 0 35 676 491 0 25 -1148 -228 -10 0 -1969 -1604 0zm577 506l381 0 0 1448 -592 0c75,-150 126,-320 151,-496 40,-245 60,-506 60,-746l0 -206zm1553 -506l0 2451 642 0 0 -1013 45 0c165,0 266,171 321,416 55,251 105,461 180,597l652 0c-76,-166 -176,-512 -216,-697 -65,-316 -190,-617 -431,-702l627 -1052 -682 0 -426 977 -70 0 0 -977 -642 0zm2080 0l0 2451 612 0c140,-296 335,-777 401,-943 95,-235 160,-436 240,-696l15 0c-20,331 -45,606 -45,1102l0 537 597 0 0 -2451 -622 0 -371 937c-80,195 -190,466 -270,722l-15 0c25,-251 50,-682 50,-1128l0 -531 -592 0zm-10414 5375l5 867c-632,106 -958,572 -958,1278 0,727 306,1183 958,1268l-5 913 586 0 -5 -913c657,-85 962,-551 962,-1268 0,-711 -335,-1177 -962,-1283l5 -862 -586 0zm10 3012c-301,-120 -381,-501 -381,-882 0,-321 60,-736 381,-872l0 1754zm566 -1749c311,146 381,546 381,867 0,386 -85,757 -381,887l0 -1754zm2205 -396c-486,0 -947,396 -947,1278 0,797 351,1258 937,1258 371,0 937,-250 937,-1273 0,-777 -345,-1263 -927,-1263zm-5 502c226,0 281,425 281,761 0,361 -55,772 -271,772 -235,0 -300,-351 -300,-772 0,-336 50,-761 290,-761zm1298 2957l657 0 0 -1163 10 0c70,115 205,240 406,240 416,0 797,-396 797,-1268 0,-681 -221,-1268 -757,-1268 -231,0 -416,126 -516,326l-10 0 -35 -281 -572 0c10,236 20,482 20,777l0 2637zm657 -2517c0,-60 5,-125 30,-175 25,-115 120,-210 221,-210 195,0 310,250 310,716 0,386 -85,727 -316,727 -75,0 -160,-40 -210,-190 -25,-51 -35,-126 -35,-206l0 -662zm1504 1554l591 0 25 -852c10,-235 15,-536 25,-1042l10 0c50,250 140,731 200,1002l191 852 531 0 196 -837c80,-381 165,-807 205,-1012l10 0c5,511 15,802 25,1032l25 857 612 0 -161 -2451 -812 0 -175 782c-45,206 -80,411 -145,722l-15 0c-65,-321 -111,-511 -161,-722l-185 -782 -812 0 -180 2451zm3037 -2451l0 2451 611 0c140,-295 336,-777 401,-942 95,-236 160,-436 241,-697l15 0c-21,331 -46,607 -46,1103l0 536 597 0 0 -2451 -622 0 -370 938c-81,195 -191,466 -271,721l-15 0c25,-250 50,-681 50,-1127l0 -532 -591 0zm-9901 5521c-376,0 -672,266 -672,832 0,521 231,827 667,827 300,0 651,-170 651,-837 0,-501 -210,-822 -646,-822zm-15 346c165,0 200,261 200,481 0,231 -25,486 -195,486 -151,0 -201,-215 -201,-486 0,-160 30,-481 196,-481zm576 1824l0 -330 -1143 0 0 330 1143 0zm-2686 1048l0 -737c0,-662 -25,-1168 -40,-1498l5 0c85,300 195,711 290,987l406 1248 597 0 0 -3283 -552 0 0 737c0,606 35,1172 55,1518l-4 0c-91,-285 -221,-701 -311,-962l-416 -1293 -587 0 0 3283 557 0zm4009 -3298c-671,0 -972,747 -972,1684 0,837 240,1654 952,1654 526,0 952,-516 952,-1684 0,-777 -170,-1654 -932,-1654zm-5 561c211,0 276,406 276,1108 0,747 -75,1108 -276,1108 -220,0 -316,-346 -306,-1108 -5,-757 101,-1108 306,-1108zm1644 1023c-271,170 -491,461 -491,867 0,531 391,887 952,887 536,0 977,-351 977,-952 0,-386 -205,-687 -506,-852l0 -10c346,-211 431,-507 431,-722 0,-486 -376,-802 -842,-802 -501,0 -922,326 -922,857 0,256 120,536 401,717l0 10zm481 1313c-220,0 -336,-236 -336,-516 0,-256 116,-457 281,-572 185,95 376,296 376,602 0,275 -110,486 -321,486zm15 -2456c191,0 266,200 266,421 0,190 -85,396 -226,466 -190,-100 -320,-260 -320,-491 0,-200 85,-396 280,-396zm2827 -441c-65,5 -176,10 -331,35 -266,55 -586,206 -802,441 -300,321 -531,802 -531,1514 0,812 376,1348 992,1348 637,0 933,-581 933,-1158 0,-611 -301,-1007 -737,-1007 -221,0 -391,105 -506,260l-20 0c85,-411 300,-776 731,-867 100,-20 191,-30 271,-35l0 -531zm-672 2862c-205,0 -325,-286 -325,-712 0,-155 15,-251 30,-291 60,-145 165,-215 270,-215 216,0 301,260 306,536 0,391 -70,682 -281,682zm1178 -1183l0 471 997 0 0 -471 -997 0zm2045 1619l651 0 0 -3258 -576 0 -747 386 110 516 552 -285 10 0 0 2641zm1554 200l1177 -3618 -426 0 -1178 3618 427 0zm2330 -3618c-752,0 -1118,797 -1118,1719 0,927 301,1739 1068,1739 641,0 1092,-516 1092,-1789 0,-772 -230,-1669 -1042,-1669zm-30 571c301,0 391,536 391,1128 0,686 -105,1188 -386,1188 -266,0 -411,-391 -411,-1158 0,-727 145,-1158 406,-1158zm-15005 6684l0 2450 656 0 0 -1914 511 0 0 1914 657 0 0 -2450 -1824 0zm2280 3413l656 0 0 -1163 10 0c71,115 206,240 406,240 416,0 797,-395 797,-1267 0,-682 -220,-1269 -756,-1269 -231,0 -416,126 -517,326l-10 0 -35 -280 -571 0c10,235 20,481 20,776l0 2637zm656 -2516c0,-60 5,-126 31,-176 25,-115 120,-210 220,-210 195,0 311,250 311,717 0,385 -85,726 -316,726 -75,0 -160,-40 -211,-190 -25,-50 -35,-125 -35,-206l0 -661zm2451 -943c-486,0 -947,396 -947,1278 0,797 351,1258 937,1258 371,0 937,-250 937,-1273 0,-776 -345,-1263 -927,-1263zm-5 502c226,0 281,426 281,761 0,361 -55,772 -271,772 -235,0 -300,-350 -300,-772 0,-335 50,-761 290,-761zm3403 1438c-70,35 -150,50 -245,50 -306,0 -491,-270 -491,-712 0,-425 185,-726 501,-726 110,0 190,25 245,45l86 -516c-66,-30 -206,-65 -361,-65 -677,0 -1123,526 -1123,1283 0,796 406,1227 1027,1227 186,0 351,-40 416,-70l-55 -516zm291 -1894l0 536 546 0 0 1914 657 0 0 -1914 546 0 0 -536 -1749 0zm3618 982c0,-501 -120,-1022 -867,-1022 -345,0 -626,110 -766,185l120 446c150,-90 306,-145 501,-145 236,0 346,140 346,335l0 56c-557,5 -1123,265 -1123,912 0,431 276,741 647,741 215,0 411,-95 541,-280l15 0 35 240 586 0c-25,-165 -35,-366 -35,-561l0 -907zm-646 702c0,45 -5,80 -15,115 -45,145 -161,210 -271,210 -100,0 -235,-90 -235,-330 0,-341 305,-416 521,-421l0 426zm1108 -1684l0 2450 656 0 0 -967 516 0 0 967 657 0 0 -2450 -657 0 0 927 -516 0 0 -927 -656 0zm-13319 7686l210 0c241,0 466,90 466,320 0,151 -125,301 -451,301 -165,0 -361,-55 -476,-105l-110 436c175,85 406,140 661,140 552,0 1048,-246 1048,-747 0,-317 -241,-547 -592,-601l0 -10c291,-71 497,-258 497,-551 0,-346 -266,-627 -807,-627 -301,0 -567,70 -737,166l100 406c126,-66 286,-116 431,-116 226,0 351,111 351,273 0,173 -155,284 -391,284l-205 0 5 431zm1969 -1399l0 667c0,270 -25,551 -80,802 -36,175 -96,366 -182,501l-201 10 26 1148 497 0 30 -677 1191 0 35 677 491 0 25 -1148 -228 -10 0 -1970 -1604 0zm577 506l381 0 0 1449 -592 0c75,-151 125,-321 150,-496 41,-246 61,-507 61,-747l0 -206zm2395 -551c-486,0 -947,396 -947,1278 0,797 351,1258 937,1258 371,0 937,-251 937,-1273 0,-777 -345,-1263 -927,-1263zm-5 501c226,0 281,426 281,762 0,361 -55,772 -271,772 -235,0 -300,-351 -300,-772 0,-336 50,-762 290,-762zm1298 2957l657 0 0 -1162 10 0c70,115 205,240 406,240 416,0 797,-396 797,-1268 0,-682 -221,-1268 -757,-1268 -231,0 -416,125 -516,326l-10 0 -35 -281 -572 0c10,236 20,481 20,777l0 2636zm657 -2516c0,-60 5,-125 30,-175 25,-115 120,-211 220,-211 196,0 311,251 311,717 0,386 -85,727 -316,727 -75,0 -160,-40 -210,-191 -25,-50 -35,-125 -35,-205l0 -662zm2451 -942c-487,0 -948,396 -948,1278 0,797 351,1258 938,1258 370,0 937,-251 937,-1273 0,-777 -346,-1263 -927,-1263zm-5 501c225,0 280,426 280,762 0,361 -55,772 -270,772 -236,0 -301,-351 -301,-772 0,-336 50,-762 291,-762zm1298 1995c140,20 371,30 606,30 496,0 1298,-95 1298,-748 0,-293 -210,-530 -576,-585l0 -15c250,-60 471,-249 471,-558 0,-545 -652,-615 -1083,-615 -250,0 -516,20 -716,50l0 2441zm636 -2050c45,-10 101,-15 166,-15 230,0 386,95 386,286 0,195 -186,305 -406,305l-146 0 0 -576zm-5 998l156 0c255,0 466,105 466,330 0,241 -226,326 -456,326 -56,0 -121,-5 -166,-15l0 -641zm1574 -2376l105 1303 316 0 105 -1303 -526 0zm2646 1002c-160,-25 -411,-40 -686,-40 -336,0 -657,60 -822,176 -176,125 -286,285 -286,526 0,356 266,536 571,601l0 10c-130,40 -230,101 -295,171 -161,175 -231,496 -296,711 -30,106 -75,196 -120,271l681 0c30,-55 50,-115 70,-180 76,-296 131,-627 316,-732 40,-30 95,-50 176,-50l60 0 0 962 631 0 0 -2426zm-626 1068c-30,5 -50,5 -90,5 -241,0 -416,-156 -416,-371 0,-216 140,-331 365,-331 51,0 96,5 141,15l0 682zm-13958 5195l0 666c0,271 -25,552 -80,802 -36,176 -97,366 -183,501l-200 10 25 1148 497 0 30 -676 1191 0 35 676 492 0 25 -1148 -228 -10 0 -1969 -1604 0zm576 506l381 0 0 1448 -591 0c75,-150 125,-320 150,-496 40,-245 60,-506 60,-746l0 -206zm1554 -506l0 2451 611 0c141,-296 336,-777 401,-943 95,-235 161,-436 241,-696l15 0c-20,331 -45,606 -45,1102l0 537 596 0 0 -2451 -621 0 -371 937c-80,195 -191,466 -271,722l-15 0c25,-251 50,-682 50,-1128l0 -531 -591 0zm2080 0l0 536 546 0 0 1915 657 0 0 -1915 546 0 0 -536 -1749 0zm2029 0l0 2451 612 0c140,-296 336,-777 401,-943 95,-235 160,-436 240,-696l16 0c-21,331 -46,606 -46,1102l0 537 597 0 0 -2451 -622 0 -371 937c-80,195 -190,466 -270,722l-15 0c25,-251 50,-682 50,-1128l0 -531 -592 0zm2276 0l0 2451 656 0 0 -968 516 0 0 968 657 0 0 -2451 -657 0 0 927 -516 0 0 -927 -656 0zm2290 0l0 2451 612 0c140,-296 335,-777 401,-943 95,-235 160,-436 240,-696l15 0c-20,331 -45,606 -45,1102l0 537 596 0 0 -2451 -621 0 -371 937c-80,195 -190,466 -271,722l-15 0c26,-251 51,-682 51,-1128l0 -531 -592 0zm2516 3032c221,-361 431,-887 581,-1338l-666 50c-55,396 -191,917 -336,1333l421 -45zm-13467 3255l0 667c0,271 -25,551 -80,802 -36,175 -96,366 -182,501l-200 10 25 1148 497 0 30 -677 1191 0 35 677 491 0 25 -1148 -228 -10 0 -1970 -1604 0zm577 507l381 0 0 1448 -592 0c75,-150 126,-321 151,-496 40,-246 60,-506 60,-747l0 -205zm2210 1944l0 -2451 -657 0 0 2451 657 0zm-336 -3458c-180,0 -341,140 -336,361 -5,210 146,356 326,356 201,0 351,-146 346,-356 0,-221 -145,-361 -336,-361zm2451 1990c0,-501 -120,-1023 -867,-1023 -346,0 -627,111 -767,186l120 446c151,-90 306,-146 502,-146 235,0 345,141 345,336l0 55c-556,5 -1122,266 -1122,912 0,432 275,742 646,742 216,0 411,-95 542,-280l15 0 35 240 586 0c-25,-165 -35,-366 -35,-561l0 -907zm-647 701c0,45 -5,81 -15,116 -45,145 -160,210 -270,210 -100,0 -236,-90 -236,-331 0,-340 306,-416 521,-421l0 426zm1103 -1684l0 2451 657 0 0 -1909 701 0 0 -542 -1358 0zm1649 0l0 2451 656 0 0 -967 517 0 0 967 656 0 0 -2451 -656 0 0 928 -517 0 0 -928 -656 0zm3152 -45c-486,0 -947,396 -947,1278 0,797 351,1258 937,1258 371,0 938,-250 938,-1273 0,-777 -346,-1263 -928,-1263zm-5 502c226,0 281,425 281,761 0,361 -55,772 -271,772 -235,0 -300,-351 -300,-772 0,-336 50,-761 290,-761zm1509 942l210 0c241,0 467,90 467,320 0,151 -126,301 -452,301 -165,0 -360,-55 -476,-105l-110 436c175,85 406,140 662,140 551,0 1047,-245 1047,-747 0,-317 -240,-547 -591,-601l0 -10c290,-71 496,-258 496,-550 0,-347 -266,-628 -807,-628 -301,0 -566,70 -737,166l101 406c125,-66 285,-116 431,-116 225,0 350,112 350,273 0,173 -155,284 -391,284l-205 0 5 431zm1950 1633c220,-360 431,-887 581,-1338l-667 50c-55,396 -190,918 -335,1334l421 -46zm-12826 3256l0 2451 657 0 0 -1910 701 0 0 -541 -1358 0zm1644 3413l657 0 0 -1163 10 0c70,116 205,241 406,241 416,0 797,-396 797,-1268 0,-682 -221,-1268 -757,-1268 -231,0 -416,125 -516,326l-10 0 -35 -281 -572 0c10,236 20,481 20,777l0 2636zm657 -2516c0,-60 5,-125 30,-175 25,-116 120,-211 220,-211 196,0 311,251 311,717 0,386 -85,727 -316,727 -75,0 -160,-40 -210,-191 -25,-50 -35,-125 -35,-205l0 -662zm1313 -897l676 2270c10,30 20,61 20,91 0,35 -15,65 -35,105 -45,105 -115,210 -205,296 -100,90 -216,160 -326,200l201 566c100,-25 345,-140 556,-386 265,-310 426,-786 546,-1248l501 -1894 -646 0 -201 1288c-20,135 -40,276 -60,401l-10 0c-20,-135 -40,-266 -70,-411l-241 -1278 -706 0zm2170 0l0 2451 656 0 0 -1915 512 0 0 1915 656 0 0 -2451 -1824 0zm2045 0l676 2270c10,30 20,61 20,91 0,35 -15,65 -35,105 -45,105 -115,210 -205,296 -100,90 -216,160 -326,200l200 566c101,-25 346,-140 557,-386 265,-310 426,-786 546,-1248l501 -1894 -646 0 -201 1288c-20,135 -40,276 -60,401l-10 0c-20,-135 -40,-266 -70,-411l-241 -1278 -706 0zm3142 1398l211 0c240,0 466,90 466,321 0,150 -126,301 -451,301 -166,0 -361,-55 -476,-105l-111 436c176,85 406,140 662,140 551,0 1047,-246 1047,-747 0,-317 -240,-547 -591,-601l0 -10c291,-71 496,-258 496,-551 0,-346 -265,-627 -807,-627 -300,0 -566,70 -736,165l100 407c125,-66 285,-116 431,-116 225,0 351,111 351,272 0,174 -156,284 -391,284l-206 0 5 431zm-15547 3977l5 867c-631,106 -957,572 -957,1278 0,727 306,1183 957,1268l-5 913 587 0 -5 -913c656,-85 962,-551 962,-1268 0,-711 -336,-1177 -962,-1283l5 -862 -587 0zm10 3013c-300,-121 -381,-502 -381,-883 0,-320 61,-736 381,-872l0 1755zm567 -1750c310,146 381,547 381,867 0,386 -86,757 -381,887l0 -1754zm1999 2100l0 -2450 -656 0 0 2450 656 0zm-335 -3458c-181,0 -341,141 -336,361 -5,211 145,356 326,356 200,0 350,-145 345,-356 0,-220 -145,-361 -335,-361zm972 2406l210 0c241,0 467,90 467,321 0,150 -126,300 -452,300 -165,0 -360,-55 -476,-105l-110 436c175,85 406,140 662,140 551,0 1047,-245 1047,-746 0,-318 -240,-547 -591,-602l0 -10c290,-71 496,-258 496,-550 0,-347 -266,-628 -807,-628 -301,0 -566,71 -737,166l101 407c125,-66 285,-116 431,-116 225,0 350,111 350,272 0,174 -155,284 -391,284l-205 0 5 431zm1709 -1398l0 2450 642 0 0 -1012 45 0c165,0 265,170 320,416 56,250 106,461 181,596l651 0c-75,-165 -175,-511 -215,-696 -65,-316 -191,-617 -431,-702l626 -1052 -681 0 -426 977 -70 0 0 -977 -642 0zm1925 0l676 2270c10,30 20,60 20,90 0,35 -15,65 -35,105 -45,106 -115,211 -205,296 -101,90 -216,161 -326,201l200 566c101,-25 346,-140 557,-386 265,-311 426,-787 546,-1248l501 -1894 -646 0 -201 1288c-20,135 -40,275 -60,401l-10 0c-20,-136 -40,-266 -70,-411l-241 -1278 -706 0zm2250 0l0 1077c0,271 -20,571 -110,727 -45,80 -101,145 -221,175l105 521c106,0 231,-25 336,-75 436,-205 501,-716 501,-1368l0 -526 366 0 0 1919 657 0 0 -2450 -1634 0zm2090 0l0 2430c185,25 431,45 641,45 341,0 702,-55 958,-240 180,-135 310,-346 310,-637 0,-596 -466,-837 -1007,-837 -80,0 -155,5 -251,20l0 -781 -651 0zm651 1253c46,-5 86,-10 131,-10 240,0 466,110 466,375 0,261 -221,376 -461,376 -45,0 -90,0 -136,-5l0 -736zm1138 -1253l0 536 547 0 0 1914 656 0 0 -1914 546 0 0 -536 -1749 0zm1875 0l676 2270c10,30 20,60 20,90 0,35 -15,65 -35,105 -45,106 -115,211 -205,296 -101,90 -216,161 -326,201l200 566c101,-25 346,-140 557,-386 265,-311 426,-787 546,-1248l501 -1894 -646 0 -201 1288c-20,135 -40,275 -60,401l-10 0c-20,-136 -40,-266 -70,-411l-241 -1278 -706 0zm2165 3413l656 0 0 -1163 10 0c71,115 206,240 406,240 416,0 797,-395 797,-1268 0,-681 -220,-1268 -757,-1268 -230,0 -416,126 -516,326l-10 0 -35 -280 -571 0c10,235 20,481 20,776l0 2637zm656 -2516c0,-60 5,-126 30,-176 26,-115 121,-210 221,-210 195,0 311,250 311,717 0,385 -86,726 -316,726 -75,0 -161,-40 -211,-190 -25,-50 -35,-126 -35,-206l0 -661zm1589 -897l0 2450 612 0c140,-295 335,-777 401,-942 95,-235 160,-436 240,-696l15 0c-20,330 -45,606 -45,1102l0 536 596 0 0 -2450 -621 0 -371 937c-80,195 -190,466 -271,722l-15 0c25,-251 50,-682 50,-1128l0 -531 -591 0zm2661 2490c236,0 391,-170 391,-436 0,-270 -170,-436 -381,-436 -205,0 -386,186 -386,436 0,266 176,436 376,436z"/>
 </g>
</svg>
