<?xml version="1.0" encoding="UTF-8"?>
<!DOCTYPE svg PUBLIC "-//W3C//DTD SVG 1.1//EN" "http://www.w3.org/Graphics/SVG/1.1/DTD/svg11.dtd">
<!-- Creator: CorelDRAW X7 -->
<svg xmlns="http://www.w3.org/2000/svg" xml:space="preserve" width="13.1664mm" height="17.3872mm" version="1.1" style="shape-rendering:geometricPrecision; text-rendering:geometricPrecision; image-rendering:optimizeQuality; fill-rule:evenodd; clip-rule:evenodd"
viewBox="0 0 13895 18349"
 xmlns:xlink="http://www.w3.org/1999/xlink">
 <defs>
  <style type="text/css">
   <![CDATA[
    .fil0 {fill:#FEFEFE;fill-rule:nonzero}
   ]]>
  </style>
 </defs>
 <g id="Слой_x0020_1">
  <metadata id="CorelCorpID_0Corel-Layer"/>
  <path class="fil0" d="M485 2760c123,21 295,33 500,33 463,0 741,-98 905,-279 131,-135 205,-315 205,-540 0,-307 -168,-569 -488,-660l0 -16c270,-119 397,-356 397,-602 0,-192 -61,-377 -208,-499 -193,-164 -443,-197 -701,-197 -229,0 -446,16 -610,53l0 2707zm537 -2342c32,-13 82,-17 143,-17 217,0 311,156 311,357 0,225 -147,389 -340,389l-114 0 0 -729zm0 1126l114 0c213,0 402,143 402,422 0,278 -176,413 -398,413 -45,0 -86,0 -118,-8l0 -827zm1392 -774l0 2002 500 0c114,-241 274,-634 327,-769 78,-193 131,-357 197,-570l12 0c-16,271 -37,496 -37,901l0 438 487 0 0 -2002 -507 0 -303 766c-66,159 -156,381 -221,589l-13 0c21,-204 41,-557 41,-921l0 -434 -483 0zm2076 0l0 544c0,222 -20,451 -65,656 -30,143 -79,299 -149,409l-164 8 21 938 406 0 24 -553 974 0 28 553 401 0 21 -938 -186 -8 0 -1609 -1311 0zm471 414l311 0 0 1183 -483 0c62,-123 103,-262 123,-405 33,-201 49,-414 49,-611l0 -167zm2658 389c0,-410 -99,-836 -709,-836 -282,0 -511,90 -626,152l98 364c123,-74 250,-119 410,-119 192,0 282,115 282,275l0 45c-454,4 -917,217 -917,745 0,352 225,606 528,606 176,0 336,-78 442,-229l13 0 28 196 479 0c-20,-135 -28,-299 -28,-458l0 -741zm-528 573c0,37 -5,65 -13,94 -37,119 -131,172 -221,172 -82,0 -192,-74 -192,-270 0,-279 249,-340 426,-344l0 348zm2231 -1315c-73,-49 -233,-94 -409,-94 -635,0 -987,459 -987,1053 0,630 385,1015 942,1015 209,0 356,-45 446,-86l-69 -373c-86,37 -189,62 -295,62 -283,0 -447,-193 -475,-471l680 0 0 -360 -680 0c20,-234 180,-447 458,-447 148,0 238,41 303,74l86 -373zm144 1941l483 0 20 -696c9,-192 13,-438 21,-852l8 0c41,205 115,598 164,819l155 697 435 0 159 -684c66,-311 135,-660 168,-827l8 0c4,417 13,655 21,843l20 700 500 0 -131 -2002 -664 0 -143 639c-37,168 -65,336 -119,589l-12 0c-53,-262 -90,-417 -131,-589l-151 -639 -664 0 -147 2002zm3173 -2039c-397,0 -774,324 -774,1044 0,651 287,1028 766,1028 303,0 766,-205 766,-1040 0,-635 -283,-1032 -758,-1032zm-4 410c185,0 230,348 230,622 0,295 -45,631 -222,631 -192,0 -245,-287 -245,-631 0,-274 41,-622 237,-622zm-11343 4764l0 545c0,221 -21,451 -66,655 -29,144 -78,299 -148,410l-164 8 20 938 406 0 25 -553 973 0 29 553 401 0 21 -938 -187 -8 0 -1610 -1310 0zm471 414l311 0 0 1183 -483 0c61,-122 102,-262 123,-405 32,-201 49,-414 49,-610l0 -168zm1957 -450c-397,0 -774,323 -774,1044 0,651 287,1028 766,1028 303,0 766,-205 766,-1040 0,-635 -283,-1032 -758,-1032zm-4 409c184,0 230,348 230,623 0,294 -46,630 -222,630 -192,0 -245,-286 -245,-630 0,-275 41,-623 237,-623zm1061 1630c115,16 303,24 495,24 406,0 1061,-77 1061,-611 0,-239 -172,-433 -471,-478l0 -12c205,-49 385,-203 385,-456 0,-445 -532,-502 -885,-502 -204,0 -421,16 -585,41l0 1994zm520 -1675c37,-8 82,-12 135,-12 188,0 315,78 315,233 0,160 -151,250 -331,250l-119 0 0 -471zm-4 815l127 0c209,0 381,86 381,270 0,197 -185,266 -373,266 -45,0 -98,-4 -135,-12l0 -524zm1875 860l0 -2003 -536 0 0 2003 536 0zm-274 -2826c-147,0 -278,115 -274,295 -4,172 118,291 266,291 164,0 286,-119 282,-291 0,-180 -118,-295 -274,-295zm881 823l0 545c0,221 -21,451 -66,655 -29,144 -79,299 -149,410l-164 8 21 938 406 0 25 -553 973 0 28 553 402 0 20 -938 -186 -8 0 -1610 -1310 0zm470 414l312 0 0 1183 -484 0c62,-122 103,-262 123,-405 33,-201 49,-414 49,-610l0 -168zm1270 -414l0 2003 524 0 0 -827 37 0c135,0 217,139 262,340 45,204 86,376 147,487l533 0c-62,-135 -144,-418 -176,-569 -54,-258 -156,-504 -352,-574l511 -860 -556 0 -349 799 -57 0 0 -799 -524 0zm1699 0l0 2003 500 0c115,-242 274,-635 328,-770 77,-192 131,-356 196,-569l12 0c-16,270 -36,495 -36,901l0 438 487 0 0 -2003 -508 0 -303 766c-65,160 -156,381 -221,590l-12 0c20,-205 41,-557 41,-921l0 -435 -484 0zm-8509 4393l4 708c-516,86 -782,467 -782,1044 0,594 249,967 782,1036l-4 746 479 0 -4 -746c536,-69 786,-450 786,-1036 0,-581 -274,-962 -786,-1048l4 -704 -479 0zm8 2461c-246,-99 -311,-410 -311,-721 0,-262 49,-602 311,-713l0 1434zm463 -1429c254,118 311,446 311,708 0,315 -70,618 -311,725l0 -1433zm1802 -324c-398,0 -774,324 -774,1044 0,651 286,1028 765,1028 303,0 766,-205 766,-1040 0,-635 -282,-1032 -757,-1032zm-4 410c184,0 229,348 229,622 0,295 -45,631 -221,631 -193,0 -246,-287 -246,-631 0,-274 41,-622 238,-622zm1060 2416l537 0 0 -950 8 0c57,94 168,196 331,196 340,0 652,-323 652,-1036 0,-557 -181,-1036 -619,-1036 -188,0 -340,102 -422,266l-8 0 -28 -229 -467 0c8,192 16,393 16,635l0 2154zm537 -2056c0,-49 4,-102 24,-143 21,-95 98,-172 180,-172 160,0 254,204 254,585 0,316 -69,594 -258,594 -61,0 -131,-33 -172,-156 -20,-41 -28,-102 -28,-167l0 -541zm1228 1269l483 0 21 -696c8,-192 12,-438 20,-851l8 0c41,204 115,597 164,819l156 696 434 0 160 -684c65,-311 135,-659 168,-827l8 0c4,417 12,655 20,843l21 700 499 0 -131 -2002 -663 0 -143 639c-37,168 -66,336 -119,589l-12 0c-54,-262 -91,-417 -131,-589l-152 -639 -663 0 -148 2002zm2482 -2002l0 2002 499 0c115,-241 275,-634 328,-769 78,-193 131,-357 196,-570l13 0c-17,271 -37,496 -37,901l0 438 487 0 0 -2002 -508 0 -303 766c-65,159 -155,381 -221,589l-12 0c20,-204 41,-557 41,-921l0 -434 -483 0zm-8090 4511c-307,0 -549,217 -549,680 0,426 189,675 545,675 245,0 532,-139 532,-684 0,-409 -172,-671 -528,-671zm-12 282c135,0 163,213 163,394 0,188 -20,397 -159,397 -123,0 -164,-176 -164,-397 0,-131 24,-394 160,-394zm471 1491l0 -270 -934 0 0 270 934 0zm-2195 856l0 -602c0,-541 -21,-954 -33,-1224l4 0c69,245 160,581 237,806l332 1020 487 0 0 -2682 -450 0 0 602c0,495 29,958 45,1240l-4 0c-74,-233 -180,-573 -254,-786l-340 -1056 -479 0 0 2682 455 0zm3276 -2695c-549,0 -795,611 -795,1376 0,684 197,1352 778,1352 430,0 778,-422 778,-1376 0,-635 -139,-1352 -761,-1352zm-5 459c172,0 226,332 226,905 0,610 -62,905 -226,905 -180,0 -258,-282 -249,-905 -4,-618 82,-905 249,-905zm1344 835c-221,140 -402,377 -402,709 0,434 320,725 778,725 439,0 799,-287 799,-778 0,-316 -168,-561 -414,-696l0 -9c283,-172 353,-413 353,-589 0,-398 -308,-656 -688,-656 -410,0 -754,267 -754,701 0,208 98,438 328,585l0 8zm393 1073c-180,0 -275,-192 -275,-421 0,-209 95,-373 230,-467 151,77 307,241 307,491 0,225 -90,397 -262,397zm12 -2006c156,0 217,164 217,344 0,155 -69,323 -184,381 -156,-82 -262,-213 -262,-402 0,-164 69,-323 229,-323zm2310 -361c-54,4 -144,9 -271,29 -217,45 -479,168 -655,360 -245,262 -434,656 -434,1237 0,664 307,1102 811,1102 520,0 762,-475 762,-946 0,-500 -246,-823 -602,-823 -180,0 -320,86 -414,213l-16 0c69,-336 245,-635 598,-709 81,-16 155,-24 221,-29l0 -434zm-549 2339c-168,0 -266,-234 -266,-582 0,-127 12,-205 24,-237 50,-119 136,-176 222,-176 176,0 245,212 249,438 0,319 -57,557 -229,557zm962 -967l0 385 815 0 0 -385 -815 0zm1671 1323l532 0 0 -2662 -471 0 -610 315 90 422 451 -233 8 0 0 2158zm1270 164l962 -2957 -348 0 -963 2957 349 0zm1904 -2957c-615,0 -913,651 -913,1405 0,757 245,1421 872,1421 524,0 893,-422 893,-1462 0,-631 -189,-1364 -852,-1364zm-25 467c246,0 320,438 320,921 0,561 -86,971 -316,971 -217,0 -335,-320 -335,-946 0,-594 118,-946 331,-946z"/>
 </g>
</svg>
