<?xml version="1.0" encoding="UTF-8"?>
<!DOCTYPE svg PUBLIC "-//W3C//DTD SVG 1.1//EN" "http://www.w3.org/Graphics/SVG/1.1/DTD/svg11.dtd">
<!-- Creator: CorelDRAW X7 -->
<svg xmlns="http://www.w3.org/2000/svg" xml:space="preserve" width="18.0136mm" height="27.1083mm" version="1.1" style="shape-rendering:geometricPrecision; text-rendering:geometricPrecision; image-rendering:optimizeQuality; fill-rule:evenodd; clip-rule:evenodd"
viewBox="0 0 23046 34681"
 xmlns:xlink="http://www.w3.org/1999/xlink">
 <defs>
  <style type="text/css">
   <![CDATA[
    .fil0 {fill:#FEFEFE;fill-rule:nonzero}
   ]]>
  </style>
 </defs>
 <g id="Слой_x0020_1">
  <metadata id="CorelCorpID_0Corel-Layer"/>
  <path class="fil0" d="M4108 45l0 2427 651 0 0 -1896 506 0 0 1896 650 0 0 -2427 -1807 0zm2259 3381l651 0 0 -1152 9 0c70,114 204,238 403,238 412,0 789,-392 789,-1256 0,-675 -218,-1256 -750,-1256 -228,0 -412,124 -511,323l-10 0 -35 -278 -566 0c10,233 20,476 20,769l0 2612zm651 -2493c0,-59 4,-124 29,-173 25,-115 120,-209 219,-209 193,0 308,248 308,710 0,382 -85,720 -313,720 -75,0 -159,-40 -209,-189 -25,-49 -34,-124 -34,-203l0 -656zm2427 -933c-481,0 -938,392 -938,1266 0,789 347,1246 928,1246 368,0 929,-248 929,-1261 0,-769 -343,-1251 -919,-1251zm-5 497c224,0 278,421 278,754 0,358 -54,765 -268,765 -233,0 -298,-348 -298,-765 0,-333 50,-754 288,-754zm3371 1424c-69,35 -149,50 -243,50 -303,0 -487,-268 -487,-705 0,-422 184,-720 497,-720 109,0 188,25 243,45l85 -512c-65,-29 -204,-64 -358,-64 -670,0 -1112,521 -1112,1271 0,789 402,1216 1018,1216 183,0 347,-40 412,-69l-55 -512zm288 -1876l0 531 541 0 0 1896 651 0 0 -1896 541 0 0 -531 -1733 0zm3584 973c0,-497 -119,-1013 -859,-1013 -342,0 -620,109 -759,184l119 441c149,-89 303,-143 497,-143 233,0 342,139 342,332l0 55c-551,5 -1112,263 -1112,903 0,427 273,735 640,735 214,0 408,-94 537,-278l14 0 35 238 581 0c-25,-164 -35,-362 -35,-556l0 -898zm-640 695c0,44 -5,79 -15,114 -45,144 -159,208 -268,208 -99,0 -233,-89 -233,-327 0,-338 302,-412 516,-417l0 422zm1097 -1668l0 2427 650 0 0 -958 512 0 0 958 650 0 0 -2427 -650 0 0 918 -512 0 0 -918 -650 0zm-13193 7613l209 0c238,0 461,89 461,318 0,149 -124,298 -447,298 -163,0 -357,-55 -471,-105l-109 432c173,85 402,139 655,139 546,0 1038,-243 1038,-739 0,-315 -239,-542 -586,-596l0 -10c288,-70 491,-256 491,-545 0,-344 -263,-622 -799,-622 -298,0 -561,70 -730,164l99 403c125,-65 283,-115 427,-115 224,0 348,110 348,270 0,172 -154,281 -387,281l-204 0 5 427zm1951 -1385l0 660c0,268 -25,546 -79,795 -36,173 -96,362 -181,496l-198 10 24 1137 493 0 30 -670 1180 0 34 670 487 0 25 -1137 -226 -10 0 -1951 -1589 0zm571 501l377 0 0 1435 -586 0c75,-149 125,-318 149,-491 40,-244 60,-502 60,-740l0 -204zm2373 -546c-482,0 -938,392 -938,1266 0,790 347,1246 928,1246 367,0 928,-248 928,-1261 0,-769 -342,-1251 -918,-1251zm-5 497c223,0 278,422 278,754 0,358 -55,765 -268,765 -233,0 -298,-348 -298,-765 0,-332 50,-754 288,-754zm1286 2929l650 0 0 -1152 10 0c70,114 204,238 402,238 412,0 790,-392 790,-1256 0,-675 -219,-1256 -750,-1256 -228,0 -412,124 -511,323l-10 0 -35 -278 -566 0c10,233 20,477 20,769l0 2612zm650 -2492c0,-60 5,-125 30,-174 25,-114 119,-209 218,-209 194,0 308,249 308,710 0,383 -84,720 -313,720 -74,0 -158,-40 -208,-189 -25,-49 -35,-124 -35,-203l0 -655zm2428 -934c-482,0 -938,392 -938,1266 0,790 347,1246 928,1246 367,0 928,-248 928,-1261 0,-769 -342,-1251 -918,-1251zm-5 497c223,0 278,422 278,754 0,358 -55,765 -268,765 -234,0 -298,-348 -298,-765 0,-332 50,-754 288,-754zm1286 1976c139,19 367,29 600,29 492,0 1286,-94 1286,-741 0,-290 -208,-525 -571,-579l0 -15c249,-60 467,-247 467,-553 0,-539 -645,-609 -1072,-609 -249,0 -512,20 -710,50l0 2418zm630 -2031c45,-10 100,-15 164,-15 228,0 382,95 382,283 0,194 -183,303 -402,303l-144 0 0 -571zm-5 988l154 0c253,0 462,104 462,328 0,238 -224,322 -452,322 -55,0 -119,-5 -164,-15l0 -635zm1559 -2353l104 1291 313 0 104 -1291 -521 0zm2621 993c-158,-25 -407,-40 -680,-40 -332,0 -650,60 -814,174 -174,124 -283,283 -283,521 0,353 263,531 566,596l0 10c-129,39 -228,99 -293,169 -159,173 -228,491 -293,705 -29,104 -74,193 -119,268l675 0c30,-55 50,-115 70,-179 74,-293 129,-621 312,-725 40,-30 95,-50 174,-50l60 0 0 954 625 0 0 -2403zm-620 1057c-30,5 -50,5 -89,5 -239,0 -413,-154 -413,-367 0,-214 139,-328 363,-328 50,0 94,5 139,15l0 675zm-13826 5146l0 660c0,269 -25,547 -80,795 -35,173 -95,362 -180,496l-199 10 25 1137 492 0 30 -670 1180 0 35 670 486 0 25 -1137 -226 -10 0 -1951 -1588 0zm571 502l377 0 0 1434 -586 0c75,-149 124,-317 149,-491 40,-243 60,-502 60,-740l0 -203zm1539 -502l0 2428 605 0c139,-293 333,-770 397,-933 95,-234 159,-432 239,-691l15 0c-20,328 -45,601 -45,1093l0 531 591 0 0 -2428 -616 0 -367 929c-80,193 -189,461 -268,714l-15 0c25,-248 49,-675 49,-1117l0 -526 -585 0zm2060 0l0 531 541 0 0 1897 650 0 0 -1897 541 0 0 -531 -1732 0zm2010 0l0 2428 606 0c139,-293 333,-770 397,-933 95,-234 159,-432 239,-691l14 0c-19,328 -44,601 -44,1093l0 531 591 0 0 -2428 -616 0 -367 929c-80,193 -189,461 -269,714l-14 0c24,-248 49,-675 49,-1117l0 -526 -586 0zm2254 0l0 2428 651 0 0 -958 511 0 0 958 650 0 0 -2428 -650 0 0 919 -511 0 0 -919 -651 0zm2269 0l0 2428 606 0c139,-293 332,-770 397,-933 94,-234 159,-432 238,-691l15 0c-20,328 -45,601 -45,1093l0 531 591 0 0 -2428 -615 0 -368 929c-79,193 -188,461 -268,714l-15 0c25,-248 50,-675 50,-1117l0 -526 -586 0zm2492 3004c219,-358 427,-879 576,-1326l-660 50c-55,392 -189,908 -333,1320l417 -44zm-13339 3224l0 661c0,268 -25,546 -80,794 -35,174 -95,362 -180,496l-199 10 25 1137 492 0 30 -670 1180 0 35 670 486 0 25 -1137 -226 -10 0 -1951 -1588 0zm571 502l377 0 0 1435 -586 0c75,-149 124,-318 149,-492 40,-243 60,-501 60,-740l0 -203zm2189 1926l0 -2428 -650 0 0 2428 650 0zm-333 -3425c-178,0 -337,139 -332,357 -5,208 144,353 322,353 199,0 348,-145 343,-353 0,-218 -144,-357 -333,-357zm2428 1970c0,-496 -119,-1012 -859,-1012 -342,0 -620,109 -760,183l120 442c149,-89 303,-144 496,-144 233,0 343,139 343,333l0 55c-551,5 -1112,263 -1112,903 0,427 273,735 640,735 214,0 407,-95 536,-278l15 0 35 238 581 0c-25,-164 -35,-362 -35,-556l0 -899zm-640 696c0,44 -5,79 -15,114 -45,144 -159,208 -268,208 -100,0 -234,-89 -234,-327 0,-338 303,-413 517,-418l0 423zm1092 -1669l0 2428 650 0 0 -1891 695 0 0 -537 -1345 0zm1633 0l0 2428 650 0 0 -958 512 0 0 958 650 0 0 -2428 -650 0 0 919 -512 0 0 -919 -650 0zm3123 -44c-482,0 -939,392 -939,1266 0,789 348,1246 929,1246 367,0 928,-248 928,-1261 0,-770 -342,-1251 -918,-1251zm-5 496c223,0 278,422 278,755 0,357 -55,764 -268,764 -234,0 -298,-347 -298,-764 0,-333 49,-755 288,-755zm1494 934l209 0c238,0 461,89 461,317 0,149 -124,298 -447,298 -163,0 -357,-54 -471,-104l-109 432c173,84 402,139 655,139 546,0 1038,-243 1038,-740 0,-314 -239,-542 -586,-596l0 -10c288,-70 491,-255 491,-545 0,-343 -263,-621 -799,-621 -298,0 -561,69 -730,164l100 402c124,-65 283,-115 426,-115 224,0 348,111 348,270 0,172 -154,282 -387,282l-204 0 5 427zm1931 1618c219,-358 427,-879 576,-1326l-660 50c-55,392 -189,909 -333,1321l417 -45zm-12704 3225l0 2427 651 0 0 -1891 694 0 0 -536 -1345 0zm1628 3381l651 0 0 -1152 10 0c69,114 203,238 402,238 412,0 789,-392 789,-1256 0,-675 -218,-1256 -749,-1256 -229,0 -412,124 -512,323l-10 0 -34 -278 -566 0c10,233 19,476 19,769l0 2612zm651 -2493c0,-59 5,-124 30,-173 25,-115 119,-209 218,-209 194,0 308,248 308,710 0,382 -85,720 -313,720 -74,0 -159,-40 -208,-189 -25,-49 -35,-124 -35,-203l0 -656zm1300 -888l671 2249c10,29 20,59 20,89 0,35 -15,64 -35,104 -45,104 -114,209 -204,293 -99,89 -213,159 -322,199l198 561c99,-25 343,-139 551,-383 263,-307 422,-779 541,-1236l497 -1876 -641 0 -198 1275c-20,135 -40,274 -60,398l-10 0c-20,-134 -39,-263 -69,-407l-238 -1266 -701 0zm2150 0l0 2427 650 0 0 -1896 507 0 0 1896 650 0 0 -2427 -1807 0zm2026 0l670 2249c10,29 20,59 20,89 0,35 -15,64 -35,104 -45,104 -114,209 -204,293 -99,89 -213,159 -322,199l198 561c100,-25 343,-139 551,-383 263,-307 422,-779 541,-1236l497 -1876 -640 0 -199 1275c-20,135 -40,274 -60,398l-10 0c-19,-134 -39,-263 -69,-407l-238 -1266 -700 0zm3112 1385l209 0c238,0 462,89 462,317 0,149 -124,298 -447,298 -164,0 -358,-54 -472,-104l-109 432c174,84 402,139 655,139 546,0 1038,-243 1038,-740 0,-314 -238,-542 -586,-595l0 -10c288,-71 491,-256 491,-546 0,-343 -263,-621 -799,-621 -298,0 -561,69 -729,164l99 403c124,-66 283,-115 427,-115 223,0 347,110 347,270 0,172 -154,281 -387,281l-204 0 5 427zm-15400 3939l5 859c-625,104 -948,566 -948,1266 0,720 303,1172 948,1256l-5 904 581 0 -5 -904c651,-84 953,-546 953,-1256 0,-705 -332,-1167 -953,-1271l5 -854 -581 0zm10 2984c-298,-119 -377,-496 -377,-874 0,-318 59,-729 377,-864l0 1738zm561 -1733c308,144 378,541 378,859 0,383 -85,750 -378,879l0 -1738zm1981 2081l0 -2428 -650 0 0 2428 650 0zm-332 -3426c-179,0 -338,139 -333,358 -5,208 144,352 323,352 198,0 347,-144 342,-352 0,-219 -144,-358 -332,-358zm963 2383l208 0c239,0 462,89 462,318 0,149 -124,298 -447,298 -164,0 -357,-55 -472,-105l-109 432c174,85 402,139 656,139 546,0 1037,-243 1037,-740 0,-314 -238,-541 -586,-595l0 -10c288,-70 492,-256 492,-545 0,-344 -263,-622 -799,-622 -298,0 -561,70 -730,164l99 403c124,-65 283,-115 427,-115 223,0 347,110 347,270 0,172 -153,281 -387,281l-203 0 5 427zm1693 -1385l0 2428 635 0 0 -1003 45 0c164,0 263,169 317,412 55,248 105,456 179,591l646 0c-75,-164 -174,-507 -214,-691 -64,-312 -189,-610 -427,-695l621 -1042 -675 0 -422 968 -70 0 0 -968 -635 0zm1906 0l670 2249c10,30 20,59 20,89 0,35 -15,65 -35,104 -44,105 -114,209 -203,293 -100,90 -214,159 -323,199l199 561c99,-25 342,-139 551,-382 263,-308 422,-780 541,-1236l496 -1877 -640 0 -199 1276c-20,134 -40,273 -59,397l-10 0c-20,-134 -40,-263 -70,-407l-238 -1266 -700 0zm2229 0l0 1067c0,268 -20,566 -109,720 -45,80 -99,144 -219,174l105 516c104,0 228,-25 332,-74 432,-204 497,-710 497,-1356l0 -521 362 0 0 1902 651 0 0 -2428 -1619 0zm2070 0l0 2408c184,25 427,44 636,44 337,0 695,-54 948,-238 179,-134 308,-342 308,-630 0,-591 -462,-829 -998,-829 -80,0 -154,5 -248,19l0 -774 -646 0zm646 1241c44,-5 84,-10 129,-10 238,0 462,109 462,372 0,259 -219,373 -457,373 -45,0 -90,0 -134,-5l0 -730zm1127 -1241l0 531 541 0 0 1897 650 0 0 -1897 541 0 0 -531 -1732 0zm1856 0l671 2249c10,30 20,59 20,89 0,35 -15,65 -35,104 -45,105 -114,209 -204,293 -99,90 -213,159 -322,199l198 561c99,-25 343,-139 551,-382 263,-308 422,-780 541,-1236l497 -1877 -641 0 -198 1276c-20,134 -40,273 -60,397l-10 0c-20,-134 -39,-263 -69,-407l-239 -1266 -700 0zm2145 3381l651 0 0 -1152 9 0c70,114 204,238 403,238 412,0 789,-392 789,-1256 0,-675 -219,-1256 -750,-1256 -228,0 -412,124 -511,323l-10 0 -35 -278 -566 0c10,233 20,477 20,769l0 2612zm651 -2493c0,-59 4,-124 29,-173 25,-114 119,-209 219,-209 193,0 308,249 308,710 0,383 -85,720 -313,720 -75,0 -159,-40 -209,-189 -25,-49 -34,-124 -34,-203l0 -656zm1573 -888l0 2428 606 0c139,-293 333,-770 397,-934 94,-233 159,-432 238,-690l15 0c-20,328 -44,601 -44,1092l0 532 590 0 0 -2428 -615 0 -368 928c-79,194 -188,462 -268,715l-15 0c25,-248 50,-675 50,-1117l0 -526 -586 0zm2636 2467c234,0 388,-169 388,-432 0,-268 -169,-432 -378,-432 -203,0 -382,184 -382,432 0,263 174,432 372,432z"/>
 </g>
</svg>
