<?xml version="1.0" encoding="UTF-8"?>
<!DOCTYPE svg PUBLIC "-//W3C//DTD SVG 1.1//EN" "http://www.w3.org/Graphics/SVG/1.1/DTD/svg11.dtd">
<!-- Creator: CorelDRAW X7 -->
<svg xmlns="http://www.w3.org/2000/svg" xml:space="preserve" width="11.8028mm" height="2.0909mm" version="1.1" style="shape-rendering:geometricPrecision; text-rendering:geometricPrecision; image-rendering:optimizeQuality; fill-rule:evenodd; clip-rule:evenodd"
viewBox="0 0 366 65"
 xmlns:xlink="http://www.w3.org/1999/xlink">
 <defs>
  <style type="text/css">
   <![CDATA[
    .str0 {stroke:#FEFEFE;stroke-width:7.74539;stroke-linecap:round;stroke-linejoin:round}
    .fil0 {fill:none;fill-rule:nonzero}
    .fil1 {fill:#004C73;fill-rule:nonzero}
   ]]>
  </style>
 </defs>
 <g id="Слой_x0020_1">
  <metadata id="CorelCorpID_0Corel-Layer"/>
  <g>
   <path class="fil0 str0" d="M33 31c0,6 -1,11 -4,14 -2,3 -6,4 -11,4 -5,0 -8,-1 -11,-4 -2,-3 -3,-7 -3,-13 0,-6 1,-10 4,-14 2,-3 6,-5 11,-5 5,0 8,2 11,5 2,3 3,7 3,13zm-8 2c0,-4 0,-7 -1,-10 -1,-2 -3,-4 -6,-4 -4,0 -6,4 -6,11 0,5 0,8 2,10 1,2 2,3 5,3 4,0 6,-3 6,-10zm43 -1c0,9 -2,16 -6,21 -4,5 -10,8 -18,8l-1 -5c5,-1 10,-3 13,-6 2,-3 3,-7 4,-12l0 0c-2,2 -5,3 -9,3 -4,0 -7,-1 -9,-4 -2,-2 -3,-5 -3,-9 0,-4 1,-7 4,-10 2,-3 6,-4 10,-4 4,0 8,1 10,4 4,3 5,8 5,14zm-8 1c0,-5 -1,-8 -2,-11 -1,-2 -3,-3 -5,-3 -2,0 -4,1 -5,3 -1,1 -1,3 -1,5 0,3 0,5 1,6 2,2 4,3 6,3 3,0 5,-1 6,-3zm39 -19c0,4 -1,9 -4,16 -2,5 -5,10 -8,16 -3,5 -4,10 -4,12l-8 0c0,-3 2,-9 8,-19 6,-10 9,-16 9,-19 -4,0 -11,1 -19,1l0 -7 26 0zm49 18c0,9 -2,16 -6,21 -5,5 -11,8 -18,8l-1 -5c5,-1 9,-3 12,-6 3,-3 4,-7 5,-12l-1 0c-2,2 -4,3 -8,3 -4,0 -7,-1 -9,-4 -2,-2 -3,-5 -3,-9 0,-4 1,-7 3,-10 3,-3 7,-4 11,-4 4,0 7,1 10,4 3,3 5,8 5,14zm-8 1c0,-5 -1,-8 -2,-11 -2,-2 -3,-3 -5,-3 -2,0 -4,1 -5,3 -1,1 -2,3 -2,5 0,3 1,5 2,6 2,2 3,3 6,3 2,0 4,-1 6,-3zm43 3c0,4 -1,7 -4,9 -3,2 -7,4 -11,4 -4,0 -8,-2 -10,-4 -3,-2 -4,-5 -4,-8 0,-3 0,-5 2,-7 1,-3 3,-4 6,-6l0 0c-4,-3 -6,-6 -6,-10 0,-3 1,-5 4,-7 2,-2 5,-3 9,-3 3,0 6,1 8,2 3,2 4,4 4,7 0,2 -1,4 -2,6 -1,2 -3,3 -5,4l0 0c6,3 9,8 9,13zm-8 0c0,-4 -3,-7 -8,-9 -2,0 -3,1 -4,3 -1,2 -2,4 -2,5 0,3 1,5 2,6 2,1 3,2 5,2 2,0 4,-1 5,-2 1,-1 2,-3 2,-5zm-1 -22c0,-1 -1,-3 -2,-4 -1,-1 -2,-1 -4,-1 -1,0 -3,0 -4,1 -1,1 -1,2 -1,3 0,4 2,6 7,8 3,-1 4,-3 4,-7zm40 29c0,4 -2,8 -6,11 -5,4 -11,6 -20,7l-1 -6c6,0 10,-1 14,-3 3,-2 5,-5 5,-8 0,-5 -5,-7 -15,-7l1 -6c4,0 6,0 9,-1 2,-2 3,-3 3,-5 0,-3 -3,-5 -8,-5 -2,0 -4,0 -6,0l0 -6c2,0 5,0 9,0 4,0 8,0 10,2 2,2 3,4 3,6 0,3 -1,4 -2,6 -2,2 -4,3 -6,4l0 0c3,1 6,2 7,4 2,2 3,4 3,7zm34 5l-8 0c0,-6 0,-10 0,-14 0,-3 0,-7 0,-11l-5 3 -2 -3 11 -9 4 0c0,9 0,16 0,20 0,4 0,8 0,14zm34 -6c0,5 -2,9 -7,12 -4,3 -10,5 -18,6l-1 -6c6,0 10,-1 13,-3 2,-2 4,-4 4,-7 0,-3 -1,-6 -4,-7 -3,-1 -7,-2 -13,-2 1,-10 2,-17 2,-21l21 0 0 7c-4,-1 -9,-1 -15,-1 -1,3 -1,6 -1,9 12,0 19,5 19,13zm49 -10c0,9 -2,16 -6,21 -5,5 -11,8 -18,8l-1 -5c5,-1 9,-3 12,-6 3,-3 4,-7 4,-12l0 0c-2,2 -5,3 -8,3 -4,0 -7,-1 -9,-4 -2,-2 -3,-5 -3,-9 0,-4 1,-7 3,-10 3,-3 6,-4 11,-4 4,0 7,1 10,4 3,3 5,8 5,14zm-8 1c0,-5 -1,-8 -3,-11 -1,-2 -2,-3 -5,-3 -1,0 -3,1 -4,3 -1,1 -2,3 -2,5 0,3 1,5 2,6 1,2 3,3 6,3 2,0 4,-1 6,-3zm39 9c0,5 -2,9 -6,12 -5,3 -11,5 -19,6l0 -6c5,0 9,-1 12,-3 3,-2 4,-4 4,-7 0,-3 -1,-6 -4,-7 -2,-1 -7,-2 -13,-2 2,-10 2,-17 2,-21l21 0 0 7c-4,-1 -9,-1 -15,-1 -1,3 -1,6 -1,9 13,0 19,5 19,13z"/>
   <path id="1" class="fil1" d="M33 31c0,6 -1,11 -4,14 -2,3 -6,4 -11,4 -5,0 -8,-1 -11,-4 -2,-3 -3,-7 -3,-13 0,-6 1,-10 4,-14 2,-3 6,-5 11,-5 5,0 8,2 11,5 2,3 3,7 3,13zm-8 2c0,-4 0,-7 -1,-10 -1,-2 -3,-4 -6,-4 -4,0 -6,4 -6,11 0,5 0,8 2,10 1,2 2,3 5,3 4,0 6,-3 6,-10zm43 -1c0,9 -2,16 -6,21 -4,5 -10,8 -18,8l-1 -5c5,-1 10,-3 13,-6 2,-3 3,-7 4,-12l0 0c-2,2 -5,3 -9,3 -4,0 -7,-1 -9,-4 -2,-2 -3,-5 -3,-9 0,-4 1,-7 4,-10 2,-3 6,-4 10,-4 4,0 8,1 10,4 4,3 5,8 5,14zm-8 1c0,-5 -1,-8 -2,-11 -1,-2 -3,-3 -5,-3 -2,0 -4,1 -5,3 -1,1 -1,3 -1,5 0,3 0,5 1,6 2,2 4,3 6,3 3,0 5,-1 6,-3zm39 -19c0,4 -1,9 -4,16 -2,5 -5,10 -8,16 -3,5 -4,10 -4,12l-8 0c0,-3 2,-9 8,-19 6,-10 9,-16 9,-19 -4,0 -11,1 -19,1l0 -7 26 0zm49 18c0,9 -2,16 -6,21 -5,5 -11,8 -18,8l-1 -5c5,-1 9,-3 12,-6 3,-3 4,-7 5,-12l-1 0c-2,2 -4,3 -8,3 -4,0 -7,-1 -9,-4 -2,-2 -3,-5 -3,-9 0,-4 1,-7 3,-10 3,-3 7,-4 11,-4 4,0 7,1 10,4 3,3 5,8 5,14zm-8 1c0,-5 -1,-8 -2,-11 -2,-2 -3,-3 -5,-3 -2,0 -4,1 -5,3 -1,1 -2,3 -2,5 0,3 1,5 2,6 2,2 3,3 6,3 2,0 4,-1 6,-3zm43 3c0,4 -1,7 -4,9 -3,2 -7,4 -11,4 -4,0 -8,-2 -10,-4 -3,-2 -4,-5 -4,-8 0,-3 0,-5 2,-7 1,-3 3,-4 6,-6l0 0c-4,-3 -6,-6 -6,-10 0,-3 1,-5 4,-7 2,-2 5,-3 9,-3 3,0 6,1 8,2 3,2 4,4 4,7 0,2 -1,4 -2,6 -1,2 -3,3 -5,4l0 0c6,3 9,8 9,13zm-8 0c0,-4 -3,-7 -8,-9 -2,0 -3,1 -4,3 -1,2 -2,4 -2,5 0,3 1,5 2,6 2,1 3,2 5,2 2,0 4,-1 5,-2 1,-1 2,-3 2,-5zm-1 -22c0,-1 -1,-3 -2,-4 -1,-1 -2,-1 -4,-1 -1,0 -3,0 -4,1 -1,1 -1,2 -1,3 0,4 2,6 7,8 3,-1 4,-3 4,-7zm40 29c0,4 -2,8 -6,11 -5,4 -11,6 -20,7l-1 -6c6,0 10,-1 14,-3 3,-2 5,-5 5,-8 0,-5 -5,-7 -15,-7l1 -6c4,0 6,0 9,-1 2,-2 3,-3 3,-5 0,-3 -3,-5 -8,-5 -2,0 -4,0 -6,0l0 -6c2,0 5,0 9,0 4,0 8,0 10,2 2,2 3,4 3,6 0,3 -1,4 -2,6 -2,2 -4,3 -6,4l0 0c3,1 6,2 7,4 2,2 3,4 3,7zm34 5l-8 0c0,-6 0,-10 0,-14 0,-3 0,-7 0,-11l-5 3 -2 -3 11 -9 4 0c0,9 0,16 0,20 0,4 0,8 0,14zm34 -6c0,5 -2,9 -7,12 -4,3 -10,5 -18,6l-1 -6c6,0 10,-1 13,-3 2,-2 4,-4 4,-7 0,-3 -1,-6 -4,-7 -3,-1 -7,-2 -13,-2 1,-10 2,-17 2,-21l21 0 0 7c-4,-1 -9,-1 -15,-1 -1,3 -1,6 -1,9 12,0 19,5 19,13zm49 -10c0,9 -2,16 -6,21 -5,5 -11,8 -18,8l-1 -5c5,-1 9,-3 12,-6 3,-3 4,-7 4,-12l0 0c-2,2 -5,3 -8,3 -4,0 -7,-1 -9,-4 -2,-2 -3,-5 -3,-9 0,-4 1,-7 3,-10 3,-3 6,-4 11,-4 4,0 7,1 10,4 3,3 5,8 5,14zm-8 1c0,-5 -1,-8 -3,-11 -1,-2 -2,-3 -5,-3 -1,0 -3,1 -4,3 -1,1 -2,3 -2,5 0,3 1,5 2,6 1,2 3,3 6,3 2,0 4,-1 6,-3zm39 9c0,5 -2,9 -6,12 -5,3 -11,5 -19,6l0 -6c5,0 9,-1 12,-3 3,-2 4,-4 4,-7 0,-3 -1,-6 -4,-7 -2,-1 -7,-2 -13,-2 2,-10 2,-17 2,-21l21 0 0 7c-4,-1 -9,-1 -15,-1 -1,3 -1,6 -1,9 13,0 19,5 19,13z"/>
  </g>
 </g>
</svg>
